<svg width="20" height="20" viewBox="0 0 20 20" fill="none" xmlns="http://www.w3.org/2000/svg">
<g clip-path="url(#clip0_780_21276)">
<path d="M17.0665 4.01333C16.9107 4.01387 16.7604 3.95553 16.6457 3.85C14.8065 2.17333 12.4465 1.25 9.99985 1.25C7.55318 1.25 5.19318 2.17333 3.35402 3.85083C3.22966 3.94989 3.0723 3.99797 2.91382 3.98535C2.75534 3.97272 2.60758 3.90034 2.50047 3.78285C2.39336 3.66535 2.33492 3.51155 2.33697 3.35258C2.33902 3.1936 2.40141 3.04135 2.51152 2.92667C4.58235 1.03917 7.24152 0 9.99985 0C12.7582 0 15.4174 1.03917 17.4882 2.92667C17.5813 3.01165 17.6466 3.12282 17.6754 3.24556C17.7042 3.36831 17.6952 3.49689 17.6496 3.61443C17.604 3.73197 17.5239 3.83297 17.4198 3.90416C17.3157 3.97535 17.1926 4.01341 17.0665 4.01333Z" fill="white"/>
<path d="M18.125 8.09796C18.0223 8.09821 17.9212 8.07309 17.8306 8.02482C17.74 7.97655 17.6628 7.90663 17.6058 7.82129C15.8708 5.23796 13.0275 3.69546 9.99995 3.69546C6.97245 3.69546 4.12912 5.23796 2.39412 7.82129C2.34837 7.88947 2.28965 7.94797 2.2213 7.99345C2.15295 8.03893 2.0763 8.07051 1.99575 8.08637C1.91519 8.10223 1.8323 8.10208 1.75181 8.0859C1.67132 8.06973 1.5948 8.03787 1.52662 7.99212C1.45844 7.94638 1.39994 7.88765 1.35446 7.8193C1.30897 7.75095 1.2774 7.67431 1.26154 7.59375C1.24567 7.5132 1.24583 7.43031 1.262 7.34981C1.27817 7.26932 1.31004 7.1928 1.35579 7.12462C3.32329 4.19546 6.55495 2.44629 9.99995 2.44629C13.445 2.44629 16.6766 4.19546 18.6441 7.12546C18.707 7.21953 18.7432 7.32893 18.7489 7.44197C18.7545 7.55501 18.7293 7.66745 18.676 7.76729C18.6227 7.86714 18.5433 7.95063 18.4462 8.00887C18.3492 8.06711 18.2381 8.0979 18.125 8.09796Z" fill="white"/>
<path d="M8.02576 20.0002C7.94317 20.0003 7.86138 19.984 7.78514 19.9523C7.70889 19.9205 7.63971 19.8739 7.5816 19.8152C7.44493 19.6777 4.24243 16.4086 4.24243 13.2611C4.24243 9.99441 6.82493 7.33691 9.99993 7.33691C13.1749 7.33691 15.7574 9.99441 15.7574 13.2611C15.7574 13.4268 15.6916 13.5858 15.5744 13.703C15.4572 13.8202 15.2982 13.8861 15.1324 13.8861C14.9667 13.8861 14.8077 13.8202 14.6905 13.703C14.5733 13.5858 14.5074 13.4268 14.5074 13.2611C14.5074 10.6836 12.4858 8.58691 9.99993 8.58691C7.5141 8.58691 5.49243 10.6836 5.49243 13.2611C5.49243 15.9002 8.43993 18.9052 8.46993 18.9352C8.55681 19.0229 8.6158 19.1343 8.63946 19.2554C8.66312 19.3765 8.6504 19.5019 8.6029 19.6158C8.5554 19.7297 8.47524 19.827 8.37254 19.8954C8.26983 19.9638 8.14917 20.0003 8.02576 20.0002Z" fill="white"/>
<path d="M11.9741 19.9998C10.4708 19.9998 6.98579 17.1398 6.64829 13.9548C6.52913 12.829 6.88746 11.6773 7.60579 10.874C8.23079 10.1756 9.07496 9.78812 9.98246 9.78312H9.99996C10.885 9.78312 11.7216 10.1306 12.3583 10.7631C12.6874 11.0902 12.9481 11.4796 13.125 11.9086C13.302 12.3375 13.3918 12.7974 13.3891 13.2615V13.669C13.3891 14.6731 14.1708 15.4898 15.1325 15.4898C16.0941 15.4898 16.8766 14.6731 16.8766 13.669V13.5265C16.8766 9.63479 14.0575 6.39729 10.4583 6.15729C8.58163 6.02979 6.78163 6.67812 5.39246 7.97646C3.95079 9.32479 3.12413 11.2515 3.12413 13.2615C3.12181 14.9082 3.67759 16.5071 4.70079 17.7973C4.75201 17.8615 4.79008 17.9351 4.81284 18.014C4.83559 18.0929 4.84258 18.1755 4.83341 18.2571C4.82424 18.3387 4.79909 18.4177 4.75939 18.4896C4.7197 18.5615 4.66623 18.6248 4.60204 18.676C4.53786 18.7273 4.46422 18.7653 4.38532 18.7881C4.30642 18.8108 4.22382 18.8178 4.14222 18.8087C4.06062 18.7995 3.98162 18.7743 3.90974 18.7346C3.83787 18.6949 3.77451 18.6415 3.72329 18.5773C2.5237 17.065 1.87161 15.191 1.87329 13.2606C1.87329 10.9056 2.84496 8.64646 4.53746 7.06312C6.18163 5.52479 8.31329 4.75979 10.54 4.90896C14.7933 5.19312 18.1258 8.97813 18.1258 13.5256V13.6681C18.1258 15.3615 16.7825 16.739 15.1316 16.739C13.4808 16.739 12.1383 15.3615 12.1383 13.6681V13.2606C12.1383 12.6456 11.9033 12.074 11.4766 11.649C11.2833 11.4538 11.0534 11.2989 10.7999 11.1931C10.5465 11.0872 10.2746 11.0326 9.99996 11.0323H9.98829C9.28413 11.0356 8.80996 11.4015 8.53663 11.7073C8.04913 12.2515 7.80746 13.0431 7.88996 13.8231C8.16579 16.4215 11.1516 18.7506 11.9733 18.7506C12.135 18.7564 12.2882 18.8247 12.4005 18.9411C12.5129 19.0575 12.5758 19.213 12.5759 19.3748C12.576 19.5366 12.5134 19.6922 12.4011 19.8087C12.2889 19.9253 12.1358 19.9938 11.9741 19.9998Z" fill="white"/>
<path d="M14.2932 18.7777C12.0565 18.7777 9.32568 16.0443 9.32568 12.8535C9.32568 12.6878 9.39153 12.5288 9.50874 12.4116C9.62595 12.2944 9.78492 12.2285 9.95068 12.2285C10.1164 12.2285 10.2754 12.2944 10.3926 12.4116C10.5098 12.5288 10.5757 12.6878 10.5757 12.8535C10.5757 15.3268 12.6549 17.5277 14.2932 17.5277C14.4589 17.5277 14.6179 17.5935 14.7351 17.7107C14.8523 17.828 14.9182 17.9869 14.9182 18.1527C14.9182 18.3184 14.8523 18.4774 14.7351 18.5946C14.6179 18.7118 14.4589 18.7777 14.2932 18.7777Z" fill="white"/>
</g>
<defs>
<clipPath id="clip0_780_21276">
<rect width="20" height="20" fill="white"/>
</clipPath>
</defs>
</svg>
