<svg width="21" height="20" viewBox="0 0 21 20" fill="none" xmlns="http://www.w3.org/2000/svg">
<path d="M18.4118 3.90186C18.8842 4.51276 19.279 5.18208 19.6131 5.89147L10.5107 12.6097L6.6875 10.2062V7.33026L10.4904 9.71379L18.4118 3.90186Z" fill="white"/>
<path d="M2.8047 10.0095C2.8047 9.87096 2.8047 9.75412 2.82495 9.61558L0.520246 9.49707C0.520246 9.65564 0.5 9.83257 0.5 9.98947C0.5 12.7485 1.62367 15.2506 3.43571 17.0633L5.0706 15.4275C3.67192 14.0488 2.8047 12.1376 2.8047 10.0095Z" fill="white"/>
<path d="M10.4902 2.3251C10.6285 2.3251 10.7466 2.3251 10.885 2.34513L11.0031 0.0400487C10.8445 0.0400487 10.6673 0.0200195 10.5104 0.0200195C7.75187 0.0200195 5.24976 1.14335 3.43604 2.95603L5.07092 4.59178C6.45104 3.19305 8.38119 2.3251 10.4902 2.3251Z" fill="white"/>
<path d="M10.4897 17.6944C10.3514 17.6944 10.2333 17.6944 10.0949 17.6744L9.97681 19.9795C10.1354 19.9795 10.3126 19.9995 10.4695 19.9995C13.228 19.9995 15.7318 18.8762 17.5439 17.0635L15.909 15.4277C14.5288 16.8465 12.6173 17.6944 10.4897 17.6944Z" fill="white"/>
<path d="M14.8239 3.66542L16.7743 2.22663C15.0601 0.847921 12.8735 0 10.4895 0V2.30508C12.1058 2.32511 13.6024 2.8175 14.8239 3.66542Z" fill="white"/>
<path d="M20.5001 10.0099C20.5001 9.39903 20.4411 8.80816 20.3415 8.21729L18.1937 9.81298C18.1937 9.8714 18.1937 9.95152 18.1937 10.0099C18.1937 12.2766 17.2084 14.3063 15.6528 15.705L17.2084 17.4192C19.2196 15.6065 20.5001 12.9459 20.5001 10.0099Z" fill="white"/>
<path d="M10.4905 17.6949C8.22459 17.6949 6.1949 16.7101 4.79622 15.1528L3.08203 16.7101C4.91432 18.7398 7.55477 20 10.4905 20V17.6949Z" fill="white"/>
<path d="M5.3473 4.31479L3.79002 2.60059C1.76033 4.4333 0.5 7.07387 0.5 10.0099H2.8047C2.8047 7.76322 3.79002 5.71519 5.3473 4.31479Z" fill="white"/>
</svg>
