<svg width="20" height="20" viewBox="0 0 20 20" fill="none" xmlns="http://www.w3.org/2000/svg">
<path d="M0 0H20V9.7035C20 12.3741 18.6244 14.8421 16.3914 16.1775L10.0001 20L3.60859 16.1775C1.37557 14.8421 2.29226e-06 12.3741 2.29226e-06 9.7035L0 0Z" fill="white"/>
<path fill-rule="evenodd" clip-rule="evenodd" d="M5.51733 5V8.21979C5.94244 7.72257 6.71537 7.38614 7.59913 7.38614H8.55947V11.1291C8.55947 12.1249 8.29823 13.0999 7.91064 13.5794H12.0881C11.7013 13.0994 11.4407 12.1256 11.4407 11.131V7.38614H12.4011C13.2849 7.38614 14.0577 7.72257 14.4829 8.21979V5H5.51733Z" fill="#FAB718"/>
</svg>
