<svg width="26" height="26" viewBox="0 0 26 26" fill="none" xmlns="http://www.w3.org/2000/svg">
<path d="M24.6129 5.93171H21.0063C21.5951 5.29339 21.9556 4.44138 21.9556 3.50655C21.9556 3.50655 21.9549 3.36386 21.9535 3.32313C21.9145 2.16948 21.2854 1.14065 20.2707 0.570785C19.2354 -0.010457 18.0021 -0.0103047 16.9716 0.571344L15.3313 1.49704C14.3041 2.0768 13.5001 2.95065 13 3.97816C12.4999 2.95065 11.6959 2.0768 10.6687 1.49709L9.0285 0.571293C7.998 -0.0103047 6.76467 -0.0105078 5.72939 0.570734C4.71463 1.14055 4.0855 2.16943 4.04655 3.32308C4.04518 3.3638 4.04447 3.5065 4.04447 3.5065C4.04447 4.44133 4.40497 5.29334 4.99378 5.93171H1.38714C0.622273 5.93171 0 6.55404 0 7.3189V10.6113C0 11.3761 0.622273 11.9984 1.38714 11.9984H2.02221V24.4779C2.02221 25.2428 2.64448 25.8651 3.40935 25.8651H22.5906C23.3555 25.8651 23.9777 25.2428 23.9777 24.4779V11.9983H24.6128C25.3777 11.9983 25.9999 11.3761 25.9999 10.6112V7.31885C26 6.55403 25.3777 5.93171 24.6129 5.93171ZM15.8993 2.50337L17.5395 1.57768C18.2153 1.19621 19.0248 1.19651 19.7049 1.57839C20.3646 1.94873 20.7734 2.61554 20.7986 3.36218C20.7995 3.38991 20.7999 3.50655 20.7999 3.50655C20.7999 4.84382 19.712 5.93176 18.3747 5.93176H13.6108C13.784 4.50237 14.6278 3.22091 15.8993 2.50337ZM5.20137 3.36213C5.22661 2.61554 5.63545 1.94873 6.29505 1.57834C6.63538 1.38725 7.00791 1.29178 7.38004 1.29178C7.75161 1.29178 8.12277 1.38704 8.46041 1.57768L10.1006 2.50337C11.3721 3.22091 12.2159 4.50237 12.3891 5.93166H7.62511C6.28789 5.93166 5.19995 4.84372 5.19995 3.5065C5.2 3.50655 5.20046 3.38986 5.20137 3.36213ZM10.4001 13.756H8.02136C7.70225 13.756 7.44357 14.0148 7.44357 14.3338C7.44357 14.6529 7.70225 14.9116 8.02136 14.9116H10.4001V24.7095H3.40935C3.34796 24.7094 3.2891 24.685 3.24569 24.6416C3.20228 24.5982 3.17786 24.5394 3.17779 24.478V11.9983H10.4001V13.756ZM10.4001 10.8429H1.38714C1.32575 10.8428 1.2669 10.8184 1.22349 10.775C1.18008 10.7315 1.15566 10.6727 1.15558 10.6113V7.31895C1.15563 7.25755 1.18004 7.19868 1.22346 7.15526C1.26687 7.11183 1.32574 7.08741 1.38714 7.08734H10.4001V10.8429ZM14.4443 24.7094H11.5556V7.08724H14.4443V24.7094ZM22.8222 24.4779C22.8221 24.5393 22.7977 24.5982 22.7543 24.6416C22.7109 24.685 22.652 24.7094 22.5906 24.7095H15.5999V14.9116H17.8015C18.1206 14.9116 18.3793 14.6528 18.3793 14.3338C18.3793 14.0147 18.1206 13.756 17.8015 13.756H15.5999V11.9983H22.8223V24.4779H22.8222ZM24.8444 10.6113C24.8443 10.6727 24.8199 10.7315 24.7765 10.775C24.7331 10.8184 24.6742 10.8428 24.6129 10.8429H15.5999V7.08729H24.6129C24.6743 7.08737 24.7332 7.1118 24.7766 7.15522C24.82 7.19864 24.8444 7.2575 24.8445 7.3189V10.6113H24.8444Z" fill="white"/>
<path d="M20.5459 14.9116H20.6037C20.9228 14.9116 21.1815 14.6528 21.1815 14.3338C21.1815 14.0147 20.9228 13.756 20.6037 13.756H20.5459C20.2268 13.756 19.9682 14.0147 19.9682 14.3338C19.9682 14.6528 20.2268 14.9116 20.5459 14.9116ZM5.21915 14.9116H5.27694C5.59604 14.9116 5.85472 14.6528 5.85472 14.3338C5.85472 14.0147 5.59599 13.756 5.27694 13.756H5.21915C4.90004 13.756 4.64136 14.0147 4.64136 14.3338C4.64136 14.6528 4.90004 14.9116 5.21915 14.9116Z" fill="white"/>
</svg>
