<svg width="20" height="20" viewBox="0 0 20 20" fill="none" xmlns="http://www.w3.org/2000/svg">
<path d="M18.2162 4.01331H13.7377L13.5157 2.48948C13.4186 1.82307 12.8376 1.3205 12.1641 1.3205H7.8359C7.16242 1.3205 6.58137 1.82307 6.4843 2.48956L6.26238 4.01331H1.78387C0.800234 4.01331 0 4.81354 0 5.79714V16.8957C0 17.8793 0.800234 18.6795 1.78387 18.6795H18.2162C19.1998 18.6795 20 17.8793 20 16.8957V5.79714C20 4.81354 19.1998 4.01331 18.2162 4.01331ZM7.64852 2.65909C7.65527 2.61415 7.67787 2.5731 7.71224 2.54337C7.74662 2.51364 7.79049 2.49718 7.83594 2.49698H12.1642C12.2096 2.49719 12.2535 2.51365 12.2879 2.54338C12.3222 2.57311 12.3448 2.61415 12.3516 2.65909L12.5488 4.01331H7.45129L7.64852 2.65909ZM18.8236 16.8957C18.8236 17.2306 18.5511 17.5031 18.2162 17.5031H1.78387C1.44895 17.5031 1.17645 17.2306 1.17645 16.8957V11.2884C1.6941 11.6928 2.34453 11.9348 3.05086 11.9348H7.64695V12.5099C7.64694 12.6165 7.67591 12.7211 7.73076 12.8126C7.78561 12.904 7.86428 12.9788 7.95836 13.0289L9.72316 13.9701C9.80836 14.0156 9.90344 14.0394 10 14.0394C10.0966 14.0394 10.1916 14.0156 10.2768 13.9701L12.0416 13.0289C12.1357 12.9788 12.2144 12.904 12.2692 12.8126C12.3241 12.7211 12.3531 12.6165 12.353 12.5099V11.9348H16.9491C17.6554 11.9348 18.3059 11.6929 18.8236 11.2885V16.8957ZM8.82344 12.157V10.4577H11.1766V12.157L10 12.7845L8.82344 12.157ZM18.8236 8.88389C18.8236 9.91745 17.9827 10.7583 16.9491 10.7583H12.353V9.8694C12.353 9.54456 12.0897 9.28116 11.7648 9.28116H8.2352C7.91035 9.28116 7.64695 9.54452 7.64695 9.8694V10.7583H3.05086C2.0173 10.7583 1.17645 9.91749 1.17645 8.88393V5.79714C1.17645 5.50409 1.38508 5.25886 1.66156 5.20214C1.70179 5.19389 1.74276 5.18976 1.78383 5.18979H18.2161C18.258 5.18979 18.2989 5.19405 18.3384 5.20214C18.6149 5.25889 18.8235 5.50413 18.8235 5.79714V8.88389H18.8236Z" fill="#A7A7A7"/>
</svg>
