<svg width="16" height="16" viewBox="0 0 16 16" fill="none" xmlns="http://www.w3.org/2000/svg">
<path d="M14.3445 4.51053L9.98048 0.146469C9.93405 0.100034 9.87893 0.0631999 9.81826 0.0380687C9.7576 0.0129375 9.69258 1.7112e-06 9.62691 0L3.1096 0C2.22697 0 1.50891 0.718063 1.50891 1.60069V14.3993C1.50891 15.2819 2.22697 16 3.1096 16H12.8903C13.7729 16 14.4909 15.2819 14.4909 14.3993V4.86406C14.491 4.79841 14.478 4.73339 14.4529 4.67273C14.4278 4.61207 14.391 4.55696 14.3445 4.51053ZM10.1269 1.70712L12.7838 4.36409H10.1269V1.70712ZM12.8903 15H3.1096C2.77838 15 2.50891 14.7305 2.50891 14.3993V1.60069C2.50891 1.26947 2.77838 1 3.1096 1H9.12691V4.86406C9.12691 5.14019 9.35079 5.36406 9.62691 5.36406H13.491V14.3993C13.491 14.7305 13.2215 15 12.8903 15ZM11.5749 8.30706C11.5749 8.58319 11.3511 8.80706 11.0749 8.80706H4.92494C4.64882 8.80706 4.42494 8.58319 4.42494 8.30706C4.42494 8.03094 4.64882 7.80706 4.92494 7.80706H11.0749C11.3511 7.80706 11.5749 8.03091 11.5749 8.30706ZM11.5749 11.7195C11.5749 11.9957 11.3511 12.2195 11.0749 12.2195H4.92494C4.64882 12.2195 4.42494 11.9957 4.42494 11.7195C4.42494 11.4434 4.64882 11.2195 4.92494 11.2195H11.0749C11.3511 11.2195 11.5749 11.4434 11.5749 11.7195Z" fill="#131414"/>
</svg>
