<svg width="17" height="16" viewBox="0 0 17 16" fill="none" xmlns="http://www.w3.org/2000/svg">
<path d="M14.4997 12.6663H2.49967C2.32286 12.6663 2.15329 12.7366 2.02827 12.8616C1.90325 12.9866 1.83301 13.1562 1.83301 13.333C1.83301 13.5098 1.90325 13.6794 2.02827 13.8044C2.15329 13.9294 2.32286 13.9997 2.49967 13.9997H14.4997C14.6765 13.9997 14.8461 13.9294 14.9711 13.8044C15.0961 13.6794 15.1663 13.5098 15.1663 13.333C15.1663 13.1562 15.0961 12.9866 14.9711 12.8616C14.8461 12.7366 14.6765 12.6663 14.4997 12.6663ZM8.49967 1.33301C8.32286 1.33301 8.15329 1.40325 8.02827 1.52827C7.90325 1.65329 7.83301 1.82286 7.83301 1.99967V9.05967L5.63967 6.85967C5.51414 6.73414 5.34388 6.66361 5.16634 6.66361C4.98881 6.66361 4.81854 6.73414 4.69301 6.85967C4.56747 6.98521 4.49695 7.15547 4.49695 7.33301C4.49695 7.51054 4.56747 7.68081 4.69301 7.80634L8.02634 11.1397C8.08832 11.2022 8.16205 11.2518 8.24329 11.2856C8.32453 11.3194 8.41167 11.3369 8.49967 11.3369C8.58768 11.3369 8.67482 11.3194 8.75606 11.2856C8.8373 11.2518 8.91103 11.2022 8.97301 11.1397L12.3063 7.80634C12.3685 7.74418 12.4178 7.67039 12.4514 7.58917C12.4851 7.50796 12.5024 7.42091 12.5024 7.33301C12.5024 7.2451 12.4851 7.15806 12.4514 7.07684C12.4178 6.99563 12.3685 6.92183 12.3063 6.85967C12.2442 6.79752 12.1704 6.74821 12.0892 6.71457C12.008 6.68093 11.9209 6.66361 11.833 6.66361C11.7451 6.66361 11.6581 6.68093 11.5768 6.71457C11.4956 6.74821 11.4218 6.79752 11.3597 6.85967L9.16634 9.05967V1.99967C9.16634 1.82286 9.0961 1.65329 8.97108 1.52827C8.84606 1.40325 8.67649 1.33301 8.49967 1.33301Z" fill="white"/>
</svg>
