<svg width="16" height="16" viewBox="0 0 16 16" fill="none" xmlns="http://www.w3.org/2000/svg">
<g clip-path="url(#clip0_254_3099)">
<path d="M14.6263 1.83995L14.153 1.36662C13.8085 1.02392 13.3423 0.831543 12.8563 0.831543C12.3704 0.831543 11.9042 1.02392 11.5597 1.36662L4.68634 8.25329C4.49301 8.44662 4.37301 8.69995 4.34634 8.97329L4.16634 10.9266C4.14634 11.1733 4.23301 11.4133 4.40634 11.5933C4.56634 11.7533 4.77301 11.84 4.99301 11.84H5.06634L7.01967 11.66C7.29301 11.6333 7.54634 11.5133 7.73967 11.32L14.6197 4.43995C14.7904 4.27063 14.926 4.06916 15.0185 3.84718C15.111 3.6252 15.1586 3.3871 15.1586 3.14662C15.1586 2.90614 15.111 2.66803 15.0185 2.44605C14.926 2.22407 14.7904 2.02261 14.6197 1.85328L14.6263 1.83995ZM7.03967 10.6066C7.03967 10.6066 6.97301 10.6533 6.93967 10.6533L5.18634 10.8133L5.34634 9.05995C5.34634 9.01995 5.36634 8.98662 5.39301 8.95329L10.9797 3.36662L12.6263 5.01328L7.03967 10.6V10.6066ZM13.9197 3.72662L13.333 4.31328L11.6863 2.66662L12.273 2.07995C12.433 1.91995 12.6463 1.83328 12.8597 1.83328C13.073 1.83328 13.2863 1.91328 13.4463 2.07995L13.9197 2.55328C13.9976 2.62985 14.0594 2.72116 14.1016 2.82188C14.1439 2.92261 14.1656 3.03073 14.1656 3.13995C14.1656 3.24917 14.1439 3.35729 14.1016 3.45802C14.0594 3.55874 13.9976 3.65005 13.9197 3.72662ZM13.833 8.79328V12.6666C13.833 14.0466 12.713 15.1666 11.333 15.1666H3.33301C1.95301 15.1666 0.833008 14.0466 0.833008 12.6666V4.66662C0.833008 3.28662 1.95301 2.16662 3.33301 2.16662H7.20634C7.47967 2.16662 7.70634 2.39328 7.70634 2.66662C7.70634 2.93995 7.47967 3.16662 7.20634 3.16662H3.33301C2.50634 3.16662 1.83301 3.83995 1.83301 4.66662V12.6666C1.83301 13.4933 2.50634 14.1666 3.33301 14.1666H11.333C12.1597 14.1666 12.833 13.4933 12.833 12.6666V8.79328C12.833 8.51995 13.0597 8.29328 13.333 8.29328C13.6063 8.29328 13.833 8.51995 13.833 8.79328Z" fill="#A7A7A7"/>
</g>
<defs>
<clipPath id="clip0_254_3099">
<rect width="16" height="16" fill="white"/>
</clipPath>
</defs>
</svg>
