<svg width="26" height="26" viewBox="0 0 26 26" fill="none" xmlns="http://www.w3.org/2000/svg">
<path d="M3.9 24.7C4.07239 24.7 4.23772 24.6315 4.35962 24.5096C4.48152 24.3877 4.55 24.2224 4.55 24.05V21.45C4.55275 19.6234 5.14623 17.8467 6.24181 16.3851C7.33739 14.9236 8.87631 13.8556 10.6288 13.3406L11.0344 14.9708L9.7604 21.9908C9.7398 22.1107 9.75325 22.2339 9.79921 22.3465C9.84517 22.4591 9.92181 22.5566 10.0204 22.6278L12.6204 24.5778C12.7329 24.6622 12.8698 24.7078 13.0104 24.7078C13.151 24.7078 13.2879 24.6622 13.4004 24.5778L16.0004 22.6278C16.099 22.5566 16.1756 22.4591 16.2216 22.3465C16.2676 22.2339 16.281 22.1107 16.2604 21.9908L14.9864 14.9708L15.392 13.3406C17.1406 13.8593 18.6749 14.9289 19.7665 16.3902C20.8581 17.8514 21.4486 19.6261 21.45 21.45V24.05C21.45 24.2224 21.5185 24.3877 21.6404 24.5096C21.7623 24.6315 21.9276 24.7 22.1 24.7C22.2724 24.7 22.4377 24.6315 22.5596 24.5096C22.6815 24.3877 22.75 24.2224 22.75 24.05V21.45C22.7473 19.388 22.0917 17.3797 20.8773 15.7132C19.6629 14.0467 17.9521 12.8075 15.99 12.1732C17.0913 11.5183 17.9472 10.5199 18.4261 9.33144C18.905 8.14295 18.9804 6.83011 18.6408 5.5946C18.3012 4.35908 17.5654 3.26924 16.5463 2.49249C15.5272 1.71573 14.2813 1.29504 13 1.29504C11.7187 1.29504 10.4728 1.71573 9.45371 2.49249C8.43465 3.26924 7.6988 4.35908 7.3592 5.5946C7.0196 6.83011 7.09504 8.14295 7.57393 9.33144C8.05282 10.5199 8.90867 11.5183 10.01 12.1732C8.04792 12.8075 6.33705 14.0467 5.12266 15.7132C3.90827 17.3797 3.25272 19.388 3.25 21.45V24.05C3.25 24.2224 3.31848 24.3877 3.44038 24.5096C3.56228 24.6315 3.72761 24.7 3.9 24.7ZM13 23.2388L11.1124 21.8218L12.2434 15.6H13.7566L14.8876 21.8218L13 23.2388ZM13.78 14.3H12.22L11.9132 13.0728C12.6432 12.9757 13.3828 12.9757 14.1128 13.0728L13.78 14.3ZM8.45 7.15C8.45 6.2501 8.71685 5.3704 9.21681 4.62216C9.71677 3.87392 10.4274 3.29073 11.2588 2.94635C12.0902 2.60197 13.005 2.51187 13.8877 2.68743C14.7703 2.86299 15.581 3.29634 16.2173 3.93267C16.8537 4.569 17.287 5.37973 17.4626 6.26234C17.6381 7.14496 17.548 8.05981 17.2037 8.89121C16.8593 9.72262 16.2761 10.4332 15.5278 10.9332C14.7796 11.4332 13.8999 11.7 13 11.7C11.7937 11.6986 10.6372 11.2188 9.78418 10.3658C8.93119 9.51283 8.45138 8.35632 8.45 7.15ZM19.175 19.5C19.3474 19.5 19.5127 19.5685 19.6346 19.6904C19.7565 19.8123 19.825 19.9776 19.825 20.15C19.825 20.3224 19.7565 20.4877 19.6346 20.6096C19.5127 20.7315 19.3474 20.8 19.175 20.8H17.225C17.0526 20.8 16.8873 20.7315 16.7654 20.6096C16.6435 20.4877 16.575 20.3224 16.575 20.15C16.575 19.9776 16.6435 19.8123 16.7654 19.6904C16.8873 19.5685 17.0526 19.5 17.225 19.5H19.175Z" fill="white"/>
</svg>
