<svg width="24" height="24" viewBox="0 0 24 24" fill="none" xmlns="http://www.w3.org/2000/svg">
<path d="M20.1884 7.69079C20.1035 7.64035 20.0022 7.6254 19.9063 7.64919C19.8105 7.67297 19.7278 7.73357 19.6764 7.81784C19.6249 7.90212 19.6087 8.00329 19.6313 8.09943C19.6538 8.19558 19.7134 8.27894 19.797 8.33147C20.237 8.60021 20.4996 9.03183 20.4996 9.48601V11.7591C20.1428 11.4533 19.6825 11.2439 19.1709 11.178V0.749536C19.1709 0.64998 19.1313 0.554502 19.0609 0.484106C18.9905 0.413709 18.8951 0.374161 18.7955 0.374161H9.71488C9.65707 0.374159 9.60005 0.387509 9.54824 0.413169C9.49644 0.43883 9.45127 0.476109 9.41624 0.522098L8.97909 1.09613C8.92032 1.17545 8.89515 1.27472 8.90904 1.37245C8.92293 1.47019 8.97476 1.55852 9.0533 1.61832C9.13184 1.67812 9.23077 1.70458 9.32868 1.69198C9.42658 1.67937 9.51559 1.62871 9.57641 1.55096L9.90088 1.12486H18.4202V11.1555H15.556C15.4939 11.1555 15.4327 11.1709 15.378 11.2004C15.3232 11.2299 15.2767 11.2725 15.2425 11.3244L14.1699 12.9534H4.82516C4.32168 12.9534 3.85959 13.1154 3.49977 13.3844V10.9768C3.49977 10.5623 3.78637 10.1721 4.2299 9.98265C4.32144 9.94351 4.3937 9.86963 4.43077 9.77723C4.46785 9.68484 4.46672 9.5815 4.42762 9.48994C4.38848 9.3984 4.3146 9.32615 4.2222 9.28907C4.12981 9.25199 4.02647 9.25313 3.93491 9.29222C3.21454 9.60001 2.74902 10.2613 2.74902 10.9768V21.7596C2.74902 22.7886 3.68038 23.6258 4.82516 23.6258H19.1756C20.3196 23.6258 21.2504 22.7886 21.2504 21.7596V9.48601C21.2504 8.76816 20.8535 8.09705 20.1885 7.69079H20.1884ZM4.82516 13.7041H14.3722C14.4344 13.7041 14.4955 13.6887 14.5503 13.6592C14.605 13.6297 14.6515 13.5871 14.6857 13.5352L15.7583 11.9063H18.4431C18.4956 12.0503 18.6334 12.1534 18.7956 12.1534C18.8679 12.1534 18.9388 12.1324 18.9995 12.093C19.0602 12.0537 19.1083 11.9976 19.1379 11.9315C19.9123 12.0564 20.4997 12.6353 20.4997 13.3287V15.1896H10.4245C10.2171 15.1896 10.0491 15.3576 10.0491 15.5649C10.0491 15.7723 10.2171 15.9403 10.4245 15.9403H20.4997V17.9168C20.4997 18.5319 19.9057 19.0323 19.1756 19.0323H4.82516C4.09434 19.0323 3.49977 18.5319 3.49977 17.9168V15.9403H6.68015C6.88748 15.9403 7.05552 15.7723 7.05552 15.5649C7.05552 15.3576 6.88748 15.1896 6.68015 15.1896H3.49977V14.8195C3.49977 14.2044 4.09438 13.704 4.82516 13.704V13.7041ZM19.1756 22.8751H4.82516C4.09434 22.8751 3.49977 22.3747 3.49977 21.7596V19.352C3.85963 19.621 4.32173 19.783 4.82516 19.783H19.1756C19.6785 19.783 20.1402 19.6211 20.4997 19.3524V21.7596C20.4997 22.3747 19.9057 22.8751 19.1756 22.8751ZM5.20387 12.305C5.30342 12.305 5.3989 12.2654 5.4693 12.195C5.53969 12.1246 5.57924 12.0292 5.57924 11.9296V5.38754H7.71515C7.8147 5.38754 7.91018 5.34799 7.98058 5.27759C8.05098 5.20719 8.09052 5.11172 8.09052 5.01216V2.649H17.0569V10.1371C17.0569 10.3444 17.2249 10.5125 17.4322 10.5125C17.6396 10.5125 17.8076 10.3444 17.8076 10.1371V2.27363C17.8076 2.22433 17.7979 2.17552 17.779 2.12998C17.7602 2.08444 17.7325 2.04306 17.6977 2.0082C17.6628 1.97334 17.6214 1.94569 17.5759 1.92683C17.5303 1.90796 17.4815 1.89825 17.4322 1.89825H7.71515C7.70193 1.89825 7.6889 1.89896 7.6761 1.90027C7.6754 1.90032 7.67474 1.9005 7.67404 1.9006C7.66176 1.90191 7.64966 1.90383 7.6378 1.90632L7.63499 1.90702C7.62347 1.90952 7.61206 1.91255 7.60082 1.91611C7.59895 1.91672 7.59721 1.91747 7.59538 1.91808C7.58528 1.92142 7.57534 1.92521 7.56557 1.92943C7.56257 1.93069 7.55971 1.93229 7.55676 1.93365C7.5484 1.93746 7.54019 1.94159 7.53215 1.94602C7.5283 1.94818 7.5247 1.95057 7.52095 1.95286C7.51409 1.95694 7.50736 1.96123 7.50079 1.96575C7.49657 1.96871 7.49249 1.9719 7.48837 1.97504C7.48253 1.97938 7.47684 1.98392 7.4713 1.98863C7.46718 1.99223 7.46313 1.99592 7.45916 1.99969C7.45396 2.00457 7.44885 2.00949 7.44393 2.01465C7.44215 2.01647 7.44023 2.01807 7.43854 2.01994L4.92726 4.75847C4.92496 4.76096 4.92299 4.76368 4.92074 4.76625C4.90116 4.7886 4.88438 4.81325 4.87077 4.83966C4.86834 4.8443 4.86618 4.84904 4.86393 4.85382C4.86107 4.85986 4.8583 4.86591 4.85582 4.87215C4.85395 4.87683 4.8523 4.88157 4.85062 4.8863C4.84832 4.89272 4.84602 4.89915 4.8441 4.90575C4.8426 4.91077 4.84143 4.91593 4.84016 4.92104C4.83857 4.92741 4.83688 4.93374 4.83562 4.9403C4.8344 4.94663 4.8336 4.953 4.83271 4.95943C4.83191 4.96486 4.83093 4.97021 4.83041 4.97574C4.82922 4.98786 4.82861 5.00003 4.82859 5.01221V11.9296C4.82859 12.0292 4.86813 12.1247 4.93853 12.1951C5.00893 12.2655 5.10441 12.305 5.20396 12.305L5.20387 12.305ZM6.05737 4.63679L7.33977 3.23836V4.63679H6.05737ZM7.92177 15.565C7.92177 15.5157 7.93148 15.4669 7.95035 15.4214C7.96921 15.3758 7.99686 15.3345 8.03172 15.2996C8.06658 15.2647 8.10796 15.2371 8.1535 15.2182C8.19904 15.1994 8.24785 15.1897 8.29715 15.1897H8.77152C8.97885 15.1897 9.1469 15.3577 9.1469 15.565C9.1469 15.7724 8.97885 15.9404 8.77152 15.9404H8.29715C8.24785 15.9404 8.19904 15.9307 8.1535 15.9118C8.10796 15.893 8.06658 15.8653 8.03172 15.8305C7.99686 15.7956 7.96921 15.7542 7.95035 15.7087C7.93148 15.6631 7.92177 15.6143 7.92177 15.565ZM15.9992 5.19554C15.9992 5.29509 15.9596 5.39057 15.8892 5.46097C15.8188 5.53136 15.7234 5.57091 15.6238 5.57091H9.37476C9.16743 5.57091 8.99938 5.40286 8.99938 5.19554C8.99938 4.98821 9.16743 4.82016 9.37476 4.82016H15.6238C15.7234 4.82016 15.8188 4.85971 15.8892 4.93011C15.9596 5.0005 15.9992 5.09598 15.9992 5.19554ZM15.9992 9.48601C15.9992 9.58556 15.9596 9.68104 15.8892 9.75144C15.8188 9.82183 15.7234 9.86138 15.6238 9.86138H7.01221C6.80488 9.86138 6.63684 9.69333 6.63684 9.48601C6.63684 9.27868 6.80488 9.11063 7.01221 9.11063H15.6238C15.7234 9.11063 15.8188 9.15018 15.8892 9.22058C15.9596 9.29097 15.9992 9.38645 15.9992 9.48601ZM15.9992 6.62658C15.9992 6.72614 15.9596 6.82162 15.8892 6.89201C15.8188 6.96241 15.7234 7.00196 15.6238 7.00196H7.01221C6.80488 7.00196 6.63684 6.83391 6.63684 6.62658C6.63684 6.41926 6.80488 6.25121 7.01221 6.25121H15.6238C15.7234 6.25121 15.8188 6.29076 15.8892 6.36115C15.9596 6.43155 15.9992 6.52703 15.9992 6.62658ZM15.9992 8.05627C15.9992 8.15583 15.9596 8.2513 15.8892 8.3217C15.8188 8.3921 15.7234 8.43165 15.6238 8.43165H7.01221C6.80488 8.43165 6.63684 8.2636 6.63684 8.05627C6.63684 7.84894 6.80488 7.6809 7.01221 7.6809H15.6238C15.7234 7.6809 15.8188 7.72044 15.8892 7.79084C15.9596 7.86124 15.9992 7.95672 15.9992 8.05627Z" fill="#131414"/>
</svg>
