<svg width="24" height="24" viewBox="0 0 24 24" fill="none" xmlns="http://www.w3.org/2000/svg">
<g clip-path="url(#clip0_304_12938)">
<path d="M21.8376 2.10356H17.3435V1.98502C17.3435 1.93578 17.3338 1.88702 17.3149 1.84153C17.2961 1.79604 17.2685 1.75471 17.2336 1.71989L15.6237 0.109828C15.5534 0.0395044 15.458 -6.0959e-07 15.3585 0L7.03153 0C6.93208 0 6.83669 0.0395088 6.76637 0.109835C6.69604 0.180161 6.65653 0.275544 6.65653 0.375V2.10356H2.16239C0.970031 2.10356 0 3.07359 0 4.26595V16.5622C0 17.7545 0.970031 18.7245 2.16239 18.7245H7.97147V20.8143H5.6258C4.57856 20.8143 3.72656 21.5288 3.72656 22.4071V23.625C3.72656 23.7245 3.76607 23.8198 3.8364 23.8902C3.90672 23.9605 4.00211 24 4.10156 24H19.8984C19.9979 24 20.0933 23.9605 20.1636 23.8902C20.2339 23.8198 20.2734 23.7245 20.2734 23.625V22.4071C20.2734 21.5288 19.4214 20.8143 18.3742 20.8143H16.0285V18.7246H21.8376C23.03 18.7246 24 17.7546 24 16.5622V4.26595C24 3.07359 23.03 2.10356 21.8376 2.10356ZM15.7335 1.28034L16.0632 1.61002H15.7335V1.28034ZM7.40653 0.75H14.9835V1.98502C14.9835 2.08447 15.0231 2.17985 15.0934 2.25018C15.1637 2.32051 15.2591 2.36002 15.3585 2.36002H16.5935V12.8791H7.40653V0.75ZM16.9685 13.6291C17.0679 13.6291 17.1633 13.5896 17.2336 13.5193C17.304 13.449 17.3435 13.3536 17.3435 13.2541V4.34822H21.7553V14.9638H2.24466V4.34822H6.65653V13.2541C6.65653 13.3536 6.69604 13.449 6.76637 13.5193C6.83669 13.5896 6.93208 13.6291 7.03153 13.6291H16.9685ZM19.5234 22.4071V23.25H4.47656V22.4071C4.47656 21.9503 5.00287 21.5643 5.6258 21.5643H18.3743C18.9971 21.5643 19.5234 21.9503 19.5234 22.4071ZM15.2785 20.8143H8.72147V18.7245H15.2786V20.8143H15.2785ZM23.25 16.5622C23.25 17.3409 22.6164 17.9745 21.8376 17.9745H2.16239C1.38361 17.9745 0.75 17.3409 0.75 16.5622V4.26595C0.75 3.48717 1.38361 2.85356 2.16239 2.85356H6.65653V3.59822H2.11753C1.77408 3.59822 1.49466 3.87764 1.49466 4.22109V15.3388C1.49466 15.4382 1.53417 15.5336 1.60449 15.6039C1.67482 15.6743 1.7702 15.7138 1.86966 15.7138H22.1304C22.2298 15.7138 22.3252 15.6743 22.3956 15.6039C22.4659 15.5336 22.5054 15.4382 22.5054 15.3388V4.22109C22.5054 3.87764 22.226 3.59822 21.8825 3.59822H17.3435V2.85356H21.8377C22.6164 2.85356 23.25 3.48717 23.25 4.26595V16.5622H23.25ZM15.3156 4.36064C15.3156 4.4601 15.2761 4.55548 15.2058 4.62581C15.1354 4.69613 15.0401 4.73564 14.9406 4.73564H9.05939C8.95993 4.73564 8.86455 4.69613 8.79423 4.62581C8.7239 4.55548 8.68439 4.4601 8.68439 4.36064C8.68439 4.26118 8.7239 4.1658 8.79423 4.09548C8.86455 4.02515 8.95993 3.98564 9.05939 3.98564H14.9407C15.0401 3.98565 15.1355 4.02517 15.2058 4.09549C15.2761 4.16582 15.3156 4.26119 15.3156 4.36064ZM15.3156 6.09389C15.3156 6.19335 15.2761 6.28873 15.2058 6.35906C15.1354 6.42938 15.0401 6.46889 14.9406 6.46889H9.05939C8.95993 6.46889 8.86455 6.42938 8.79423 6.35906C8.7239 6.28873 8.68439 6.19335 8.68439 6.09389C8.68439 5.99443 8.7239 5.89905 8.79423 5.82873C8.86455 5.7584 8.95993 5.71889 9.05939 5.71889H14.9407C15.0401 5.7189 15.1355 5.75842 15.2058 5.82874C15.2761 5.89907 15.3156 5.99444 15.3156 6.09389ZM15.3156 7.82714C15.3156 7.9266 15.2761 8.02198 15.2058 8.09231C15.1354 8.16263 15.0401 8.20214 14.9406 8.20214H9.05939C8.95993 8.20214 8.86455 8.16263 8.79423 8.09231C8.7239 8.02198 8.68439 7.9266 8.68439 7.82714C8.68439 7.72768 8.7239 7.6323 8.79423 7.56198C8.86455 7.49165 8.95993 7.45214 9.05939 7.45214H14.9407C15.0401 7.45215 15.1355 7.49167 15.2058 7.56199C15.2761 7.63232 15.3156 7.72769 15.3156 7.82714ZM15.3156 9.56034C15.3156 9.6598 15.2761 9.75518 15.2058 9.82551C15.1354 9.89583 15.0401 9.93534 14.9406 9.93534H9.05939C8.95993 9.93534 8.86455 9.89583 8.79423 9.82551C8.7239 9.75518 8.68439 9.6598 8.68439 9.56034C8.68439 9.46089 8.7239 9.36551 8.79423 9.29518C8.86455 9.22485 8.95993 9.18534 9.05939 9.18534H14.9407C15.0401 9.18536 15.1355 9.22487 15.2058 9.2952C15.2761 9.36552 15.3156 9.4609 15.3156 9.56034ZM15.3156 11.2936C15.3156 11.393 15.2761 11.4884 15.2058 11.5588C15.1354 11.6291 15.0401 11.6686 14.9406 11.6686H9.05939C8.95993 11.6686 8.86455 11.6291 8.79423 11.5588C8.7239 11.4884 8.68439 11.393 8.68439 11.2936C8.68439 11.1941 8.7239 11.0988 8.79423 11.0284C8.86455 10.9581 8.95993 10.9186 9.05939 10.9186H14.9407C15.0401 10.9186 15.1355 10.9581 15.2058 11.0284C15.2761 11.0988 15.3156 11.1941 15.3156 11.2936ZM8.68439 2.62744C8.68439 2.52798 8.7239 2.4326 8.79423 2.36227C8.86455 2.29195 8.95993 2.25244 9.05939 2.25244H13.2812C13.3807 2.25244 13.4761 2.29195 13.5464 2.36227C13.6167 2.4326 13.6562 2.52798 13.6562 2.62744C13.6562 2.72689 13.6167 2.82228 13.5464 2.8926C13.4761 2.96293 13.3807 3.00244 13.2812 3.00244H9.05939C8.95993 3.00244 8.86455 2.96293 8.79423 2.8926C8.7239 2.82228 8.68439 2.72689 8.68439 2.62744Z" fill="black"/>
</g>
<defs>
<clipPath id="clip0_304_12938">
<rect width="24" height="24" fill="white"/>
</clipPath>
</defs>
</svg>
