<svg width="26" height="26" viewBox="0 0 26 26" fill="none" xmlns="http://www.w3.org/2000/svg">
<path d="M17.7288 24.375H8.27128C7.20175 24.4147 6.15975 24.0308 5.37169 23.3066C4.58362 22.5825 4.11316 21.5766 4.06253 20.5075V15.4375C4.06253 15.222 4.14813 15.0153 4.3005 14.863C4.45288 14.7106 4.65954 14.625 4.87503 14.625C5.09052 14.625 5.29718 14.7106 5.44955 14.863C5.60193 15.0153 5.68753 15.222 5.68753 15.4375V20.5075C5.73747 21.1457 6.03645 21.7386 6.51989 22.1582C7.00333 22.5778 7.63242 22.7904 8.27128 22.75H17.7288C18.3676 22.7904 18.9967 22.5778 19.4802 22.1582C19.9636 21.7386 20.2626 21.1457 20.3125 20.5075V15.4375C20.3125 15.222 20.3981 15.0153 20.5505 14.863C20.7029 14.7106 20.9095 14.625 21.125 14.625C21.3405 14.625 21.5472 14.7106 21.6996 14.863C21.8519 15.0153 21.9375 15.222 21.9375 15.4375V20.5075C21.8869 21.5766 21.4164 22.5825 20.6284 23.3066C19.8403 24.0308 18.7983 24.4147 17.7288 24.375ZM24.1394 13.5769C24.2156 13.5013 24.276 13.4115 24.3173 13.3125C24.3585 13.2135 24.3797 13.1073 24.3797 13C24.3797 12.8927 24.3585 12.7865 24.3173 12.6875C24.276 12.5885 24.2156 12.4987 24.1394 12.4231L13.5769 1.86062C13.5014 1.78447 13.4115 1.72402 13.3125 1.68277C13.2135 1.64152 13.1073 1.62029 13 1.62029C12.8928 1.62029 12.7866 1.64152 12.6876 1.68277C12.5885 1.72402 12.4987 1.78447 12.4232 1.86062L1.86065 12.4231C1.70766 12.5761 1.6217 12.7836 1.6217 13C1.6217 13.2164 1.70766 13.4239 1.86065 13.5769C2.01365 13.7299 2.22116 13.8158 2.43753 13.8158C2.6539 13.8158 2.86141 13.7299 3.0144 13.5769L13 3.58312L22.9857 13.5769C23.0612 13.653 23.151 13.7135 23.2501 13.7547C23.3491 13.796 23.4553 13.8172 23.5625 13.8172C23.6698 13.8172 23.776 13.796 23.875 13.7547C23.974 13.7135 24.0639 13.653 24.1394 13.5769Z" fill="white"/>
</svg>
