<svg width="18" height="18" viewBox="0 0 18 18" fill="none" xmlns="http://www.w3.org/2000/svg">
<path d="M7.19597 10.0723C6.92789 9.88017 6.59999 9.79021 6.27143 9.81862C5.96042 9.81412 5.64964 9.83739 5.34277 9.88816V13.0913H6.02185V11.9295C6.09948 11.9351 6.17741 11.9351 6.25504 11.9295C6.43368 11.9411 6.61285 11.9171 6.78211 11.8588C6.95137 11.8005 7.10734 11.7091 7.24097 11.59C7.43131 11.3803 7.53127 11.1039 7.51916 10.8209C7.52233 10.6802 7.4951 10.5405 7.43932 10.4113C7.38355 10.2821 7.30054 10.1665 7.19597 10.0723ZM6.36153 11.3889C6.3245 11.3903 6.28742 11.3878 6.25093 11.3814L6.27139 11.3773C6.19529 11.3862 6.11841 11.3862 6.04231 11.3773V10.4037C6.13477 10.382 6.22965 10.3723 6.32458 10.375C6.66823 10.375 6.8605 10.555 6.8605 10.8495C6.87165 11.1363 6.64827 11.3778 6.36153 11.3889Z" fill="#131414"/>
<path d="M12.2726 0H3.27261C2.36889 0 1.63623 0.732621 1.63623 1.63635V16.3636C1.63623 17.2673 2.36885 18 3.27258 18H14.7271C15.6308 18 16.3635 17.2673 16.3635 16.3636V4.5L12.2726 0ZM15.5453 16.3637C15.5453 16.8155 15.179 17.1818 14.7272 17.1818H3.27261C2.82075 17.1818 2.45442 16.8155 2.45442 16.3637V1.63635C2.45442 1.18448 2.82075 0.818156 3.27261 0.818156H10.6363V4.90908C10.6363 5.36094 11.0026 5.72727 11.4545 5.72727H15.5454L15.5453 16.3637ZM11.4544 4.90908V0.818191H11.8635L15.5453 4.90911L11.4544 4.90908Z" fill="#131414"/>
<path d="M9.96555 10.1905C9.61038 9.92185 9.17047 9.78973 8.72602 9.81827C8.41509 9.81609 8.10452 9.83937 7.79736 9.88781V13.091C8.05499 13.1254 8.31472 13.1418 8.57463 13.1401C9.07509 13.1771 9.57203 13.0318 9.97371 12.731C10.1465 12.5608 10.2809 12.3555 10.3677 12.129C10.4545 11.9024 10.4917 11.6599 10.4769 11.4178C10.4935 11.1875 10.456 10.9565 10.3671 10.7434C10.2783 10.5302 10.1408 10.3409 9.96555 10.1905ZM9.75282 11.4178C9.74875 12.191 9.34375 12.5551 8.72602 12.551V12.5469C8.64712 12.5548 8.56764 12.5548 8.48875 12.5469V10.4156C8.59092 10.394 8.69527 10.3844 8.79967 10.3869C9.29551 10.3521 9.72568 10.7258 9.76052 11.2216C9.76509 11.2871 9.76253 11.3529 9.75282 11.4178ZM11.0701 13.091H11.7574V11.786H12.8456V11.1887H11.7574V10.4483H12.9233V9.84689H11.0701V13.091Z" fill="#131414"/>
</svg>
