<svg width="16" height="16" viewBox="0 0 16 16" fill="none" xmlns="http://www.w3.org/2000/svg">
<path d="M13.2861 1.07812H4.84908C4.4165 1.07918 4.00202 1.25184 3.69661 1.55819C3.39119 1.86453 3.21981 2.27955 3.22008 2.71212V3.21763H2.70908C2.27628 3.21882 1.86165 3.39172 1.55622 3.69836C1.2508 4.00501 1.07955 4.42033 1.08008 4.85313V13.2846C1.07981 13.7172 1.25119 14.1322 1.55661 14.4386C1.86202 14.7449 2.2765 14.9176 2.70908 14.9186H11.1461C11.5793 14.9182 11.9947 14.7459 12.3011 14.4396C12.6074 14.1333 12.7797 13.7179 12.7801 13.2846V12.7791H13.2861C13.7194 12.7786 14.1347 12.6062 14.4411 12.2998C14.7474 11.9933 14.9197 11.5779 14.9201 11.1446V2.71212C14.9195 2.27892 14.7472 1.86362 14.4409 1.5573C14.1346 1.25098 13.7193 1.07865 13.2861 1.07812ZM11.7801 13.2841C11.7801 13.6341 11.4956 13.9181 11.1461 13.9181H2.70858C2.54122 13.9172 2.38107 13.8499 2.26324 13.7311C2.14542 13.6122 2.07955 13.4515 2.08008 13.2841V4.85213C2.08008 4.50213 2.36208 4.21763 2.70858 4.21763H11.1461C11.4961 4.21763 11.7801 4.50263 11.7801 4.85213V12.2781V13.2841ZM13.9201 11.1441C13.9201 11.4941 13.6356 11.7786 13.2861 11.7786H12.7801V4.85213C12.7797 4.41884 12.6074 4.0034 12.3011 3.69697C11.9947 3.39055 11.5794 3.21815 11.1461 3.21763H4.22008V2.71212C4.22008 2.36212 4.50208 2.07812 4.84908 2.07812H13.2861C13.6361 2.07812 13.9201 2.36212 13.9201 2.71212V11.1441Z" fill="#A7A7A7"/>
</svg>
