<svg width="18" height="18" viewBox="0 0 18 18" fill="none" xmlns="http://www.w3.org/2000/svg">
<path d="M15.378 0.465534C15.2306 0.397652 15.0665 0.374465 14.9061 0.398842C14.7456 0.423218 14.5959 0.494088 14.4753 0.602686L13.3055 1.63849L11.714 0.214833C11.3942 -0.0716109 10.9101 -0.0716109 10.5904 0.214833L9.00016 1.63715L7.40955 0.214833C7.08973 -0.0716109 6.6056 -0.0716109 6.28578 0.214833L4.69382 1.63849L3.52292 0.602728C3.17743 0.295632 2.64838 0.32678 2.34128 0.672274C2.20378 0.826967 2.12848 1.02712 2.1299 1.23408V16.7659C2.12716 17.2288 2.50022 17.6063 2.96314 17.6091C3.17016 17.6103 3.3703 17.5348 3.52503 17.3973L4.69483 16.3615L6.28637 17.7852C6.60611 18.0716 7.09019 18.0716 7.40993 17.7852L9.00016 16.3627L10.5907 17.785C10.9105 18.0714 11.3946 18.0714 11.7144 17.785L13.3064 16.3614L14.4773 17.3971C14.8227 17.7043 15.3518 17.6733 15.6589 17.3279C15.7965 17.1731 15.8719 16.9728 15.8704 16.7658V1.23408C15.8725 1.07185 15.8269 0.912594 15.7394 0.775997C15.6518 0.6394 15.5262 0.531461 15.378 0.465534ZM13.8631 15.73C13.5433 15.4467 13.062 15.448 12.7437 15.733L11.1522 17.1566L9.56197 15.7343C9.24218 15.4478 8.75806 15.4478 8.43828 15.7343L6.84783 17.1566L5.25566 15.733C4.93862 15.448 4.45812 15.4467 4.13952 15.7299L2.97288 16.7655V14.5187L2.96866 1.23429L4.1372 2.26984C4.45698 2.55312 4.93832 2.55186 5.25659 2.26685L6.84809 0.84323L8.43836 2.26554C8.75815 2.55199 9.24227 2.55199 9.56205 2.26554L11.1525 0.84323L12.7447 2.26685C13.0617 2.55182 13.5422 2.55312 13.8608 2.26988L15.0274 1.23408V11.9109L15.0317 16.7655L13.8631 15.73Z" fill="black"/>
<path d="M12.9958 8.57874H5.00498C4.7722 8.57874 4.5835 8.76744 4.5835 9.00022C4.5835 9.23301 4.7722 9.42171 5.00498 9.42171H12.9958C13.2286 9.42171 13.4173 9.23301 13.4173 9.00022C13.4173 8.76744 13.2286 8.57874 12.9958 8.57874ZM9.20242 6.0498H5.00498C4.7722 6.0498 4.5835 6.23851 4.5835 6.47129C4.5835 6.70408 4.7722 6.89278 5.00498 6.89278H9.20242C9.43521 6.89278 9.62391 6.70408 9.62391 6.47129C9.62391 6.23851 9.43516 6.0498 9.20242 6.0498ZM12.9958 11.1077H5.00498C4.7722 11.1077 4.5835 11.2964 4.5835 11.5292C4.5835 11.7619 4.7722 11.9506 5.00498 11.9506H12.9958C13.2286 11.9506 13.4173 11.7619 13.4173 11.5292C13.4173 11.2964 13.2286 11.1077 12.9958 11.1077Z" fill="black"/>
</svg>
