<svg width="16" height="16" viewBox="0 0 16 16" fill="none" xmlns="http://www.w3.org/2000/svg">
<path d="M14.7598 3.88725L10.7599 0.137344C10.666 0.0494651 10.5389 7.02632e-05 10.4062 0L3.40625 0C2.57915 0 1.90625 0.630844 1.90625 1.40625V14.5938C1.90625 15.3692 2.57915 16 3.40625 16H13.4063C14.2334 16 14.9063 15.3692 14.9063 14.5938V4.21875C14.9063 4.09094 14.849 3.97091 14.7598 3.88725ZM10.9062 1.60041L13.1992 3.75H11.4063C11.1306 3.75 10.9062 3.53972 10.9062 3.28125V1.60041ZM13.4063 15.0625H3.40625C3.13055 15.0625 2.90625 14.8522 2.90625 14.5938V1.40625C2.90625 1.14778 3.13055 0.9375 3.40625 0.9375H9.90625V3.28125C9.90625 4.05666 10.5792 4.6875 11.4063 4.6875H13.9063V14.5938C13.9063 14.8522 13.682 15.0625 13.4063 15.0625Z" fill="#131414"/>
<path d="M11.4063 6.625H5.40625C5.13012 6.625 4.90625 6.83487 4.90625 7.09375C4.90625 7.35263 5.13012 7.5625 5.40625 7.5625H11.4063C11.6824 7.5625 11.9063 7.35263 11.9063 7.09375C11.9063 6.83487 11.6824 6.625 11.4063 6.625ZM11.4063 8.5H5.40625C5.13012 8.5 4.90625 8.70988 4.90625 8.96875C4.90625 9.22762 5.13012 9.4375 5.40625 9.4375H11.4063C11.6824 9.4375 11.9063 9.22762 11.9063 8.96875C11.9063 8.70988 11.6824 8.5 11.4063 8.5ZM11.4063 10.375H5.40625C5.13012 10.375 4.90625 10.5849 4.90625 10.8438C4.90625 11.1026 5.13012 11.3125 5.40625 11.3125H11.4063C11.6824 11.3125 11.9063 11.1026 11.9063 10.8438C11.9063 10.5849 11.6824 10.375 11.4063 10.375ZM9.40625 12.25H5.40625C5.13012 12.25 4.90625 12.4599 4.90625 12.7188C4.90625 12.9776 5.13012 13.1875 5.40625 13.1875H9.40625C9.68238 13.1875 9.90625 12.9776 9.90625 12.7188C9.90625 12.4599 9.68238 12.25 9.40625 12.25Z" fill="#131414"/>
</svg>
