<svg width="34" height="34" viewBox="0 0 34 34" fill="none" xmlns="http://www.w3.org/2000/svg">
<g clip-path="url(#clip0_879_31475)">
<path d="M28.7526 32.4006H5.24747C3.37507 32.4006 1.63164 31.3904 0.697441 29.7643C-0.235965 28.1401 -0.232247 26.1235 0.707269 24.5016L12.4598 4.21679C13.3953 2.60125 15.135 1.59766 17 1.59766C18.8651 1.59766 20.6048 2.60139 21.5403 4.21712L33.2927 24.5016C34.2323 26.1235 34.2361 28.1402 33.3025 29.7645C32.3684 31.3905 30.6249 32.4006 28.7526 32.4006Z" fill="#FF4547"/>
<path d="M33.3025 29.7645C34.236 28.1401 34.2323 26.1235 33.2927 24.5015L21.5403 4.21712C20.6049 2.60139 18.8652 1.59766 17 1.59766V32.4007H28.7526C30.6249 32.4006 32.3684 31.3905 33.3025 29.7645Z" fill="#FF474A"/>
<path d="M17.0001 19.5945C16.8022 19.5945 16.6088 19.5356 16.4446 19.4252C16.2803 19.3149 16.1527 19.1581 16.0779 18.9749C15.8519 18.4213 13.8701 13.4976 13.8701 11.13C13.8701 9.40416 15.2743 8 17.0001 8C18.7259 8 20.1301 9.40416 20.1301 11.13C20.1301 13.4976 18.1483 18.4213 17.9224 18.9749C17.8475 19.1581 17.7199 19.3149 17.5556 19.4252C17.3914 19.5356 17.198 19.5945 17.0001 19.5945Z" fill="#DFDFDF"/>
<path d="M17.0001 28.1311C18.7288 28.1311 20.1301 26.7297 20.1301 25.0011C20.1301 23.2724 18.7288 21.8711 17.0001 21.8711C15.2715 21.8711 13.8701 23.2724 13.8701 25.0011C13.8701 26.7297 15.2715 28.1311 17.0001 28.1311Z" fill="#DFDFDF"/>
<path d="M17.9223 18.9749C18.1482 18.4213 20.13 13.4976 20.13 11.13C20.13 9.40416 18.7258 8 17 8V19.5945C17.1979 19.5945 17.3913 19.5356 17.5555 19.4252C17.7198 19.3149 17.8474 19.1581 17.9223 18.9749ZM20.13 25C20.13 23.2742 18.7258 21.87 17 21.87V28.13C18.7258 28.13 20.13 26.7258 20.13 25Z" fill="white"/>
</g>
<defs>
<clipPath id="clip0_879_31475">
<rect width="34" height="34" fill="white"/>
</clipPath>
</defs>
</svg>
