<svg width="26" height="26" viewBox="0 0 26 26" fill="none" xmlns="http://www.w3.org/2000/svg">
<path d="M11.3607 6.33547C8.92181 6.90412 6.95855 8.83822 6.35903 11.2628C5.75763 13.6952 6.44592 16.1745 8.20031 17.8949C8.82086 18.5035 9.19141 19.479 9.19141 20.5043V20.668C9.19141 21.3432 9.48599 21.9507 9.95312 22.3694V23.7148C9.95312 24.9749 10.9782 26 12.2383 26H13.7617C15.0218 26 16.0469 24.9749 16.0469 23.7148V22.3694C16.514 21.9507 16.8086 21.3432 16.8086 20.668V20.5013C16.8086 19.4916 17.1989 18.4976 17.8528 17.8423C19.1442 16.5481 19.8555 14.8284 19.8555 13C19.8555 8.6288 15.8047 5.29963 11.3607 6.33547ZM14.5234 23.7148C14.5234 24.1349 14.1817 24.4766 13.7617 24.4766H12.2383C11.8183 24.4766 11.4766 24.1349 11.4766 23.7148V22.9531H14.5234V23.7148ZM16.7744 16.7662C15.828 17.7147 15.2852 19.076 15.2852 20.5013V20.668C15.2852 21.088 14.9434 21.4297 14.5234 21.4297H11.4766C11.0566 21.4297 10.7148 21.088 10.7148 20.668V20.5043C10.7148 19.0571 10.1871 17.7096 9.26692 16.8072C7.90141 15.4681 7.36724 13.5322 7.83788 11.6285C8.30126 9.75432 9.81982 8.25901 11.7066 7.81914C15.1939 7.00598 18.332 9.60923 18.332 13C18.332 14.4221 17.7788 15.7596 16.7744 16.7662ZM7.0752 5.99798L4.9207 3.84353C4.62328 3.54605 4.14096 3.54605 3.84348 3.84353C3.546 4.14101 3.546 4.62328 3.84348 4.92075L5.99798 7.0752C6.2954 7.37268 6.77777 7.37268 7.0752 7.0752C7.37268 6.77772 7.37268 6.29545 7.0752 5.99798ZM3.85938 12.2383H0.761719C0.341047 12.2383 0 12.5793 0 13C0 13.4207 0.341047 13.7617 0.761719 13.7617H3.85938C4.28005 13.7617 4.62109 13.4207 4.62109 13C4.62109 12.5793 4.28005 12.2383 3.85938 12.2383ZM25.2383 12.2383H22.1406C21.72 12.2383 21.3789 12.5793 21.3789 13C21.3789 13.4207 21.72 13.7617 22.1406 13.7617H25.2383C25.659 13.7617 26 13.4207 26 13C26 12.5793 25.659 12.2383 25.2383 12.2383ZM22.1565 3.84353C21.8591 3.54605 21.3768 3.54605 21.0793 3.84353L18.9248 5.99798C18.6273 6.2954 18.6273 6.77772 18.9248 7.0752C19.2222 7.37268 19.7045 7.37268 20.002 7.0752L22.1565 4.92075C22.454 4.62333 22.454 4.14101 22.1565 3.84353ZM13 0C12.5793 0 12.2383 0.341047 12.2383 0.761719V3.85938C12.2383 4.28005 12.5793 4.62109 13 4.62109C13.4207 4.62109 13.7617 4.28005 13.7617 3.85938V0.761719C13.7617 0.341047 13.4207 0 13 0Z" fill="white"/>
<path d="M13 9.19141C12.6869 9.19141 12.368 9.22893 12.0526 9.30282C10.7391 9.60939 9.63954 10.6906 9.31652 11.9932C9.21526 12.4015 9.46414 12.8145 9.87242 12.9159C10.2808 13.0171 10.6939 12.7681 10.7951 12.3599C10.981 11.6105 11.6405 10.9634 12.3995 10.7862C12.6017 10.7389 12.8038 10.7148 13 10.7148C13.4207 10.7148 13.7618 10.3738 13.7618 9.95312C13.7618 9.53245 13.4207 9.19141 13 9.19141Z" fill="white"/>
</svg>
