<svg width="34" height="34" viewBox="0 0 34 34" fill="none" xmlns="http://www.w3.org/2000/svg">
<g clip-path="url(#clip0_883_31498)">
<path d="M17.006 34.012C26.3982 34.012 34.012 26.3982 34.012 17.006C34.012 7.61385 26.3982 0 17.006 0C7.61385 0 0 7.61385 0 17.006C0 26.3982 7.61385 34.012 17.006 34.012Z" fill="#97BF55"/>
<path fill-rule="evenodd" clip-rule="evenodd" d="M20.3425 22.8029H13.5377C13.4103 22.8029 13.2882 22.7523 13.1982 22.6623C13.1082 22.5723 13.0576 22.4502 13.0576 22.3229V19.9226C12.0245 18.9708 11.3703 17.6775 11.2159 16.2813C11.0615 14.8851 11.4173 13.4802 12.2175 12.3257C12.2921 12.2281 12.4012 12.1629 12.5225 12.1434C12.6437 12.1239 12.7678 12.1515 12.8692 12.2207C12.9707 12.2899 13.0418 12.3953 13.0679 12.5153C13.094 12.6353 13.0731 12.7607 13.0096 12.8657C12.3138 13.8553 12.014 15.0698 12.1696 16.2695C12.3251 17.4692 12.9245 18.567 13.8497 19.3465C13.9066 19.3949 13.9514 19.4559 13.9806 19.5247C14.0097 19.5934 14.0224 19.668 14.0177 19.7426V21.8428H19.8624V19.8266C19.861 19.753 19.8765 19.6802 19.9077 19.6136C19.9389 19.547 19.985 19.4885 20.0424 19.4425C20.9793 18.6442 21.5793 17.5208 21.7219 16.2982C21.8644 15.0756 21.539 13.8444 20.811 12.8519C20.0829 11.8594 19.0062 11.1792 17.7973 10.948C16.5883 10.7168 15.3366 10.9517 14.2937 11.6056C14.1887 11.6691 14.0632 11.69 13.9433 11.6639C13.8233 11.6378 13.7179 11.5667 13.6487 11.4653C13.5795 11.3638 13.5518 11.2397 13.5714 11.1185C13.5909 10.9972 13.6561 10.8881 13.7537 10.8135C14.9863 10.0208 16.4722 9.72128 17.9157 9.97438C19.3592 10.2275 20.6546 11.0147 21.544 12.1795C22.4335 13.3442 22.8519 14.8011 22.7159 16.2604C22.58 17.7196 21.8998 19.0741 20.8105 20.0546V22.3229C20.8105 22.4502 20.7599 22.5723 20.6699 22.6623C20.5799 22.7523 20.4578 22.8029 20.3305 22.8029H20.3425Z" fill="#FEFEFE"/>
<path fill-rule="evenodd" clip-rule="evenodd" d="M19.1903 25.1321H14.8098C14.587 25.1321 14.3733 25.0436 14.2158 24.8861C14.0582 24.7285 13.9697 24.5148 13.9697 24.292V22.3238C13.9697 22.1965 14.0203 22.0744 14.1103 21.9844C14.2004 21.8943 14.3225 21.8438 14.4498 21.8438H19.5504C19.6777 21.8438 19.7998 21.8943 19.8898 21.9844C19.9799 22.0744 20.0304 22.1965 20.0304 22.3238V23.1399C20.0304 23.2672 19.9799 23.3893 19.8898 23.4794C19.7998 23.5694 19.6777 23.62 19.5504 23.62C19.4231 23.62 19.301 23.5694 19.2109 23.4794C19.1209 23.3893 19.0703 23.2672 19.0703 23.1399V22.8039H14.9298V24.172H19.1543C19.2626 24.1036 19.3935 24.081 19.5184 24.1091C19.6434 24.1372 19.752 24.2138 19.8204 24.322C19.8888 24.4303 19.9115 24.5612 19.8834 24.6861C19.8552 24.8111 19.7786 24.9197 19.6704 24.9881C19.5288 25.0839 19.3613 25.1341 19.1903 25.1321Z" fill="#FEFEFE"/>
<path fill-rule="evenodd" clip-rule="evenodd" d="M17.006 22.8034C16.943 22.8034 16.8806 22.791 16.8223 22.7669C16.7641 22.7427 16.7111 22.7074 16.6666 22.6628C16.622 22.6182 16.5866 22.5653 16.5625 22.5071C16.5384 22.4488 16.526 22.3864 16.526 22.3234V18.939C16.526 18.8116 16.5765 18.6895 16.6666 18.5995C16.7566 18.5095 16.8787 18.4589 17.006 18.4589C17.1333 18.4589 17.2554 18.5095 17.3455 18.5995C17.4355 18.6895 17.4861 18.8116 17.4861 18.939V22.3234C17.4861 22.4507 17.4355 22.5728 17.3455 22.6628C17.2554 22.7528 17.1333 22.8034 17.006 22.8034ZM17.3661 27.2439H16.646C16.2386 27.2439 15.8478 27.0821 15.5597 26.794C15.2716 26.5059 15.1098 26.1152 15.1098 25.7078V24.6516C15.1098 24.5243 15.1604 24.4022 15.2504 24.3122C15.3404 24.2222 15.4625 24.1716 15.5899 24.1716H18.4222C18.5495 24.1716 18.6716 24.2222 18.7616 24.3122C18.8517 24.4022 18.9022 24.5243 18.9022 24.6516V25.7078C18.9022 26.5479 18.2182 27.2439 17.3661 27.2439ZM16.0699 25.1317V25.7078C16.0699 26.0198 16.3099 26.2838 16.634 26.2838H17.3661C17.5188 26.2838 17.6654 26.2231 17.7734 26.1151C17.8814 26.0071 17.9421 25.8605 17.9421 25.7078V25.1317H16.0699ZM17.006 9.45785C16.943 9.45785 16.8806 9.44543 16.8223 9.42131C16.7641 9.39718 16.7111 9.36182 16.6666 9.31724C16.622 9.27266 16.5866 9.21974 16.5625 9.1615C16.5384 9.10326 16.526 9.04083 16.526 8.97779V7.24959C16.526 7.12227 16.5765 7.00016 16.6666 6.91014C16.7566 6.82011 16.8787 6.76953 17.006 6.76953C17.1333 6.76953 17.2554 6.82011 17.3455 6.91014C17.4355 7.00016 17.4861 7.12227 17.4861 7.24959V8.97779C17.4861 9.10511 17.4355 9.22721 17.3455 9.31724C17.2554 9.40727 17.1333 9.45785 17.006 9.45785ZM20.4024 10.37C20.3178 10.3707 20.2345 10.3491 20.1609 10.3073C20.0873 10.2654 20.0261 10.2049 19.9834 10.1318C19.9408 10.0587 19.9182 9.97562 19.918 9.89098C19.9179 9.80634 19.94 9.72316 19.9824 9.64987L20.8585 8.16169C20.9221 8.05029 21.0274 7.96874 21.1512 7.93498C21.275 7.90122 21.4071 7.91801 21.5185 7.98167C21.63 8.04533 21.7115 8.15064 21.7453 8.27443C21.779 8.39822 21.7622 8.53035 21.6986 8.64175L20.8225 10.1419C20.78 10.2155 20.7187 10.2766 20.6449 10.3187C20.5711 10.3609 20.4874 10.3707 20.4024 10.37ZM22.8987 12.8662C22.7916 12.868 22.687 12.8338 22.6016 12.7693C22.5161 12.7047 22.4547 12.6134 22.4271 12.5099C22.3995 12.4065 22.4073 12.2967 22.4493 12.1982C22.4913 12.0996 22.565 12.018 22.6587 11.9661L24.1589 11.102C24.2703 11.0384 24.4024 11.0216 24.5262 11.0553C24.65 11.0891 24.7553 11.1707 24.8189 11.2821C24.8826 11.3935 24.8994 11.5256 24.8656 11.6494C24.8319 11.7732 24.7503 11.8785 24.6389 11.9421L23.1387 12.8062C23.0653 12.8469 22.9826 12.8676 22.8987 12.8662ZM25.539 16.2626H23.8108C23.6835 16.2626 23.5614 16.2121 23.4714 16.122C23.3813 16.032 23.3308 15.9099 23.3308 15.7826C23.3308 15.6553 23.3813 15.5332 23.4714 15.4431C23.5614 15.3531 23.6835 15.3025 23.8108 15.3025H25.539C25.6663 15.3025 25.7884 15.3531 25.8785 15.4431C25.9685 15.5332 26.0191 15.6553 26.0191 15.7826C26.0191 15.9099 25.9685 16.032 25.8785 16.122C25.7884 16.2121 25.6663 16.2626 25.539 16.2626ZM24.3989 20.5351C24.315 20.5365 24.2323 20.5158 24.1589 20.4751L22.6587 19.599C22.5592 19.5305 22.4892 19.4269 22.4627 19.309C22.4363 19.1911 22.4552 19.0676 22.5158 18.963C22.5764 18.8585 22.6742 18.7806 22.7897 18.745C22.9051 18.7094 23.0298 18.7187 23.1387 18.7709L24.6389 19.635C24.7326 19.6869 24.8063 19.7685 24.8483 19.8671C24.8903 19.9656 24.8981 20.0754 24.8705 20.1788C24.8429 20.2823 24.7815 20.3736 24.696 20.4382C24.6106 20.5027 24.506 20.5369 24.3989 20.5351ZM9.60115 20.5351C9.49406 20.5369 9.38947 20.5027 9.30402 20.4382C9.21857 20.3736 9.15716 20.2823 9.12957 20.1788C9.10197 20.0754 9.10977 19.9656 9.15173 19.8671C9.19369 19.7685 9.26739 19.6869 9.36112 19.635L10.8733 18.7709C10.9847 18.7073 11.1168 18.6905 11.2406 18.7242C11.3644 18.758 11.4697 18.8396 11.5334 18.951C11.597 19.0624 11.6138 19.1945 11.5801 19.3183C11.5463 19.4421 11.4648 19.5474 11.3534 19.611L9.84118 20.4751C9.76778 20.5158 9.68503 20.5365 9.60115 20.5351ZM10.2012 16.2626H8.46101C8.33369 16.2626 8.21159 16.2121 8.12156 16.122C8.03153 16.032 7.98096 15.9099 7.98096 15.7826C7.98096 15.6553 8.03153 15.5332 8.12156 15.4431C8.21159 15.3531 8.33369 15.3025 8.46101 15.3025H10.2012C10.3285 15.3025 10.4506 15.3531 10.5407 15.4431C10.6307 15.5332 10.6813 15.6553 10.6813 15.7826C10.6813 15.9099 10.6307 16.032 10.5407 16.122C10.4506 16.2121 10.3285 16.2626 10.2012 16.2626ZM11.1133 12.8662C11.0294 12.8676 10.9467 12.8469 10.8733 12.8062L9.36112 11.9301C9.30596 11.8986 9.25754 11.8565 9.21864 11.8063C9.17974 11.7561 9.15112 11.6987 9.1344 11.6374C9.11769 11.5761 9.11321 11.5121 9.12122 11.4491C9.12923 11.3861 9.14958 11.3252 9.1811 11.2701C9.21262 11.2149 9.2547 11.1665 9.30493 11.1276C9.35516 11.0887 9.41256 11.0601 9.47385 11.0433C9.53515 11.0266 9.59913 11.0221 9.66216 11.0302C9.72518 11.0382 9.78601 11.0585 9.84118 11.09L11.3534 11.9661C11.4471 12.018 11.5208 12.0996 11.5627 12.1982C11.6047 12.2967 11.6125 12.4065 11.5849 12.5099C11.5573 12.6134 11.4959 12.7047 11.4105 12.7693C11.325 12.8338 11.2204 12.868 11.1133 12.8662ZM13.5976 10.37C13.5167 10.3666 13.438 10.3428 13.3687 10.3009C13.2995 10.2589 13.242 10.2001 13.2016 10.1299L12.3135 8.64175C12.2498 8.53035 12.233 8.39822 12.2668 8.27443C12.3005 8.15064 12.3821 8.04533 12.4935 7.98167C12.6049 7.91801 12.737 7.90122 12.8608 7.93498C12.9846 7.96874 13.0899 8.05029 13.1536 8.16169L14.0177 9.66187C14.06 9.73517 14.0822 9.81835 14.082 9.90298C14.0818 9.98762 14.0592 10.0707 14.0166 10.1438C13.974 10.2169 13.9127 10.2774 13.8392 10.3193C13.7656 10.3611 13.6822 10.3707 13.5976 10.37Z" fill="#FEFEFE"/>
<path fill-rule="evenodd" clip-rule="evenodd" d="M17.0059 19.4196C16.9209 19.4203 16.8373 19.3985 16.7635 19.3564C16.6897 19.3142 16.6284 19.2532 16.5859 19.1796L13.7176 14.259C13.6539 14.1476 13.6371 14.0154 13.6709 13.8917C13.7046 13.7679 13.7862 13.6626 13.8976 13.5989C14.009 13.5352 14.1411 13.5184 14.2649 13.5522C14.3887 13.586 14.494 13.6675 14.5577 13.7789L17.0059 17.9794L19.4542 13.7789C19.5179 13.6675 19.6232 13.586 19.747 13.5522C19.8708 13.5184 20.0029 13.5352 20.1143 13.5989C20.2257 13.6626 20.3073 13.7679 20.341 13.8917C20.3748 14.0154 20.358 14.1476 20.2943 14.259L17.414 19.1796C17.3725 19.2514 17.3131 19.3113 17.2416 19.3534C17.1701 19.3954 17.0889 19.4183 17.0059 19.4196Z" fill="#FEFEFE"/>
</g>
<defs>
<clipPath id="clip0_883_31498">
<rect width="34" height="34" fill="white"/>
</clipPath>
</defs>
</svg>
