<svg width="15" height="15" viewBox="0 0 15 15" fill="none" xmlns="http://www.w3.org/2000/svg">
<path d="M3.45 11.55C2.595 10.695 2.595 9.305 3.45 8.45L5.45 6.45L4.5 5.5L2.5 7.5C1.12 8.88 1.12 11.12 2.5 12.5C3.88 13.88 6.12 13.88 7.5 12.5L9.5 10.5L8.55 9.55L6.55 11.55C5.695 12.405 4.305 12.405 3.45 11.55ZM6 10L10 6L9 5L5 9L6 10ZM7.5 2.5L5.5 4.5L6.45 5.45L8.45 3.45C9.305 2.595 10.695 2.595 11.55 3.45C12.405 4.305 12.405 5.695 11.55 6.55L9.55 8.55L10.5 9.5L12.5 7.5C13.88 6.12 13.88 3.88 12.5 2.5C11.12 1.12 8.88 1.12 7.5 2.5Z" fill="#A7A7A7"/>
</svg>
