<svg width="16" height="16" viewBox="0 0 16 16" fill="none" xmlns="http://www.w3.org/2000/svg">
<g clip-path="url(#clip0_849_30964)">
<path d="M12.9378 -0.0234375H2.06222C0.925148 -0.0234375 0 0.901523 0 2.03878V8.69442C0 9.82912 0.921093 10.7526 2.05491 10.7566V13.7768L6.39532 10.7566H12.9378C14.0748 10.7566 15 9.83149 15 8.69439V2.03878C15 0.901523 14.0748 -0.0234375 12.9378 -0.0234375ZM14.1211 8.69437C14.1211 9.3468 13.5903 9.87773 12.9378 9.87773H6.11958L2.93381 12.0946V9.87771H2.06222C1.40972 9.87771 0.878906 9.3468 0.878906 8.69439V2.03878C0.878906 1.38621 1.40972 0.855468 2.06222 0.855468H12.9378C13.5903 0.855468 14.1211 1.38621 14.1211 2.03878V8.69437Z" fill="#131414"/>
<path d="M4.01562 3.08203H10.9863V3.96094H4.01562V3.08203ZM4.01562 4.95703H10.9863V5.83594H4.01562V4.95703ZM4.01562 6.83203H10.9863V7.71094H4.01562V6.83203Z" fill="#131414"/>
</g>
<defs>
<clipPath id="clip0_849_30964">
<rect width="16" height="16" fill="white"/>
</clipPath>
</defs>
</svg>
