<svg width="63" height="62" viewBox="0 0 63 62" fill="none" xmlns="http://www.w3.org/2000/svg">
<path d="M53.9266 47.0522C53.7582 46.8583 53.5198 46.7392 53.2637 46.7211C53.0075 46.7029 52.7547 46.7872 52.5606 46.9553L51.0978 48.2244L50.1291 47.0813C53.4837 43.8117 55.4655 39.3862 55.6707 34.7063C55.8759 30.0264 54.289 25.4444 51.2335 21.8938C49.5354 19.915 47.4306 18.3256 45.0625 17.2341V2.90627C45.0625 2.64934 44.9604 2.40293 44.7788 2.22126C44.5971 2.03958 44.3507 1.93752 44.0938 1.93752H11.1563C11.0288 1.93678 10.9024 1.96122 10.7844 2.00943C10.6663 2.05763 10.559 2.12867 10.4685 2.21845L2.71845 9.96845C2.62867 10.059 2.55763 10.1663 2.50943 10.2844C2.46122 10.4024 2.43678 10.5288 2.43752 10.6563V59.0938C2.43752 59.3507 2.53958 59.5971 2.72126 59.7788C2.90293 59.9604 3.14934 60.0625 3.40627 60.0625H44.0938C44.3507 60.0625 44.5971 59.9604 44.7788 59.7788C44.9604 59.5971 45.0625 59.3507 45.0625 59.0938V50.5978C46.3485 49.9924 47.5609 49.2416 48.676 48.36L49.6447 49.4935L48.1819 50.7528C47.988 50.9212 47.8689 51.1596 47.8507 51.4157C47.8326 51.6719 47.9168 51.9247 48.085 52.1188L53.7813 58.716C54.0919 59.1629 54.4932 59.5394 54.9591 59.8209C55.425 60.1024 55.9449 60.2826 56.485 60.3497C57.0252 60.4169 57.5734 60.3695 58.094 60.2106C58.6146 60.0518 59.0959 59.7851 59.5066 59.4278C59.9172 59.0705 60.248 58.6308 60.4773 58.1372C60.7067 57.6435 60.8295 57.1071 60.8377 56.5629C60.8459 56.0187 60.7394 55.4788 60.5251 54.9785C60.3107 54.4781 59.9934 54.0286 59.5938 53.6591L53.9266 47.0522ZM49.7513 23.1435C52.2083 25.9891 53.6176 29.5897 53.7453 33.3471C53.8729 37.1045 52.7111 40.7925 50.4529 43.7983C48.1947 46.8041 44.976 48.9468 41.3317 49.8703C37.6873 50.7939 33.8366 50.4427 30.4194 48.8752C27.0022 47.3077 24.2242 44.6181 22.547 41.2534C20.8698 37.8887 20.3942 34.0514 21.1994 30.3791C22.0046 26.7067 24.0421 23.4204 26.9733 21.0662C29.9045 18.7119 33.5529 17.4315 37.3125 17.4375C39.6737 17.4413 42.0065 17.9528 44.1526 18.9373C46.2988 19.9218 48.2082 21.3563 49.7513 23.1435ZM10.1875 5.24095V9.68752H5.74095L10.1875 5.24095ZM43.125 58.125H4.37502V11.625H11.1563C11.4132 11.625 11.6596 11.523 11.8413 11.3413C12.023 11.1596 12.125 10.9132 12.125 10.6563V3.87502H43.125V16.4688C40.5295 15.6053 37.7742 15.3312 35.0595 15.6663C32.3447 16.0015 29.7388 16.9375 27.4313 18.4063H10.1875V20.3438H24.8835C24.2263 20.9437 23.6144 21.5913 23.0525 22.2813H10.1875V24.2188H21.6478C21.2892 24.8461 20.9658 25.4929 20.6791 26.1563H10.1875V28.0938H19.875C19.6623 28.7286 19.4876 29.3756 19.3519 30.0313H10.1875V31.9688H19.0225C18.9497 32.6121 18.9109 33.2588 18.9063 33.9063H10.1875V35.8438H19.0031C19.0693 36.4944 19.1696 37.1411 19.3035 37.7813H10.1875V39.7188H19.875C20.1006 40.3772 20.3593 41.0239 20.65 41.6563H10.1875V43.5938H21.6769C22.0946 44.2677 22.554 44.9148 23.0525 45.5313H10.1875V47.4688H24.8641C25.6543 48.1888 26.5069 48.8372 27.4119 49.4063H10.1875V51.3438H31.4419C33.3342 51.9793 35.3164 52.3064 37.3125 52.3125C39.2896 52.305 41.2524 51.9779 43.125 51.3438V58.125ZM57.976 57.6503C57.5861 57.9831 57.0831 58.1531 56.5713 58.125C56.3169 58.1064 56.0688 58.0378 55.841 57.9231C55.6133 57.8084 55.4104 57.6499 55.2441 57.4566L50.1775 51.586L53.0838 49.0575L58.1503 54.87C58.3244 55.0633 58.4577 55.2896 58.5424 55.5355C58.6272 55.7814 58.6615 56.0418 58.6434 56.3013C58.6253 56.5607 58.5552 56.8139 58.4372 57.0457C58.3192 57.2774 58.1557 57.4831 57.9566 57.6503H57.976Z" fill="#A7A7A7"/>
<path d="M36.4792 21.7871L24.8542 41.1621C24.767 41.3092 24.7203 41.4768 24.7188 41.6478C24.7173 41.8187 24.7611 41.9871 24.8457 42.1356C24.9303 42.2842 25.0528 42.4078 25.2006 42.4937C25.3484 42.5796 25.5163 42.6249 25.6873 42.625H39.2498V40.6875H27.402L37.3123 24.1606L47.2226 40.6875H45.0623V42.625H48.9373C49.1083 42.6249 49.2763 42.5796 49.4241 42.4937C49.5719 42.4078 49.6943 42.2842 49.779 42.1356C49.8636 41.9871 49.9074 41.8187 49.9059 41.6478C49.9044 41.4768 49.8577 41.3092 49.7705 41.1621L38.1455 21.7871C38.0597 21.6426 37.9378 21.5228 37.7917 21.4397C37.6456 21.3565 37.4804 21.3127 37.3123 21.3127C37.1442 21.3127 36.979 21.3565 36.833 21.4397C36.6869 21.5228 36.565 21.6426 36.4792 21.7871Z" fill="#A7A7A7"/>
<path d="M36.3438 27.125H38.2813V34.875H36.3438V27.125ZM36.3438 36.8125H38.2813V38.75H36.3438V36.8125ZM41.1876 40.6875H43.1251V42.625H41.1876V40.6875ZM6.32227 18.4062H8.25977V20.3438H6.32227V18.4062ZM6.32227 22.2812H8.25977V24.2188H6.32227V22.2812ZM6.32227 26.1562H8.25977V28.0938H6.32227V26.1562ZM6.32227 30.0312H8.25977V31.9688H6.32227V30.0312ZM6.32227 33.9062H8.25977V35.8438H6.32227V33.9062ZM6.32227 37.7812H8.25977V39.7188H6.32227V37.7812ZM6.32227 41.6562H8.25977V43.5938H6.32227V41.6562ZM6.32227 45.5312H8.25977V47.4688H6.32227V45.5312ZM6.32227 49.4062H8.25977V51.3438H6.32227V49.4062Z" fill="#A7A7A7"/>
</svg>
