<svg width="18" height="18" viewBox="0 0 18 18" fill="none" xmlns="http://www.w3.org/2000/svg">
<path d="M14.8068 11.3836V7.96355C14.8068 5.42323 13.181 3.20808 10.9426 2.38067C10.9687 2.25001 10.9832 2.11648 10.9832 1.98291C10.9833 0.888405 10.0949 0 9.00038 0C7.90587 0 7.01747 0.888405 7.01747 1.98291C7.01747 2.11357 7.03196 2.24419 7.05519 2.36903C6.28586 2.64194 5.57456 3.07451 4.96779 3.66096C3.82393 4.7642 3.19394 6.24773 3.19394 7.83871V11.3836C3.19394 11.5084 3.09232 11.6129 2.96457 11.6129C1.89328 11.6129 0.978746 12.42 0.880034 13.4478C0.82486 14.0197 1.01361 14.5887 1.39972 15.0126C1.78294 15.4336 2.33167 15.6775 2.90358 15.6775H6.40488C6.55004 16.981 7.65909 18 9.00038 18C10.3417 18 11.4507 16.981 11.5959 15.6775H15.0972C15.6691 15.6775 16.2178 15.4336 16.601 15.0126C16.9842 14.5887 17.173 14.0197 17.1207 13.4478C17.022 12.42 16.1046 11.6129 15.0362 11.6129C15.006 11.6131 14.9761 11.6073 14.9482 11.5958C14.9203 11.5844 14.8949 11.5675 14.8736 11.5461C14.8523 11.5248 14.8354 11.4994 14.8239 11.4715C14.8125 11.4436 14.8066 11.4137 14.8068 11.3836ZM9.00038 1.16127C9.45326 1.16127 9.82197 1.52998 9.82197 1.98286C9.82197 2.02058 9.81616 2.05544 9.81034 2.09316C9.61292 2.06412 9.41258 2.04381 9.21225 2.03799C8.86676 2.02635 8.52709 2.04963 8.19032 2.09607C8.18451 2.05835 8.17869 2.02349 8.17869 1.98577C8.17878 1.52998 8.5475 1.16127 9.00038 1.16127ZM9.00038 16.8387C8.30072 16.8387 7.71427 16.3393 7.57779 15.6774H10.4229C10.2865 16.3394 9.70009 16.8387 9.00038 16.8387ZM15.9652 13.5581C15.9885 13.8078 15.9101 14.0487 15.7446 14.2316C15.5733 14.4145 15.3468 14.5161 15.0972 14.5161H2.90362C2.65394 14.5161 2.42752 14.4145 2.25909 14.2316C2.09071 14.0487 2.01231 13.8077 2.03553 13.5581C2.07616 13.1197 2.48555 12.7742 2.96457 12.7742C3.73104 12.7742 4.35521 12.15 4.35521 11.3836V7.83871C4.35521 6.56709 4.86036 5.37969 5.77489 4.4971C6.64875 3.65228 7.78685 3.19354 9.00038 3.19354C9.05846 3.19354 9.11359 3.19354 9.17167 3.19645C11.6365 3.28352 13.6456 5.42323 13.6456 7.96355V11.3836C13.6456 12.15 14.2697 12.7742 15.0362 12.7742C15.5152 12.7742 15.9217 13.1197 15.9652 13.5581Z" fill="white"/>
</svg>
