<svg width="26" height="26" viewBox="0 0 26 26" fill="none" xmlns="http://www.w3.org/2000/svg">
<path d="M23.0891 11.2499C23.4882 10.9477 23.812 10.5573 24.0351 10.1091C24.2582 9.66099 24.3745 9.16729 24.375 8.66669C24.375 6.87431 22.9174 5.41669 21.125 5.41669C19.3326 5.41669 17.875 6.87431 17.875 8.66669C17.8755 9.16893 17.9926 9.6642 18.2171 10.1135C18.4415 10.5628 18.7672 10.9538 19.1685 11.2559C19.0856 11.2927 19.0006 11.3241 18.9204 11.3658C18.797 11.4341 18.705 11.5479 18.6642 11.683C18.6234 11.8181 18.6369 11.9637 18.7018 12.089C18.7667 12.2143 18.878 12.3093 19.0119 12.3538C19.1458 12.3983 19.2918 12.3888 19.4187 12.3273C19.9466 12.0563 20.5316 11.9155 21.125 11.9167C23.2153 11.9167 24.9167 13.6175 24.9167 15.7084V17.875C24.9167 18.7709 24.1876 19.5 23.2917 19.5H20.5508C20.4072 19.5 20.2694 19.5571 20.1678 19.6587C20.0662 19.7603 20.0092 19.898 20.0092 20.0417C20.0092 20.1853 20.0662 20.3231 20.1678 20.4247C20.2694 20.5263 20.4072 20.5834 20.5508 20.5834H23.2917C24.785 20.5834 26 19.3684 26 17.875V15.7084C26 13.7194 24.8013 12.0071 23.0891 11.2499ZM18.9583 8.66669C18.9583 7.47177 19.9301 6.50002 21.125 6.50002C22.3199 6.50002 23.2917 7.47177 23.2917 8.66669C23.2917 9.8616 22.3199 10.8334 21.125 10.8334C19.9301 10.8334 18.9583 9.8616 18.9583 8.66669ZM7.31142 12.096C7.34414 12.0328 7.36411 11.9638 7.37017 11.8929C7.37623 11.8221 7.36827 11.7507 7.34674 11.6829C7.32521 11.6151 7.29054 11.5522 7.2447 11.4978C7.19886 11.4434 7.14275 11.3985 7.07958 11.3658C6.99942 11.3241 6.91438 11.2927 6.8315 11.2559C7.23285 10.9539 7.5586 10.5629 7.78306 10.1135C8.00753 9.66424 8.12458 9.16894 8.125 8.66669C8.125 6.87431 6.66738 5.41669 4.875 5.41669C3.08263 5.41669 1.625 6.87431 1.625 8.66669C1.625 9.72023 2.13146 10.6557 2.91092 11.2499C1.19871 12.0071 0 13.7194 0 15.7084V17.875C0 19.3684 1.21496 20.5834 2.70833 20.5834H5.44917C5.59283 20.5834 5.7306 20.5263 5.83218 20.4247C5.93377 20.3231 5.99083 20.1853 5.99083 20.0417C5.99083 19.898 5.93377 19.7603 5.83218 19.6587C5.7306 19.5571 5.59283 19.5 5.44917 19.5H2.70833C1.81242 19.5 1.08333 18.7709 1.08333 17.875V15.7084C1.08333 13.6175 2.78471 11.9167 4.875 11.9167C5.473 11.9167 6.06342 12.0586 6.58125 12.3273C6.70883 12.393 6.85722 12.4055 6.99402 12.3622C7.13083 12.3188 7.24493 12.2231 7.31142 12.096ZM2.70833 8.66669C2.70833 7.47177 3.68008 6.50002 4.875 6.50002C6.06992 6.50002 7.04167 7.47177 7.04167 8.66669C7.04167 9.8616 6.06992 10.8334 4.875 10.8334C3.68008 10.8334 2.70833 9.8616 2.70833 8.66669ZM15.1531 10.7006C15.6582 10.3525 16.0712 9.88692 16.3566 9.34394C16.642 8.80095 16.7913 8.19678 16.7917 7.58335C16.7917 5.49252 15.0903 3.79169 13 3.79169C10.9097 3.79169 9.20833 5.49252 9.20833 7.58335C9.20833 8.87469 9.85833 10.0154 10.8469 10.7006C8.62388 11.5662 7.04167 13.7248 7.04167 16.25V19.5C7.04167 20.9934 8.25663 22.2084 9.75 22.2084H16.25C17.7434 22.2084 18.9583 20.9934 18.9583 19.5V16.25C18.9583 13.7242 17.3761 11.5662 15.1531 10.7006ZM10.2917 7.58335C10.2917 6.08998 11.5066 4.87502 13 4.87502C14.4934 4.87502 15.7083 6.08998 15.7083 7.58335C15.7083 9.07673 14.4934 10.2917 13 10.2917C11.5066 10.2917 10.2917 9.07673 10.2917 7.58335ZM17.875 19.5C17.875 20.3959 17.1459 21.125 16.25 21.125H9.75C8.85408 21.125 8.125 20.3959 8.125 19.5V16.25C8.125 13.5623 10.3117 11.375 13 11.375C15.6883 11.375 17.875 13.5623 17.875 16.25V19.5Z" fill="white"/>
</svg>
