<svg width="21" height="20" viewBox="0 0 21 20" fill="none" xmlns="http://www.w3.org/2000/svg">
<path fill-rule="evenodd" clip-rule="evenodd" d="M15.8086 16.5592C17.7181 15.0122 18.9387 12.6483 18.9387 9.99939C18.9387 5.33915 15.1608 1.56128 10.5006 1.56128C5.84037 1.56128 2.0625 5.33915 2.0625 9.99939C2.0625 12.647 3.2819 15.0098 5.18972 16.5569C5.82356 14.219 7.96039 12.4994 10.4989 12.4994C13.0382 12.4994 15.1756 14.2201 15.8086 16.5592ZM14.4031 17.4828C14.15 15.5523 12.4985 14.0619 10.4989 14.0619C8.49987 14.0619 6.84876 15.5514 6.59489 17.4811C7.76272 18.092 9.09132 18.4375 10.5006 18.4375C11.9086 18.4375 13.236 18.0927 14.4031 17.4828ZM10.5006 20C16.0238 20 20.5012 15.5226 20.5012 9.99939C20.5012 4.4762 16.0238 -0.0012207 10.5006 -0.0012207C4.97743 -0.0012207 0.5 4.4762 0.5 9.99939C0.5 15.5226 4.97743 20 10.5006 20ZM10.5009 9.43665C11.2949 9.43665 11.9386 8.79297 11.9386 7.99896C11.9386 7.20495 11.2949 6.56128 10.5009 6.56128C9.70691 6.56128 9.06323 7.20495 9.06323 7.99896C9.06323 8.79297 9.70691 9.43665 10.5009 9.43665ZM10.5009 10.9991C12.1579 10.9991 13.5011 9.65592 13.5011 7.99896C13.5011 6.34201 12.1579 4.99878 10.5009 4.99878C8.84396 4.99878 7.50073 6.34201 7.50073 7.99896C7.50073 9.65592 8.84396 10.9991 10.5009 10.9991Z" fill="#A7A7A7"/>
</svg>
