<svg width="16" height="16" viewBox="0 0 16 16" fill="none" xmlns="http://www.w3.org/2000/svg">
<rect width="16" height="16" rx="8" fill="#A7A7A7"/>
<path d="M7.062 9.574V9.014C7.062 8.72467 7.09467 8.44933 7.16 8.188C7.23467 7.92667 7.35133 7.66533 7.51 7.404C7.66867 7.14267 7.87867 6.86733 8.14 6.578C8.336 6.354 8.49 6.158 8.602 5.99C8.72333 5.81267 8.80733 5.64467 8.854 5.486C8.91 5.32733 8.938 5.164 8.938 4.996C8.938 4.79067 8.88667 4.61333 8.784 4.464C8.68133 4.31467 8.532 4.20267 8.336 4.128C8.14933 4.044 7.92067 4.002 7.65 4.002C7.18333 4.002 6.74 4.086 6.32 4.254C5.9 4.422 5.49867 4.674 5.116 5.01L4.528 3.666C4.78933 3.42333 5.09267 3.218 5.438 3.05C5.79267 2.87267 6.166 2.73733 6.558 2.644C6.95933 2.54133 7.36067 2.49 7.762 2.49C8.35 2.49 8.86333 2.588 9.302 2.784C9.75 2.98 10.0953 3.25067 10.338 3.596C10.59 3.94133 10.716 4.34733 10.716 4.814C10.716 5.10333 10.674 5.37867 10.59 5.64C10.506 5.892 10.3707 6.14867 10.184 6.41C9.99733 6.662 9.74067 6.93733 9.414 7.236C9.12467 7.49733 8.89133 7.74 8.714 7.964C8.546 8.188 8.42 8.398 8.336 8.594C8.26133 8.79 8.21 8.986 8.182 9.182L8.126 9.574H7.062ZM6.614 12.5V10.554H8.574V12.5H6.614Z" fill="white"/>
</svg>
