<svg width="16" height="17" viewBox="0 0 16 17" fill="none" xmlns="http://www.w3.org/2000/svg">
	<path fill-rule="evenodd" clip-rule="evenodd" d="M2.75 12.1677C2.75 11.9688 2.82902 11.778 2.96967 11.6374C3.11032 11.4967 3.30109 11.4177 3.5 11.4177H9C9.19891 11.4177 9.38968 11.4967 9.53033 11.6374C9.67098 11.778 9.75 11.9688 9.75 12.1677C9.75 12.3666 9.67098 12.5574 9.53033 12.698C9.38968 12.8387 9.19891 12.9177 9 12.9177H3.5C3.30109 12.9177 3.11032 12.8387 2.96967 12.698C2.82902 12.5574 2.75 12.3666 2.75 12.1677Z" fill="#131414"/>
	<path fill-rule="evenodd" clip-rule="evenodd" d="M4.75 3.16771C4.75 2.9688 4.82902 2.77803 4.96967 2.63738C5.11032 2.49673 5.30109 2.41771 5.5 2.41771H9.25C10.3109 2.41771 11.3283 2.83914 12.0784 3.58928C12.8286 4.33943 13.25 5.35685 13.25 6.41771C13.25 7.47858 12.8286 8.49599 12.0784 9.24614C11.3283 9.99628 10.3109 10.4177 9.25 10.4177H6.25V14.1677C6.25 14.3666 6.17098 14.5574 6.03033 14.698C5.88968 14.8387 5.69891 14.9177 5.5 14.9177C5.30109 14.9177 5.11032 14.8387 4.96967 14.698C4.82902 14.5574 4.75 14.3666 4.75 14.1677V10.4177H3.5C3.30109 10.4177 3.11032 10.3387 2.96967 10.198C2.82902 10.0574 2.75 9.86662 2.75 9.66771C2.75 9.4688 2.82902 9.27803 2.96967 9.13738C3.11032 8.99673 3.30109 8.91771 3.5 8.91771H4.75V3.16771ZM6.25 8.91771H9.25C9.91304 8.91771 10.5489 8.65432 11.0178 8.18548C11.4866 7.71664 11.75 7.08075 11.75 6.41771C11.75 5.75467 11.4866 5.11879 11.0178 4.64994C10.5489 4.1811 9.91304 3.91771 9.25 3.91771H6.25V8.91771Z" fill="#131414"/>
</svg>
