<svg width="16" height="17" viewBox="0 0 16 17" fill="none" xmlns="http://www.w3.org/2000/svg">
<g clip-path="url(#clip0_271_7087)">
<path d="M7.99998 0.500122C3.58844 0.500122 0 4.08884 0 8.50014C0 12.9114 3.58844 16.4999 7.99998 16.4999C12.4113 16.4999 15.9997 12.9114 16 8.50014C16 4.08884 12.4116 0.500122 7.99998 0.500122ZM7.99998 15.4762C4.15336 15.4762 1.02392 12.3468 1.02392 8.50014C1.02392 4.65352 4.15336 1.52404 7.99998 1.52404C11.8466 1.52404 14.976 4.65349 14.976 8.50011C14.976 12.3467 11.8466 15.4762 7.99998 15.4762Z" fill="#131414"/>
<path d="M8.64077 4.47681H6.44649C6.16362 4.47681 5.93453 4.7059 5.93453 4.98877V8.24552H5.29223C5.00936 8.24552 4.78027 8.47461 4.78027 8.75748C4.78027 9.04035 5.00936 9.26972 5.29223 9.26972H5.93453V9.97527H5.29223C5.00936 9.97527 4.78027 10.2046 4.78027 10.4875C4.78027 10.7704 5.00936 10.9998 5.29223 10.9998H5.93453V12.0115C5.93453 12.2944 6.16362 12.5237 6.44649 12.5237C6.72936 12.5237 6.95845 12.2941 6.95845 12.0115V10.9998H9.76537C10.048 10.9998 10.2773 10.7704 10.2773 10.4875C10.2773 10.2046 10.0482 9.9753 9.76537 9.9753H6.95845V9.26975H8.64105C9.49635 9.26975 10.2177 9.02932 10.7275 8.57448C11.2025 8.15071 11.4641 7.56916 11.4641 6.93711C11.4641 5.7445 10.4742 4.47681 8.64077 4.47681ZM10.0452 7.81037C9.72628 8.09521 9.24066 8.24552 8.6408 8.24552H6.95845V5.50048H8.64077C9.82165 5.50048 10.4398 6.22293 10.4398 6.93679C10.4399 7.27291 10.2998 7.58325 10.0452 7.81037Z" fill="#131414"/>
</g>
<defs>
<clipPath id="clip0_271_7087">
<rect width="16" height="16" fill="white" transform="translate(0 0.5)"/>
</clipPath>
</defs>
</svg>
