<svg width="26" height="26" viewBox="0 0 26 26" fill="none" xmlns="http://www.w3.org/2000/svg">
<path d="M15.8248 12.4521H8.73431V9.64631H15.8248C16.2389 9.64631 16.5269 9.71851 16.6714 9.84456C16.816 9.97064 16.9055 10.2045 16.9055 10.546V11.5535C16.9055 11.9133 16.816 12.1472 16.6714 12.2732C16.5269 12.3993 16.2389 12.4532 15.8248 12.4532V12.4521ZM16.3112 7.00107H5.72729V19H8.73431V15.0963H14.276L16.9055 19H20.2727L17.3736 15.0779C18.4424 14.9195 18.9224 14.592 19.3182 14.0522C19.714 13.5123 19.9126 12.6493 19.9126 11.4974V10.5977C19.9126 9.9146 19.8402 9.37478 19.714 8.96104C19.5878 8.54727 19.3722 8.1874 19.0658 7.86415C18.7423 7.55815 18.382 7.34264 17.9495 7.19825C17.517 7.0722 16.9767 7 16.3112 7V7.00107Z" fill="#A7A7A7"/>
<path d="M24 8.00005C25 11.5 25 12.3683 25 13C23.6525 13 22.3571 12.7779 21.148 12.3683C21.1738 12.0832 21.1853 11.7916 21.1853 11.4974V10.5977C21.1853 9.83377 21.1055 9.1604 20.9315 8.58971C20.7436 7.97429 20.4218 7.44465 19.9896 6.98869L19.9656 6.96338L19.9404 6.93941C19.48 6.50398 18.9581 6.19314 18.3525 5.99098L18.3292 5.98322L18.3057 5.97634C17.7293 5.80833 17.0638 5.72723 16.3112 5.72723H15.0385V5.72831H13.9675C13.3448 4.27736 13 2.67893 13 0.999966C13 -6.02454e-05 18.3057 2.5 18 2.00005C22 5 22.5 7.00005 24 8.00005Z" fill="#A7A7A7"/>
<path d="M24.8182 13C24.8182 6.473 19.5271 1.18182 13.0001 1.18182C6.47306 1.18182 1.18188 6.473 1.18188 13C1.18188 19.527 6.47306 24.8182 13.0001 24.8182C19.5271 24.8182 24.8182 19.527 24.8182 13Z" stroke="#A7A7A7"/>
</svg>
