<svg width="15" height="20" viewBox="0 0 15 20" fill="none" xmlns="http://www.w3.org/2000/svg">
<path d="M-0.000488281 4.77539L2.24038 8.78079V11.224L0.00213316 15.2215L-0.000488281 4.77539Z" fill="#5B57A2"/>
<path d="M8.60254 7.32321L10.7023 6.03624L14.9996 6.03223L8.60254 9.95112V7.32321Z" fill="#D90751"/>
<path d="M8.59117 4.75221L8.60304 10.0552L6.35693 8.67512V0.748047L8.59117 4.75221Z" fill="#FAB718"/>
<path d="M15.0001 6.03271L10.7027 6.03672L8.59117 4.75221L6.35693 0.748047L15.0001 6.03271Z" fill="#ED6F26"/>
<path d="M8.60304 15.2441V12.6713L6.35693 11.3174L6.35817 19.2523L8.60304 15.2441Z" fill="#63B22F"/>
<path d="M10.6981 13.9685L2.24022 8.78079L-0.000488281 4.77539L14.9915 13.9632L10.6981 13.9685Z" fill="#1487C9"/>
<path d="M6.35889 19.2525L8.60345 15.2444L10.698 13.9691L14.9914 13.9639L6.35889 19.2525Z" fill="#017F36"/>
<path d="M0.00146484 15.2221L6.3751 11.3177L4.23231 10.0029L2.23971 11.2245L0.00146484 15.2221Z" fill="#984995"/>
</svg>
