<svg width="22" height="22" viewBox="0 0 22 22" fill="none" xmlns="http://www.w3.org/2000/svg">
<path d="M15.9086 21.0127C15.0404 17.5601 14.0076 15.7125 11.6513 12.8858C9.71437 14.417 8.40468 14.8135 5.71709 14.87C6.38036 15.5353 7.13656 15.6387 8.82893 15.5787C7.5756 18.752 6.47857 19.6512 3.61841 19.7597C4.08217 20.0143 4.27743 20.2028 5.02687 20.2023C8.51612 22.344 12.4193 22.5177 15.9086 21.0127Z" fill="#F79900"/>
<path d="M-1.52588e-05 10.7598C0.909834 -1.22301 15.288 -3.45984 20.8421 5.37407H19.6842L22 10.3346L14.1842 15.0826L12.8816 8.9882L15.0526 13.4527L20.8421 9.98031L17.0066 2.256C14.4266 4.4139 13.3886 5.47515 12.375 7.07484C12.4091 6.05792 12.6729 5.38791 13.3881 4.0985L11.6513 4.38196C10.7723 4.58817 10.3589 4.57029 9.69735 4.38196C7.84595 5.35217 7.09219 6.0542 6.22367 7.5709C4.8965 9.74163 4.65389 11.4897 5.13814 15.5787V16.2164C5.42762 18.6967 3.25657 18.9802 2.17104 17.492C1.08551 16.0039 0.179426 13.9934 -1.52588e-05 11.3976V10.7598Z" fill="#F79900"/>
<path d="M9.69735 9.62599V8.49214C8.89929 8.6791 8.32235 9.62599 8.32235 9.62599C8.81469 9.35047 9.10187 9.34406 9.69735 9.62599Z" fill="#F79900"/>
<path d="M13.8223 7.76383L16.6381 4.85122L17.0699 5.61103L14.0133 8.14374L13.8223 7.76383Z" fill="#F79900"/>
<path d="M17.6095 6.75075L14.5227 9.15682L14.7774 9.66336L17.9614 7.4388L17.6095 6.75075Z" fill="#F79900"/>
<path d="M18.4514 8.39701L15.2869 10.6764L15.4779 11.0563L18.7751 9.03018L18.4514 8.39701Z" fill="#F79900"/>
</svg>
