<svg width="26" height="26" viewBox="0 0 26 26" fill="none" xmlns="http://www.w3.org/2000/svg">
<path d="M23.0833 19.4993H20.6423C20.2453 18.1784 19.0317 17.2077 17.5833 17.2077C16.135 17.2077 14.9222 18.1784 14.5244 19.4993H2.91665C2.41065 19.4993 2 19.91 2 20.416C2 20.922 2.41065 21.3327 2.91665 21.3327H14.5244C14.9213 22.6536 16.135 23.6243 17.5833 23.6243C19.0316 23.6243 20.2444 22.6536 20.6422 21.3327H23.0833C23.5902 21.3327 24 20.922 24 20.416C24 19.91 23.5903 19.4993 23.0833 19.4993ZM17.5833 21.791C16.8252 21.791 16.2083 21.1741 16.2083 20.416C16.2083 19.6579 16.8252 19.041 17.5833 19.041C18.3414 19.041 18.9583 19.6579 18.9583 20.416C18.9583 21.1741 18.3414 21.791 17.5833 21.791ZM23.0833 4.83267H20.6423C20.2444 3.51177 19.0317 2.54102 17.5833 2.54102C16.135 2.54102 14.9222 3.51177 14.5244 4.83267H2.91665C2.41065 4.83267 2 5.24332 2 5.74932C2 6.25532 2.41065 6.66597 2.91665 6.66597H14.5244C14.9222 7.98692 16.135 8.95767 17.5833 8.95767C19.0317 8.95767 20.2444 7.98692 20.6423 6.66602H23.0833C23.5903 6.66602 24 6.25536 24 5.74936C24 5.24336 23.5903 4.83267 23.0833 4.83267ZM17.5833 7.12432C16.8252 7.12432 16.2083 6.50742 16.2083 5.74932C16.2083 4.99122 16.8252 4.37432 17.5833 4.37432C18.3414 4.37432 18.9583 4.99122 18.9583 5.74932C18.9583 6.50742 18.3414 7.12432 17.5833 7.12432ZM23.0833 12.166H11.4756C11.0778 10.8451 9.865 9.87436 8.4167 9.87436C6.96839 9.87436 5.7556 10.8451 5.35779 12.166H2.91665C2.41065 12.166 2 12.5767 2 13.0827C2 13.5887 2.41065 13.9993 2.91665 13.9993H5.35775C5.7556 15.3202 6.96835 16.291 8.41665 16.291C9.86496 16.291 11.0778 15.3202 11.4756 13.9993H23.0833C23.5902 13.9993 24 13.5887 24 13.0827C24 12.5767 23.5903 12.166 23.0833 12.166ZM8.41665 14.4577C7.65855 14.4577 7.04165 13.8408 7.04165 13.0827C7.04165 12.3246 7.65855 11.7077 8.41665 11.7077C9.17475 11.7077 9.79165 12.3246 9.79165 13.0827C9.79165 13.8408 9.17475 14.4577 8.41665 14.4577Z" fill="#131414"/>
</svg>
