<svg width="26" height="26" viewBox="0 0 26 26" fill="none" xmlns="http://www.w3.org/2000/svg">
<path d="M13.8575 6H8.50786C8.2274 6 8.00005 6.22735 8.00005 6.50781C8.00005 6.78828 8.2274 7.01562 8.50786 7.01562H13.8575C14.138 7.01562 14.3653 6.78828 14.3653 6.50781C14.3653 6.22735 14.138 6 13.8575 6ZM12.1891 8.03125H8.50781C8.22735 8.03125 8 8.2586 8 8.53906C8 8.81953 8.22735 9.04687 8.50781 9.04687H12.1891C12.4696 9.04687 12.697 8.81953 12.697 8.53906C12.697 8.2586 12.4696 8.03125 12.1891 8.03125Z" fill="#131414"/>
<path d="M20.9896 2.8666V4.0722L20.9896 14.0209C20.9896 14.3013 20.7622 14.5287 20.4817 14.5287C20.2013 14.5287 19.9739 14.3013 19.9739 14.0209L19.974 4.0722V2.8666C19.974 1.846 19.1437 1.01562 18.123 1.01562H17.4129L16.4806 2.55689C16.2978 2.85914 15.9649 3.04688 15.6116 3.04688H10.3878C10.0345 3.04688 9.70155 2.85914 9.51873 2.55689L8.58649 1.01562H7.87637C6.85572 1.01562 6.02539 1.84595 6.02539 2.8666V12.1129V22.1955H19.974V18.6481C19.974 18.3676 20.2013 18.1403 20.4818 18.1403C20.7623 18.1403 20.9896 18.3676 20.9896 18.6481V23.1334C20.9896 24.7141 19.7036 26 18.123 26H7.87637C6.2957 26 5.00977 24.7141 5.00977 23.1334V12.1129V2.8666C5.00977 1.28593 6.29575 0 7.87637 0H18.123C19.7037 0 20.9896 1.28593 20.9896 2.8666Z" fill="#131414"/>
<path d="M20.4922 16.8418C20.7726 16.8418 21 16.6144 21 16.334C21 16.0535 20.7726 15.8262 20.4922 15.8262C20.2117 15.8262 19.9844 16.0535 19.9844 16.334C19.9844 16.6144 20.2117 16.8418 20.4922 16.8418Z" fill="#131414"/>
<rect x="8" y="11" width="10" height="1" rx="0.5" fill="#131414"/>
<rect x="8" y="13" width="10" height="1" rx="0.5" fill="#131414"/>
<rect x="8" y="15" width="10" height="1" rx="0.5" fill="#131414"/>
<rect x="8" y="18" width="6" height="1" rx="0.5" fill="#131414"/>
</svg>
