<svg width="26" height="26" viewBox="0 0 26 26" fill="none" xmlns="http://www.w3.org/2000/svg">
<path d="M20.3125 16.0469C21.2086 16.0501 22.0777 15.7408 22.7703 15.1723C23.4629 14.6037 23.9355 13.8114 24.1068 12.9319C24.2781 12.0523 24.1373 11.1406 23.7087 10.3537C23.2801 9.56673 22.5906 8.95387 21.7588 8.62064C21.7075 7.65236 21.3115 6.73436 20.6424 6.03253C19.9734 5.33069 19.0754 4.89131 18.1107 4.79376C17.5966 3.89185 16.853 3.14205 15.9554 2.6205C15.0578 2.09895 14.0382 1.82422 13 1.82422C11.9619 1.82422 10.9423 2.09895 10.0447 2.6205C9.14707 3.14205 8.40347 3.89185 7.8894 4.79376C6.92468 4.89131 6.02666 5.33069 5.35761 6.03253C4.68856 6.73436 4.2926 7.65236 4.24128 8.62064C3.40948 8.95387 2.71992 9.56673 2.29134 10.3537C1.86277 11.1406 1.722 12.0523 1.89329 12.9319C2.06458 13.8114 2.5372 14.6037 3.22976 15.1723C3.92232 15.7408 4.79147 16.0501 5.68753 16.0469H9.14065V18.6875C9.14065 18.7414 9.11925 18.793 9.08116 18.8311C9.04307 18.8692 8.9914 18.8906 8.93753 18.8906H7.19878C7.05503 18.4841 6.77218 18.1414 6.40021 17.9232C6.02824 17.705 5.5911 17.6253 5.16607 17.6982C4.74103 17.7711 4.35546 17.992 4.0775 18.3217C3.79954 18.6514 3.64708 19.0688 3.64708 19.5C3.64708 19.9313 3.79954 20.3486 4.0775 20.6783C4.35546 21.008 4.74103 21.2289 5.16607 21.3018C5.5911 21.3747 6.02824 21.2951 6.40021 21.0768C6.77218 20.8586 7.05503 20.516 7.19878 20.1094H8.93753C9.31398 20.1073 9.6744 19.9568 9.94059 19.6906C10.2068 19.4244 10.3573 19.064 10.3594 18.6875V16.0469H12.3907V20.6294C11.9841 20.7731 11.6414 21.056 11.4232 21.428C11.205 21.7999 11.1253 22.2371 11.1982 22.6621C11.2712 23.0871 11.492 23.4727 11.8217 23.7507C12.1514 24.0286 12.5688 24.1811 13 24.1811C13.4313 24.1811 13.8486 24.0286 14.1784 23.7507C14.5081 23.4727 14.7289 23.0871 14.8018 22.6621C14.8748 22.2371 14.7951 21.7999 14.5769 21.428C14.3587 21.056 14.016 20.7731 13.6094 20.6294V16.0469H15.6407V18.6875C15.6428 19.064 15.7933 19.4244 16.0595 19.6906C16.3257 19.9568 16.6861 20.1073 17.0625 20.1094H18.8013C18.945 20.516 19.2279 20.8586 19.5999 21.0768C19.9718 21.2951 20.409 21.3747 20.834 21.3018C21.259 21.2289 21.6446 21.008 21.9226 20.6783C22.2005 20.3486 22.353 19.9313 22.353 19.5C22.353 19.0688 22.2005 18.6514 21.9226 18.3217C21.6446 17.992 21.259 17.7711 20.834 17.6982C20.409 17.6253 19.9718 17.705 19.5999 17.9232C19.2279 18.1414 18.945 18.4841 18.8013 18.8906H17.0625C17.0087 18.8906 16.957 18.8692 16.9189 18.8311C16.8808 18.793 16.8594 18.7414 16.8594 18.6875V16.0469H20.3125ZM5.4844 20.1094C5.36388 20.1094 5.24607 20.0736 5.14585 20.0067C5.04564 19.9397 4.96754 19.8446 4.92142 19.7332C4.87529 19.6219 4.86323 19.4993 4.88674 19.3811C4.91025 19.2629 4.96829 19.1543 5.05351 19.0691C5.13873 18.9839 5.24731 18.9259 5.36552 18.9023C5.48373 18.8788 5.60625 18.8909 5.7176 18.937C5.82895 18.9831 5.92412 19.0613 5.99108 19.1615C6.05804 19.2617 6.09378 19.3795 6.09378 19.5C6.09168 19.661 6.0268 19.8148 5.91297 19.9286C5.79914 20.0424 5.64537 20.1073 5.4844 20.1094ZM13 22.9531C12.8795 22.9531 12.7617 22.9174 12.6615 22.8504C12.5613 22.7835 12.4832 22.6883 12.437 22.577C12.3909 22.4656 12.3789 22.3431 12.4024 22.2249C12.4259 22.1067 12.4839 21.9981 12.5691 21.9129C12.6544 21.8276 12.7629 21.7696 12.8811 21.7461C12.9994 21.7226 13.1219 21.7346 13.2332 21.7808C13.3446 21.8269 13.4397 21.905 13.5067 22.0052C13.5737 22.1054 13.6094 22.2232 13.6094 22.3438C13.6073 22.5047 13.5424 22.6585 13.4286 22.7723C13.3148 22.8862 13.161 22.951 13 22.9531ZM20.5157 18.8906C20.6362 18.8906 20.754 18.9264 20.8542 18.9933C20.9544 19.0603 21.0325 19.1555 21.0786 19.2668C21.1248 19.3782 21.1368 19.5007 21.1133 19.6189C21.0898 19.7371 21.0318 19.8457 20.9465 19.9309C20.8613 20.0161 20.7527 20.0742 20.6345 20.0977C20.5163 20.1212 20.3938 20.1091 20.2825 20.063C20.1711 20.0169 20.0759 19.9388 20.009 19.8386C19.942 19.7383 19.9063 19.6205 19.9063 19.5C19.9084 19.3391 19.9733 19.1853 20.0871 19.0714C20.2009 18.9576 20.3547 18.8927 20.5157 18.8906ZM3.0469 12.1875C3.04865 11.6038 3.24434 11.0372 3.60321 10.5769C3.96208 10.1165 4.46377 9.78851 5.0294 9.64439C5.1666 9.60725 5.28678 9.52392 5.36967 9.40847C5.45256 9.29301 5.49308 9.1525 5.4844 9.01064C5.48052 8.94027 5.48052 8.86975 5.4844 8.79939C5.4844 8.05595 5.77973 7.34297 6.30542 6.81728C6.83111 6.29159 7.54409 5.99626 8.28753 5.99626C8.39358 5.9945 8.49733 5.96509 8.58853 5.91094C8.67973 5.85679 8.75522 5.77978 8.80753 5.68751C9.19269 4.90416 9.78962 4.24439 10.5306 3.78299C11.2716 3.3216 12.1271 3.07703 13 3.07703C13.8729 3.07703 14.7284 3.3216 15.4694 3.78299C16.2104 4.24439 16.8074 4.90416 17.1925 5.68751C17.2432 5.78887 17.3208 5.87432 17.4168 5.93451C17.5129 5.9947 17.6236 6.02731 17.7369 6.02876C18.1102 6.03082 18.4794 6.10722 18.8229 6.25351C19.1664 6.3998 19.4773 6.61304 19.7375 6.8808C19.9977 7.14855 20.202 7.46544 20.3384 7.81299C20.4747 8.16053 20.5405 8.53176 20.5319 8.90501V9.03501C20.5213 9.17822 20.5609 9.32065 20.6439 9.4378C20.727 9.55495 20.8483 9.63949 20.9869 9.67689C21.5844 9.85726 22.0984 10.244 22.4371 10.7682C22.7759 11.2924 22.9174 11.9199 22.8363 12.5388C22.7553 13.1576 22.4571 13.7275 21.9948 14.1469C21.5325 14.5662 20.9363 14.8076 20.3125 14.8281H5.68753C4.98785 14.826 4.31744 14.5471 3.82269 14.0523C3.32794 13.5576 3.04905 12.8872 3.0469 12.1875Z" fill="black"/>
</svg>
