<svg width="26" height="26" viewBox="0 0 26 26" fill="none" xmlns="http://www.w3.org/2000/svg">
<path d="M19.5 15.6C18.525 15.925 17.875 16.8188 17.875 17.875C17.875 18.9312 18.525 19.825 19.5 20.15V21.9375C19.5 22.425 19.825 22.75 20.3125 22.75C20.8 22.75 21.125 22.425 21.125 21.9375V20.15C22.1 19.825 22.75 18.9312 22.75 17.875C22.75 16.8188 22.1 15.925 21.125 15.6V4.0625C21.125 3.575 20.8 3.25 20.3125 3.25C19.825 3.25 19.5 3.575 19.5 4.0625V15.6ZM20.3125 17.0625C20.8 17.0625 21.125 17.3875 21.125 17.875C21.125 18.3625 20.8 18.6875 20.3125 18.6875C19.825 18.6875 19.5 18.3625 19.5 17.875C19.5 17.3875 19.825 17.0625 20.3125 17.0625ZM12.1875 5.85C11.2125 6.175 10.5625 7.06875 10.5625 8.125C10.5625 9.18125 11.2125 10.075 12.1875 10.4V21.9375C12.1875 22.425 12.5125 22.75 13 22.75C13.4875 22.75 13.8125 22.425 13.8125 21.9375V10.4C14.7875 10.075 15.4375 9.18125 15.4375 8.125C15.4375 7.06875 14.7875 6.175 13.8125 5.85V4.0625C13.8125 3.575 13.4875 3.25 13 3.25C12.5125 3.25 12.1875 3.575 12.1875 4.0625V5.85ZM13 8.9375C12.5125 8.9375 12.1875 8.6125 12.1875 8.125C12.1875 7.6375 12.5125 7.3125 13 7.3125C13.4875 7.3125 13.8125 7.6375 13.8125 8.125C13.8125 8.6125 13.4875 8.9375 13 8.9375ZM4.875 15.6C3.9 15.925 3.25 16.8188 3.25 17.875C3.25 18.9312 3.9 19.825 4.875 20.15V21.9375C4.875 22.425 5.2 22.75 5.6875 22.75C6.175 22.75 6.5 22.425 6.5 21.9375V20.15C7.475 19.825 8.125 18.9312 8.125 17.875C8.125 16.8188 7.475 15.925 6.5 15.6V4.0625C6.5 3.575 6.175 3.25 5.6875 3.25C5.2 3.25 4.875 3.575 4.875 4.0625V15.6ZM5.6875 18.6875C5.2 18.6875 4.875 18.3625 4.875 17.875C4.875 17.3875 5.2 17.0625 5.6875 17.0625C6.175 17.0625 6.5 17.3875 6.5 17.875C6.5 18.3625 6.175 18.6875 5.6875 18.6875Z" fill="white"/>
</svg>
