<svg width="26" height="26" viewBox="0 0 26 26" fill="none" xmlns="http://www.w3.org/2000/svg">
<path d="M24.4715 15.295C24.4702 13.8059 23.9257 12.3684 22.9403 11.2521C21.9548 10.1357 20.596 9.41706 19.1186 9.23092V6.11857C19.1186 6.00811 19.0947 5.89897 19.0484 5.79864C19.0022 5.69831 18.9349 5.60919 18.8509 5.53739L13.498 0.949154C13.3595 0.830697 13.1832 0.765611 13.0009 0.765625H3.64092C2.87896 0.767643 2.14879 1.07122 1.61001 1.61001C1.07122 2.14879 0.767643 2.87896 0.765625 3.64092V22.3609C0.767643 23.1229 1.07122 23.853 1.61001 24.3918C2.14879 24.9306 2.87896 25.2342 3.64092 25.2362H16.2433C17.0052 25.2342 17.7354 24.9306 18.2742 24.3918C18.813 23.853 19.1165 23.1229 19.1186 22.3609V21.3592C20.596 21.173 21.9548 20.4544 22.9403 19.338C23.9257 18.2216 24.4702 16.7841 24.4715 15.295ZM13.7656 3.18974L16.2892 5.35386H13.7656V3.18974ZM16.2433 23.7068H3.64092C3.46418 23.7068 3.28916 23.672 3.12587 23.6044C2.96258 23.5367 2.81421 23.4376 2.68924 23.3126C2.56426 23.1876 2.46512 23.0393 2.39749 22.876C2.32985 22.7127 2.29504 22.5377 2.29504 22.3609V3.64092C2.29504 3.28397 2.43683 2.94164 2.68924 2.68924C2.94164 2.43683 3.28397 2.29504 3.64092 2.29504H12.2362V6.11857C12.2362 6.32138 12.3168 6.51588 12.4602 6.6593C12.6036 6.8027 12.7981 6.88327 13.0009 6.88327H17.5892V9.23092C16.1195 9.42662 14.7709 10.1494 13.7942 11.2648C12.8175 12.3802 12.279 13.8124 12.279 15.295C12.279 16.7777 12.8175 18.2098 13.7942 19.3253C14.7709 20.4407 16.1195 21.1635 17.5892 21.3592V22.3609C17.5892 22.5377 17.5543 22.7127 17.4867 22.876C17.4191 23.0393 17.3199 23.1876 17.195 23.3126C17.07 23.4376 16.9216 23.5367 16.7583 23.6044C16.595 23.672 16.42 23.7068 16.2433 23.7068ZM18.3539 19.8833C17.4464 19.8833 16.5593 19.6142 15.8048 19.11C15.0502 18.6059 14.4622 17.8893 14.1149 17.0509C13.7676 16.2125 13.6767 15.2899 13.8538 14.3999C14.0308 13.5099 14.4678 12.6923 15.1095 12.0507C15.7512 11.409 16.5687 10.972 17.4587 10.795C18.3488 10.6179 19.2713 10.7088 20.1097 11.0561C20.9481 11.4033 21.6647 11.9914 22.1688 12.7459C22.673 13.5005 22.9421 14.3876 22.9421 15.295C22.9421 16.5119 22.4587 17.6789 21.5982 18.5394C20.7378 19.3999 19.5707 19.8833 18.3539 19.8833Z" fill="#131414"/>
<path d="M20.6487 14.5298H19.1193V13.0003C19.1193 12.7975 19.0387 12.603 18.8953 12.4596C18.7519 12.3162 18.5574 12.2356 18.3545 12.2356C18.1517 12.2356 17.9572 12.3162 17.8138 12.4596C17.6704 12.603 17.5898 12.7975 17.5898 13.0003V14.5298H16.0604C15.8576 14.5298 15.6631 14.6103 15.5197 14.7537C15.3763 14.8971 15.2957 15.0916 15.2957 15.2945C15.2957 15.4973 15.3763 15.6918 15.5197 15.8352C15.6631 15.9786 15.8576 16.0592 16.0604 16.0592H17.5898V17.5886C17.5898 17.7914 17.6704 17.9859 17.8138 18.1293C17.9572 18.2727 18.1517 18.3533 18.3545 18.3533C18.5574 18.3533 18.7519 18.2727 18.8953 18.1293C19.0387 17.9859 19.1193 17.7914 19.1193 17.5886V16.0592H20.6487C20.8515 16.0592 21.046 15.9786 21.1894 15.8352C21.3328 15.6918 21.4134 15.4973 21.4134 15.2945C21.4134 15.0916 21.3328 14.8971 21.1894 14.7537C21.046 14.6103 20.8515 14.5298 20.6487 14.5298ZM5.35455 9.94152H13.0016C13.2044 9.94152 13.3989 9.86095 13.5423 9.71754C13.6857 9.57413 13.7663 9.37963 13.7663 9.17682C13.7663 8.974 13.6857 8.7795 13.5423 8.63609C13.3989 8.49268 13.2044 8.41211 13.0016 8.41211H5.35455C5.15174 8.41211 4.95723 8.49268 4.81382 8.63609C4.67041 8.7795 4.58984 8.974 4.58984 9.17682C4.58984 9.37963 4.67041 9.57413 4.81382 9.71754C4.95723 9.86095 5.15174 9.94152 5.35455 9.94152ZM9.94279 11.4709H5.35455C5.15174 11.4709 4.95723 11.5515 4.81382 11.6949C4.67041 11.8383 4.58984 12.0328 4.58984 12.2356C4.58984 12.4385 4.67041 12.633 4.81382 12.7764C4.95723 12.9198 5.15174 13.0003 5.35455 13.0003H9.94279C10.1456 13.0003 10.3401 12.9198 10.4835 12.7764C10.6269 12.633 10.7075 12.4385 10.7075 12.2356C10.7075 12.0328 10.6269 11.8383 10.4835 11.6949C10.3401 11.5515 10.1456 11.4709 9.94279 11.4709ZM9.94279 14.5298H5.35455C5.15174 14.5298 4.95723 14.6103 4.81382 14.7537C4.67041 14.8971 4.58984 15.0916 4.58984 15.2945C4.58984 15.4973 4.67041 15.6918 4.81382 15.8352C4.95723 15.9786 5.15174 16.0592 5.35455 16.0592H9.94279C10.1456 16.0592 10.3401 15.9786 10.4835 15.8352C10.6269 15.6918 10.7075 15.4973 10.7075 15.2945C10.7075 15.0916 10.6269 14.8971 10.4835 14.7537C10.3401 14.6103 10.1456 14.5298 9.94279 14.5298ZM9.94279 17.5886H5.35455C5.15174 17.5886 4.95723 17.6691 4.81382 17.8126C4.67041 17.956 4.58984 18.1505 4.58984 18.3533C4.58984 18.5561 4.67041 18.7506 4.81382 18.894C4.95723 19.0374 5.15174 19.118 5.35455 19.118H9.94279C10.1456 19.118 10.3401 19.0374 10.4835 18.894C10.6269 18.7506 10.7075 18.5561 10.7075 18.3533C10.7075 18.1505 10.6269 17.956 10.4835 17.8126C10.3401 17.6691 10.1456 17.5886 9.94279 17.5886Z" fill="#131414"/>
</svg>
