<svg width="26" height="26" viewBox="0 0 26 26" fill="none" xmlns="http://www.w3.org/2000/svg">
<path d="M21.7181 4.0625H4.875C4.65951 4.0625 4.45285 4.1481 4.30048 4.30048C4.1481 4.45285 4.0625 4.65951 4.0625 4.875C4.0625 5.09049 4.1481 5.29715 4.30048 5.44952C4.45285 5.6019 4.65951 5.6875 4.875 5.6875H18.7525C18.9289 6.90052 19.4924 8.0241 20.3592 8.89085C21.2259 9.7576 22.3495 10.3211 23.5625 10.4975V15.5025C22.3495 15.6789 21.2259 16.2424 20.3592 17.1092C19.4924 17.9759 18.9289 19.0995 18.7525 20.3125H7.35313C7.17358 19.0816 6.59576 17.9433 5.70803 17.0719C4.82031 16.2004 3.67156 15.6438 2.4375 15.4871V8.125C2.4375 7.90951 2.3519 7.70285 2.19952 7.55048C2.04715 7.3981 1.84049 7.3125 1.625 7.3125C1.40951 7.3125 1.20285 7.3981 1.05048 7.55048C0.898102 7.70285 0.8125 7.90951 0.8125 8.125V18.4681C0.813575 19.3879 1.17944 20.2698 1.82984 20.9202C2.48024 21.5706 3.36207 21.9364 4.28187 21.9375H21.7181C22.6379 21.9364 23.5198 21.5706 24.1702 20.9202C24.8206 20.2698 25.1864 19.3879 25.1875 18.4681V7.53188C25.1864 6.61207 24.8206 5.73025 24.1702 5.07984C23.5198 4.42944 22.6379 4.06358 21.7181 4.0625ZM4.28187 20.3125C3.79291 20.3119 3.32416 20.1173 2.97842 19.7716C2.63267 19.4258 2.43814 18.9571 2.4375 18.4681V17.1243C3.23949 17.2672 3.98016 17.6474 4.56374 18.2158C5.14733 18.7842 5.54699 19.5146 5.71106 20.3125H4.28187ZM23.5625 18.4681C23.5619 18.9571 23.3673 19.4258 23.0216 19.7716C22.6758 20.1173 22.2071 20.3119 21.7181 20.3125H20.3938C20.5543 19.5323 20.94 18.8164 21.5032 18.2532C22.0664 17.69 22.7823 17.3043 23.5625 17.1438V18.4681ZM23.5625 8.85625C22.7823 8.69575 22.0664 8.31003 21.5032 7.74683C20.94 7.18363 20.5543 6.46765 20.3938 5.6875H21.7181C22.2071 5.68814 22.6758 5.88267 23.0216 6.22842C23.3673 6.57416 23.5619 7.04291 23.5625 7.53188V8.85625Z" fill="black"/>
<path d="M10.5116 18V8.13H14.7956C15.5236 8.13 16.1396 8.25133 16.6436 8.494C17.1476 8.73667 17.5303 9.08667 17.7916 9.544C18.0529 10.0013 18.1836 10.5567 18.1836 11.21C18.1836 11.854 18.0529 12.4093 17.7916 12.876C17.5303 13.3333 17.1476 13.688 16.6436 13.94C16.1396 14.1827 15.5236 14.304 14.7956 14.304H12.3036V18H10.5116ZM12.3036 12.89H14.5156C15.1503 12.89 15.6309 12.75 15.9576 12.47C16.2843 12.1807 16.4476 11.7607 16.4476 11.21C16.4476 10.6593 16.2843 10.244 15.9576 9.964C15.6309 9.684 15.1503 9.544 14.5156 9.544H12.3036V12.89Z" fill="black"/>
<rect x="9" y="16" width="5" height="1" fill="#131414"/>
</svg>
