<svg width="26" height="26" viewBox="0 0 26 26" fill="none" xmlns="http://www.w3.org/2000/svg">
<g clip-path="url(#clip0_424_10476)">
<path d="M3.13655 24.4029C2.64277 24.4029 2.16386 24.3236 1.71205 24.1673L0.683167 23.8113L1.47375 23.0627C2.52015 22.0718 2.78423 20.9289 2.80141 20.0729C0.992856 18.0677 1.40477e-08 15.5661 1.40477e-08 13.0003C-0.000330497 6.71298 5.83154 1.59766 12.9997 1.59766C20.1678 1.59766 26 6.71298 26 13.0003C26 19.2873 20.1678 24.4023 12.9997 24.4023C10.8656 24.4023 8.7602 23.9399 6.88389 23.0614C6.17692 23.5621 4.74879 24.4029 3.13655 24.4029ZM6.72888 21.5093L7.10831 21.7013C8.89208 22.6033 10.9293 23.0806 12.9993 23.0806C19.4387 23.0806 24.6776 18.5585 24.6776 13.0006C24.6776 7.44209 19.4387 2.92003 12.9993 2.92003C6.55999 2.92003 1.32138 7.44209 1.32138 13.0003C1.32138 15.3102 2.25144 17.5686 3.94069 19.359L4.11255 19.5411L4.12048 19.7913C4.14957 20.69 3.98828 21.9086 3.18943 23.0802C4.72036 23.0558 6.12768 21.9902 6.39672 21.775L6.72888 21.5093Z" fill="#131414"/>
<path d="M6.69393 16.1197C6.20907 16.1197 5.81543 16.0817 5.51136 16.0054C5.20795 15.9297 4.99808 15.8517 4.88273 15.7723C4.85364 15.7433 4.84274 15.6768 4.84968 15.5717C4.85662 15.4676 4.87314 15.3585 4.89859 15.2468C4.92371 15.1351 4.95643 15.0346 4.99609 14.949C5.03576 14.8625 5.07343 14.8221 5.11012 14.8297C5.29818 14.8948 5.50244 14.9583 5.72289 15.0194C5.94334 15.0806 6.22361 15.1113 6.56338 15.1113C6.91075 15.1113 7.2049 15.0614 7.44783 14.9596C7.68976 14.8582 7.81139 14.6774 7.81139 14.4173C7.81139 14.1922 7.73141 14.0101 7.57243 13.8693C7.41345 13.7285 7.12756 13.5781 6.71541 13.4198C6.49858 13.3358 6.28671 13.2396 6.08083 13.1316C5.88981 13.0326 5.71285 12.9085 5.55466 12.7627C5.40216 12.6209 5.28033 12.4494 5.19672 12.2587C5.10979 12.0637 5.06616 11.832 5.06616 11.5643C5.06616 11.3475 5.10814 11.1412 5.1911 10.9459C5.27405 10.7506 5.40262 10.5823 5.57614 10.4415C5.74966 10.3007 5.97209 10.1884 6.24344 10.1054C6.51479 10.0221 6.83836 9.98047 7.21449 9.98047C7.46006 9.98047 7.66464 9.98609 7.82725 9.99666C7.98987 10.0076 8.12339 10.0221 8.22883 10.0403C8.33327 10.0585 8.41854 10.0783 8.48365 10.1001C8.54876 10.1219 8.61024 10.1398 8.66807 10.1543C8.71864 10.1758 8.74409 10.2393 8.74409 10.344C8.74409 10.4488 8.72922 10.5608 8.70047 10.6805C8.67171 10.7995 8.63172 10.9046 8.58148 10.9948C8.53058 11.0854 8.48001 11.1234 8.42945 11.1088C8.26299 11.0624 8.09473 11.0227 7.92509 10.9899C7.71992 10.9472 7.51097 10.9254 7.30141 10.9247C6.88893 10.9247 6.60535 10.9829 6.45001 11.0983C6.29434 11.2139 6.21667 11.3693 6.21667 11.5646C6.21667 11.7745 6.3036 11.9427 6.47712 12.069C6.65063 12.1952 6.92198 12.3238 7.2905 12.454C7.87617 12.6854 8.30848 12.9511 8.58677 13.2512C8.86506 13.5513 9.00454 13.9291 9.00454 14.3849C9.00454 14.725 8.93942 15.0072 8.80953 15.2316C8.68448 15.4504 8.50507 15.6333 8.28865 15.7624C8.07183 15.8933 7.82395 15.9852 7.54566 16.0394C7.26704 16.0926 6.98313 16.1197 6.69393 16.1197ZM14.5148 16.0655C14.3631 16.0655 14.2636 16.0404 14.217 15.9895C14.1694 15.9393 14.1466 15.8418 14.1466 15.6963V11.8997C13.9229 12.2624 13.7002 12.6258 13.4787 12.9898C13.3227 13.2469 13.21 13.435 13.1372 13.5543C13.0649 13.6729 13.0212 13.744 13.0064 13.7655C12.9922 13.7873 12.9855 13.8022 12.9855 13.8094C12.9437 13.8821 12.8985 13.9526 12.85 14.021C12.8243 14.0544 12.7717 14.0696 12.6924 14.0696H12.5189C12.425 14.0696 12.3632 14.0534 12.3344 14.021C12.3057 13.9882 12.2621 13.9178 12.2042 13.8094L11.0977 11.9222V15.7624C11.0977 15.8566 11.0815 15.931 11.0487 15.9852C11.0164 16.0394 10.9314 16.0665 10.7939 16.0665H10.3388C10.2373 16.0665 10.1491 16.0503 10.0727 16.0176C9.99706 15.9852 9.95872 15.8788 9.95872 15.6973V10.4901C9.95872 10.3454 9.98582 10.2495 10.04 10.2026C10.0942 10.1556 10.1719 10.1322 10.2734 10.1322H10.8157C10.8951 10.1322 10.9622 10.1427 11.0164 10.1646C11.0706 10.1864 11.1264 10.2406 11.1846 10.3272L12.6269 12.6269L14.0696 10.349C14.1132 10.2693 14.1651 10.2135 14.2276 10.1808C14.2894 10.148 14.3482 10.1322 14.4064 10.1322H15.0033C15.1408 10.1322 15.2198 10.1609 15.2423 10.2188C15.2641 10.2769 15.2747 10.3708 15.2747 10.501V15.7505C15.2747 15.8589 15.2605 15.9389 15.2314 15.9898C15.2023 16.0407 15.119 16.0655 14.9822 16.0655H14.5148ZM18.1276 16.1197C17.6424 16.1197 17.2491 16.0817 16.9451 16.0054C16.6417 15.9297 16.4315 15.8517 16.3164 15.7723C16.2874 15.7433 16.2764 15.6768 16.2834 15.5717C16.2903 15.4676 16.3062 15.3585 16.332 15.2468C16.3571 15.1351 16.3895 15.0346 16.4295 14.949C16.4688 14.8621 16.5065 14.8221 16.5435 14.8297C16.7316 14.8948 16.9361 14.9583 17.1563 15.0194C17.3764 15.0809 17.6567 15.1113 17.9968 15.1113C18.3441 15.1113 18.6379 15.0614 18.8812 14.9596C19.1228 14.8582 19.2451 14.6774 19.2451 14.4173C19.2451 14.1922 19.1651 14.0101 19.0058 13.8693C18.8465 13.7285 18.5609 13.5781 18.1485 13.4198C17.9317 13.3358 17.7198 13.2395 17.5139 13.1316C17.3228 13.0325 17.1457 12.9085 16.9874 12.7627C16.8351 12.6208 16.7134 12.4493 16.6298 12.2587C16.5425 12.0634 16.4992 11.832 16.4992 11.5643C16.4992 11.3475 16.5412 11.1412 16.6238 10.9459C16.7071 10.7506 16.8357 10.5823 17.0092 10.4415C17.1827 10.3007 17.4048 10.1884 17.6762 10.1054C17.9478 10.0221 18.2717 9.98047 18.6472 9.98047C18.8931 9.98047 19.0977 9.98609 19.26 9.99666C19.4226 10.0076 19.5561 10.0221 19.6619 10.0403C19.766 10.0585 19.8513 10.0783 19.9167 10.1001C19.9815 10.1216 20.0433 10.1398 20.1015 10.1543C20.1517 10.1758 20.1771 10.2393 20.1771 10.344C20.1771 10.4488 20.1623 10.5608 20.1332 10.6805C20.1048 10.7995 20.0648 10.9046 20.0149 10.9948C19.964 11.0854 19.9131 11.1234 19.8625 11.1088C19.6961 11.0625 19.528 11.0228 19.3585 10.9899C19.1533 10.9472 18.9443 10.9254 18.7348 10.9247C18.3223 10.9247 18.0384 10.9829 17.8834 11.0983C17.7277 11.2139 17.6497 11.3693 17.6497 11.5646C17.6497 11.7745 17.737 11.9427 17.9105 12.069C18.0837 12.1952 18.3554 12.3238 18.7239 12.454C19.3092 12.6854 19.7419 12.9511 20.0201 13.2512C20.2984 13.5513 20.4379 13.9291 20.4379 14.3849C20.4379 14.725 20.3728 15.0072 20.2429 15.2316C20.1179 15.4504 19.9384 15.6333 19.722 15.7624C19.5052 15.8933 19.2573 15.9852 18.979 16.0394C18.6998 16.0926 18.4168 16.1197 18.1276 16.1197Z" fill="#131414"/>
</g>
<defs>
<clipPath id="clip0_424_10476">
<rect width="26" height="26" fill="white"/>
</clipPath>
</defs>
</svg>
