<svg width="16" height="16" viewBox="0 0 16 16" fill="none" xmlns="http://www.w3.org/2000/svg">
<g clip-path="url(#clip0_509_15137)">
<path d="M14.7045 4.11975C14.6962 3.68777 14.6884 3.27969 14.6884 2.88489C14.6884 2.73636 14.6294 2.59391 14.5244 2.48888C14.4193 2.38386 14.2769 2.32485 14.1284 2.32485C11.7332 2.32485 9.90968 1.63652 8.38965 0.158614C8.28513 0.0569258 8.14506 3.05176e-05 7.99923 3.05176e-05C7.8534 3.05176e-05 7.71333 0.0569258 7.60881 0.158614C6.08893 1.63652 4.26566 2.32485 1.8707 2.32485C1.72217 2.32485 1.57972 2.38386 1.47469 2.48888C1.36966 2.59391 1.31066 2.73636 1.31066 2.88489C1.31066 3.27976 1.30289 3.68799 1.29461 4.12005C1.21784 8.14009 1.11271 13.6457 7.8158 15.9692C7.93459 16.0104 8.0638 16.0104 8.18259 15.9692C14.8862 13.6457 14.7812 8.13987 14.7045 4.11975ZM7.99927 14.8457C2.25048 12.7574 2.3374 8.18258 2.41454 4.1414C2.41917 3.89887 2.42365 3.6638 2.42679 3.43336C4.66994 3.33868 6.46371 2.65894 7.99927 1.32126C9.53498 2.65894 11.329 3.33875 13.5723 3.43336C13.5755 3.66372 13.58 3.89864 13.5846 4.14103C13.6617 8.18236 13.7485 12.7573 7.99927 14.8457Z" fill="#131414"/>
<path d="M9.92799 6.05457L7.22494 8.75747L6.07148 7.60401C5.96585 7.50191 5.82433 7.44539 5.67743 7.44664C5.53052 7.44789 5.38998 7.5068 5.28611 7.61069C5.18223 7.71458 5.12333 7.85512 5.12209 8.00202C5.12086 8.14893 5.17739 8.29044 5.2795 8.39606L6.82895 9.94551C6.8809 9.99758 6.94263 10.0389 7.01058 10.067C7.07854 10.0951 7.15139 10.1096 7.22494 10.1095C7.29849 10.1096 7.37134 10.0951 7.43929 10.067C7.50725 10.0389 7.56897 9.99758 7.62092 9.94551L10.7199 6.84661C10.7719 6.79463 10.8132 6.7329 10.8413 6.66496C10.8695 6.59701 10.884 6.52419 10.884 6.45064C10.884 6.3771 10.8695 6.30427 10.8414 6.23632C10.8132 6.16838 10.772 6.10664 10.72 6.05464C10.615 5.94962 10.4725 5.89061 10.324 5.89059C10.1755 5.89058 10.033 5.94956 9.92799 6.05457Z" fill="#131414"/>
</g>
<defs>
<clipPath id="clip0_509_15137">
<rect width="16" height="16" fill="white"/>
</clipPath>
</defs>
</svg>
