<svg width="24" height="24" viewBox="0 0 24 24" fill="none" xmlns="http://www.w3.org/2000/svg">
<rect x="0.5" y="0.5" width="23" height="23" rx="11.5" stroke="#A7A7A7"/>
<path d="M17.1199 11.2427C16.9494 11.0723 16.7425 10.9871 16.4989 10.9871H16.2068V9.23375C16.2068 8.11363 15.8052 7.15187 15.0016 6.34829C14.198 5.54469 13.2363 5.14288 12.1161 5.14288C10.9958 5.14288 10.034 5.54469 9.23049 6.34826C8.42688 7.15187 8.0252 8.1136 8.0252 9.23375V10.9871H7.73304C7.48961 10.9871 7.28259 11.0723 7.11212 11.2427C6.94165 11.4131 6.85645 11.6201 6.85645 11.8637V17.1234C6.85645 17.3669 6.94168 17.5739 7.11212 17.7444C7.28259 17.9148 7.48961 18 7.73304 18H16.4991C16.7427 18 16.9496 17.9149 17.1201 17.7444C17.2904 17.5739 17.3758 17.3669 17.3758 17.1234V11.8637C17.3759 11.6202 17.2904 11.4132 17.1199 11.2427ZM14.4537 10.9871H9.77845V9.23375C9.77845 8.58849 10.0068 8.03751 10.4633 7.58102C10.92 7.12446 11.4708 6.89623 12.1162 6.89623C12.7615 6.89623 13.3123 7.12443 13.769 7.58102C14.2254 8.03748 14.4537 8.58849 14.4537 9.23375V10.9871Z" fill="#A7A7A7"/>
</svg>
