<svg width="24" height="24" viewBox="0 0 24 24" fill="none" xmlns="http://www.w3.org/2000/svg">
<rect x="0.5" y="0.5" width="23" height="23" rx="11.5" stroke="#A7A7A7"/>
<path d="M17.1199 11.2428C16.9494 11.0723 16.7425 10.9872 16.4989 10.9872H16.2068V9.23381C16.2068 8.11369 15.8052 7.15193 15.0016 6.34836C14.198 5.54475 13.2363 5.14294 12.1161 5.14294C10.9958 5.14294 10.034 5.54475 9.23049 6.34832C8.42688 7.15193 8.0252 8.11366 8.0252 9.23381V10.9872H7.73304C7.48961 10.9872 7.28259 11.0723 7.11212 11.2428C6.94165 11.4131 6.85645 11.6202 6.85645 11.8638V17.1235C6.85645 17.3669 6.94168 17.574 7.11212 17.7445C7.28259 17.9148 7.48961 18.0001 7.73304 18.0001H16.4991C16.7427 18.0001 16.9496 17.9149 17.1201 17.7445C17.2904 17.574 17.3758 17.3669 17.3758 17.1235V11.8637C17.3759 11.6203 17.2904 11.4133 17.1199 11.2428ZM14.4537 10.9872H9.77845V9.23381C9.77845 8.58855 10.0068 8.03757 10.4633 7.58108C10.92 7.12452 11.4708 6.89629 12.1162 6.89629C12.7615 6.89629 13.3123 7.12449 13.769 7.58108C14.2254 8.03754 14.4537 8.58855 14.4537 9.23381V10.9872Z" fill="#A7A7A7"/>
</svg>
