<svg width="28" height="28" viewBox="0 0 28 28" fill="none" xmlns="http://www.w3.org/2000/svg">
<path d="M20.3088 15.82C20.1156 15.6912 19.8791 15.6444 19.6514 15.69C19.4238 15.7355 19.2235 15.8696 19.0947 16.0628C18.9659 16.256 18.9191 16.4925 18.9647 16.7201C19.0102 16.9478 19.1443 17.1481 19.3375 17.2769C19.5307 17.4057 19.7671 17.4525 19.9948 17.4069C20.1076 17.3844 20.2147 17.3398 20.3103 17.2759C20.4058 17.2119 20.4878 17.1297 20.5516 17.0341C20.6153 16.9384 20.6596 16.8311 20.682 16.7183C20.7043 16.6056 20.7041 16.4895 20.6816 16.3767C20.6591 16.264 20.6145 16.1568 20.5505 16.0613C20.4866 15.9658 20.4044 15.8838 20.3088 15.82ZM24.3412 12.8918H24.0026V10.4234C24.0016 9.76831 23.756 9.13716 23.3139 8.65373C22.8717 8.17031 22.265 7.86948 21.6125 7.81026L20.9882 5.80738C20.9199 5.58827 20.8092 5.38475 20.6622 5.20845C20.5153 5.03215 20.3351 4.88651 20.1319 4.77987C19.9287 4.67322 19.7064 4.60765 19.4779 4.58691C19.2493 4.56616 19.0189 4.59064 18.7998 4.65894L16.3533 5.42194L14.5141 3.30619C14.2108 2.95594 13.781 2.74034 13.319 2.7067C12.8569 2.67307 12.4004 2.82417 12.0496 3.12682L6.64519 7.79844H4.75256C4.05662 7.79925 3.38941 8.07608 2.8973 8.56818C2.4052 9.06029 2.12837 9.7275 2.12756 10.4234V22.6734C2.12837 23.3694 2.4052 24.0366 2.8973 24.5287C3.38941 25.0208 4.05662 25.2976 4.75256 25.2984H21.3776C22.0735 25.2976 22.7407 25.0208 23.2328 24.5287C23.7249 24.0366 24.0018 23.3694 24.0026 22.6734V20.2051H24.3412C24.7472 20.2046 25.1364 20.0431 25.4234 19.7561C25.7105 19.469 25.872 19.0798 25.8724 18.6738V14.4231C25.872 14.0171 25.7105 13.6279 25.4234 13.3408C25.1364 13.0538 24.7472 12.8923 24.3412 12.8918ZM19.1905 5.91238C19.245 5.89537 19.3023 5.88925 19.3591 5.89438C19.4159 5.8995 19.4712 5.91578 19.5217 5.94227C19.5723 5.96875 19.6171 6.00494 19.6536 6.04876C19.6902 6.09257 19.7178 6.14316 19.7348 6.19763L20.2339 7.79844H13.1408L19.1905 5.91238ZM12.908 4.11994C12.9956 4.04463 13.1095 4.00716 13.2246 4.01578C13.3398 4.02439 13.4469 4.07838 13.5223 4.16588L14.9848 5.84851L9.01119 7.71094C8.94922 7.73121 8.89067 7.76071 8.8375 7.79844H8.65244L12.908 4.11994ZM22.6901 22.6734C22.6897 23.0214 22.5513 23.3551 22.3053 23.6011C22.0592 23.8472 21.7256 23.9856 21.3776 23.9859H4.75256C4.40457 23.9856 4.07094 23.8472 3.82487 23.6011C3.5788 23.3551 3.44041 23.0214 3.44006 22.6734V10.4234C3.44041 10.0755 3.5788 9.74182 3.82487 9.49575C4.07094 9.24968 4.40457 9.11129 4.75256 9.11094H21.3776C21.7256 9.11129 22.0592 9.24968 22.3053 9.49575C22.5513 9.74182 22.6897 10.0755 22.6901 10.4234V12.8918H17.9082C17.5022 12.8923 17.113 13.0538 16.8259 13.3408C16.5389 13.6279 16.3774 14.0171 16.3769 14.4231V18.6738C16.3774 19.0798 16.5389 19.469 16.8259 19.7561C17.113 20.0431 17.5022 20.2046 17.9082 20.2051H22.6901V22.6734ZM24.5599 18.6738C24.5599 18.7318 24.5369 18.7875 24.4959 18.8285C24.4548 18.8695 24.3992 18.8926 24.3412 18.8926H23.359L23.3459 18.8913C23.3415 18.8913 23.338 18.8921 23.3336 18.8926H17.9086C17.8506 18.8926 17.795 18.8695 17.7539 18.8285C17.7129 18.7875 17.6899 18.7318 17.6899 18.6738V14.4231C17.6899 14.3651 17.7129 14.3094 17.7539 14.2684C17.795 14.2274 17.8506 14.2043 17.9086 14.2043H23.3336C23.338 14.2043 23.3419 14.2056 23.3463 14.2056L23.359 14.2043H24.3412C24.3992 14.2043 24.4548 14.2274 24.4959 14.2684C24.5369 14.3094 24.5599 14.3651 24.5599 14.4231V18.6738Z" fill="white"/>
</svg>
