<svg width="26" height="26" viewBox="0 0 26 26" fill="none" xmlns="http://www.w3.org/2000/svg">
<path d="M18.7666 7.61753L16.6637 18.7862C16.505 19.5745 16.0913 19.7706 15.5033 19.3994L12.2991 16.7402L10.753 18.4148C10.582 18.6075 10.4388 18.7687 10.1091 18.7687L10.3393 15.0936L16.2779 9.0504C16.5362 8.79114 16.222 8.6475 15.8766 8.90676L8.53494 14.1127L5.37429 12.9987C4.68678 12.7569 4.6744 12.2244 5.51738 11.8531L17.88 6.48944C18.4524 6.24776 18.9532 6.63308 18.7666 7.61753Z" fill="#A7A7A7"/>
<path d="M25 13C25 6.37258 19.6274 1 13 1C6.37258 1 1 6.37258 1 13C1 19.6274 6.37258 25 13 25C19.6274 25 25 19.6274 25 13Z" stroke="#A7A7A7"/>
</svg>
