<svg width="24" height="24" viewBox="0 0 24 24" fill="none" xmlns="http://www.w3.org/2000/svg">
<circle cx="12" cy="12" r="11.5" stroke="#A7A7A7"/>
<g clip-path="url(#clip0_3005_25942)">
<path d="M16.8554 13.6444C17.3732 14.174 17.9197 14.6723 18.3841 15.2552C18.5893 15.5143 18.7835 15.7817 18.9321 16.0823C19.1426 16.5098 18.9519 16.9801 18.5861 17.0056L16.3121 17.0045C15.7255 17.0555 15.2577 16.8082 14.8643 16.388C14.5494 16.052 14.2579 15.6945 13.9551 15.3472C13.831 15.2052 13.7011 15.0717 13.5459 14.9661C13.2355 14.755 12.966 14.8196 12.7886 15.1588C12.6079 15.5038 12.5669 15.8858 12.5492 16.2703C12.5248 16.8313 12.363 16.9788 11.8251 17.0045C10.6755 17.0613 9.58456 16.8791 8.57106 16.2716C7.67756 15.736 6.98469 14.9799 6.38158 14.124C5.20734 12.4573 4.30812 10.6258 3.49998 8.743C3.31806 8.31882 3.45111 8.09111 3.89786 8.08303C4.63973 8.06792 5.38148 8.06902 6.12421 8.08193C6.42572 8.08655 6.62532 8.26772 6.74177 8.56615C7.14314 9.60007 7.63428 10.5838 8.25073 11.4955C8.4149 11.7383 8.58227 11.981 8.82068 12.1519C9.0844 12.341 9.28518 12.2783 9.40925 11.9706C9.48797 11.7755 9.52242 11.5653 9.54017 11.3563C9.59895 10.6372 9.6067 9.91936 9.50362 9.20287C9.44033 8.75567 9.19992 8.46622 8.77394 8.38156C8.55658 8.33841 8.58894 8.25368 8.69417 8.12371C8.87695 7.89956 9.0489 7.76001 9.39156 7.76001H11.9616C12.3662 7.84367 12.456 8.03409 12.5114 8.46057L12.5136 11.4513C12.5092 11.6164 12.5923 12.1064 12.8762 12.2157C13.1034 12.2935 13.2532 12.1031 13.3895 11.9521C14.0048 11.2679 14.444 10.4594 14.8363 9.62209C15.0104 9.25393 15.1602 8.8716 15.3052 8.48961C15.4127 8.20614 15.5814 8.06663 15.8862 8.07285L18.3597 8.07514C18.4331 8.07514 18.5073 8.07627 18.5783 8.08901C18.9951 8.16343 19.1094 8.35129 18.9806 8.77766C18.7778 9.44665 18.3831 10.0041 17.9973 10.5642C17.5848 11.1621 17.1436 11.7396 16.7345 12.3411C16.3587 12.8904 16.3886 13.1673 16.8554 13.6444Z" fill="#A7A7A7"/>
</g>
<defs>
<clipPath id="clip0_3005_25942">
<rect width="16.2581" height="17.0323" fill="white" transform="translate(3.09692 3.87097)"/>
</clipPath>
</defs>
</svg>
