<svg width="24" height="24" viewBox="0 0 24 24" fill="none" xmlns="http://www.w3.org/2000/svg">
<circle cx="12" cy="12" r="11.5" stroke="#A7A7A7"/>
<g clip-path="url(#clip0_3005_25938)">
<path d="M18.5558 8.31672C18.0728 7.77448 17.1811 7.55328 15.4781 7.55328H9.29616C7.55417 7.55328 6.64733 7.78875 6.16617 8.36604C5.69702 8.92892 5.69702 9.75826 5.69702 10.9061V13.0939C5.69702 15.3176 6.25362 16.4466 9.29616 16.4466H15.4781C16.9549 16.4466 17.7733 16.2515 18.3027 15.7729C18.8457 15.2822 19.0773 14.481 19.0773 13.0939V10.9061C19.0773 9.69562 19.041 8.86137 18.5558 8.31672ZM14.2872 12.302L11.48 13.6877C11.4173 13.7187 11.3486 13.734 11.2801 13.734C11.2025 13.734 11.1251 13.7143 11.0565 13.6751C10.9273 13.6012 10.8485 13.469 10.8485 13.3264V10.564C10.8485 10.4217 10.9271 10.2896 11.056 10.2156C11.185 10.1417 11.3453 10.1366 11.4791 10.2023L14.2863 11.5789C14.4291 11.649 14.5188 11.7882 14.519 11.9401C14.5191 12.0922 14.4298 12.2317 14.2872 12.302Z" fill="#A7A7A7"/>
</g>
<defs>
<clipPath id="clip0_3005_25938">
<rect width="13.9355" height="13.1613" fill="white" transform="translate(5.41943 5.41937)"/>
</clipPath>
</defs>
</svg>
