<svg width="145" height="38" viewBox="0 0 145 38" fill="none" xmlns="http://www.w3.org/2000/svg">
<path d="M116.496 37.6258V32.8674H117.071V33.5983C117.459 33.0595 117.952 32.79 118.55 32.79C119.043 32.79 119.474 32.9634 119.843 33.3102C120.211 33.6522 120.396 34.1114 120.396 34.6878C120.396 35.2548 120.211 35.7116 119.843 36.0584C119.474 36.4051 119.043 36.5785 118.55 36.5785C117.943 36.5785 117.449 36.3208 117.071 35.8053V37.6258H116.496ZM118.446 36.0935C118.834 36.0935 119.158 35.967 119.417 35.714C119.676 35.4563 119.805 35.1118 119.805 34.6808C119.805 34.2637 119.673 33.9263 119.409 33.6686C119.145 33.4062 118.824 33.275 118.446 33.275C118.072 33.275 117.746 33.4086 117.467 33.6757C117.188 33.9427 117.048 34.2801 117.048 34.6878C117.048 35.0954 117.188 35.4328 117.467 35.6999C117.746 35.9623 118.072 36.0935 118.446 36.0935Z" fill="#F79900"/>
<path d="M112.863 36.5793C112.405 36.5793 112.044 36.4481 111.78 36.1857C111.516 35.9186 111.384 35.5648 111.384 35.1244V32.8682H111.959V34.9908C111.959 35.3329 112.051 35.6023 112.235 35.7991C112.425 35.9912 112.689 36.0873 113.027 36.0873C113.361 36.0873 113.638 35.9819 113.857 35.771C114.076 35.5602 114.185 35.286 114.185 34.9487V32.8682H114.753V36.502H114.185V35.8694C113.872 36.3427 113.431 36.5793 112.863 36.5793Z" fill="#F79900"/>
<path d="M109.371 36.0303C108.982 36.4004 108.502 36.5855 107.929 36.5855C107.356 36.5855 106.878 36.4004 106.495 36.0303C106.116 35.6601 105.927 35.2126 105.927 34.6878C105.927 34.1677 106.119 33.7225 106.502 33.3523C106.891 32.9775 107.371 32.79 107.944 32.79C108.517 32.79 108.995 32.9751 109.378 33.3453C109.762 33.7155 109.954 34.163 109.954 34.6878C109.954 35.2079 109.759 35.6554 109.371 36.0303ZM107.944 36.1006C108.357 36.1006 108.696 35.9647 108.96 35.6929C109.229 35.4211 109.363 35.0861 109.363 34.6878C109.363 34.2942 109.224 33.9591 108.945 33.6827C108.671 33.4062 108.332 33.268 107.929 33.268C107.516 33.268 107.177 33.4062 106.913 33.6827C106.649 33.9545 106.517 34.2895 106.517 34.6878C106.517 35.0814 106.654 35.4164 106.928 35.6929C107.202 35.9647 107.541 36.1006 107.944 36.1006Z" fill="#F79900"/>
<path d="M102.857 36.5013V32.8675H103.433V33.8163C103.582 33.5024 103.794 33.2517 104.068 33.0643C104.342 32.8768 104.655 32.7901 105.009 32.8042V33.3876H104.964C104.521 33.3876 104.155 33.5328 103.866 33.8234C103.577 34.1139 103.433 34.5239 103.433 35.0534V36.5013H102.857Z" fill="#F79900"/>
<path d="M101.175 35.8338C100.577 36.3352 99.8776 36.5858 99.0757 36.5858C98.2738 36.5858 97.6288 36.3445 97.1407 35.8619C96.6576 35.3746 96.416 34.7678 96.416 34.0415C96.416 33.348 96.6626 32.7505 97.1557 32.2491C97.6487 31.7478 98.2763 31.4971 99.0384 31.4971C99.4567 31.4971 99.8153 31.551 100.114 31.6587C100.418 31.7665 100.709 31.9305 100.988 32.1507L100.607 32.5725C100.149 32.1976 99.6186 32.0102 99.0159 32.0102C98.4432 32.0102 97.9675 32.2093 97.589 32.6076C97.2154 33.0012 97.0286 33.4792 97.0286 34.0415C97.0286 34.6366 97.2154 35.1262 97.589 35.5105C97.9675 35.8947 98.4706 36.0868 99.0981 36.0868C99.6759 36.0868 100.179 35.9228 100.607 35.5948V34.3718H99.0159V33.8728H101.175V35.8338Z" fill="#F79900"/>
<path d="M90.8876 36.5018V33.346H90.3572V32.875H90.8876V32.5587C90.8876 32.1464 90.9997 31.8348 91.2238 31.6239C91.4231 31.4365 91.6995 31.3428 92.0531 31.3428C92.2972 31.3428 92.5088 31.3732 92.6882 31.4341V31.9051C92.459 31.8442 92.2723 31.8137 92.1278 31.8137C91.6796 31.8137 91.4554 32.0714 91.4554 32.5869V32.8821H92.6807V33.346H91.4629V36.5018H90.8876Z" fill="#F79900"/>
<path d="M87.696 36.5018V33.346H87.1655V32.875H87.696V32.5587C87.696 32.1464 87.808 31.8348 88.0322 31.6239C88.2314 31.4365 88.5078 31.3428 88.8615 31.3428C89.1055 31.3428 89.3172 31.3732 89.4965 31.4341V31.9051C89.2674 31.8442 89.0806 31.8137 88.9362 31.8137C88.4879 31.8137 88.2638 32.0714 88.2638 32.5869V32.8821H89.489V33.346H88.2712V36.5018H87.696Z" fill="#F79900"/>
<path d="M85.1291 35.8408C84.626 36.3375 83.986 36.5858 83.209 36.5858C82.432 36.5858 81.7945 36.3375 81.2964 35.8408C80.7984 35.3441 80.5493 34.7443 80.5493 34.0415C80.5493 33.3433 80.8008 32.7458 81.3039 32.2491C81.8069 31.7478 82.447 31.4971 83.224 31.4971C84.001 31.4971 84.6385 31.7454 85.1366 32.2421C85.6346 32.7388 85.8837 33.3386 85.8837 34.0415C85.8837 34.7396 85.6321 35.3394 85.1291 35.8408ZM81.7447 35.4823C82.1382 35.8759 82.6313 36.0727 83.224 36.0727C83.8167 36.0727 84.3048 35.8783 84.6883 35.4894C85.0768 35.0958 85.271 34.6131 85.271 34.0415C85.271 33.4745 85.0743 32.9942 84.6808 32.6006C84.2923 32.207 83.8017 32.0102 83.209 32.0102C82.6163 32.0102 82.1257 32.207 81.7372 32.6006C81.3537 32.9895 81.1619 33.4698 81.1619 34.0415C81.1619 34.6084 81.3562 35.0887 81.7447 35.4823Z" fill="#F79900"/>
<path d="M73.7308 37.6477C73.4519 37.6477 73.1779 37.5868 72.909 37.4649L73.1032 37.0362C73.2875 37.1252 73.4892 37.1697 73.7084 37.1697C73.8827 37.1697 74.0297 37.1182 74.1492 37.0151C74.2687 36.9167 74.3858 36.741 74.5003 36.4879L72.7446 32.8682H73.3797L74.7842 35.8975L76.0244 32.8682H76.6371L75.0158 36.6215C74.8515 36.9917 74.6697 37.2541 74.4704 37.4087C74.2712 37.568 74.0247 37.6477 73.7308 37.6477Z" fill="#F79900"/>
<path d="M69.9679 36.5794C69.3602 36.5794 68.8671 36.3216 68.4886 35.8062V36.502H67.9133V31.3711H68.4886V33.5992C68.8771 33.0603 69.3702 32.7909 69.9679 32.7909C70.461 32.7909 70.8918 32.9643 71.2604 33.311C71.6289 33.6531 71.8132 34.1123 71.8132 34.6886C71.8132 35.2556 71.6289 35.7125 71.2604 36.0592C70.8918 36.406 70.461 36.5794 69.9679 36.5794ZM69.8633 36.0944C70.2518 36.0944 70.5755 35.9679 70.8345 35.7148C71.0935 35.4571 71.223 35.1127 71.223 34.6816C71.223 34.2646 71.091 33.9272 70.827 33.6695C70.5631 33.4071 70.2418 33.2759 69.8633 33.2759C69.4897 33.2759 69.1635 33.4094 68.8846 33.6765C68.6057 33.9436 68.4662 34.281 68.4662 34.6886C68.4662 35.0963 68.6057 35.4337 68.8846 35.7008C69.1635 35.9632 69.4897 36.0944 69.8633 36.0944Z" fill="#F79900"/>
<path d="M61.4369 36.5794C60.9438 36.5794 60.513 36.4083 60.1444 36.0663C59.7758 35.7195 59.5916 35.258 59.5916 34.6816C59.5916 34.1146 59.7758 33.6578 60.1444 33.311C60.513 32.9643 60.9438 32.7909 61.4369 32.7909C62.0446 32.7909 62.5376 33.0486 62.9162 33.564V31.3711H63.4915V36.502H62.9162V35.7711C62.5277 36.3099 62.0346 36.5794 61.4369 36.5794ZM61.5415 36.0944C61.9151 36.0944 62.2413 35.9608 62.5202 35.6937C62.7991 35.4266 62.9386 35.0869 62.9386 34.6746C62.9386 34.2716 62.7991 33.9389 62.5202 33.6765C62.2413 33.4094 61.9151 33.2759 61.5415 33.2759C61.153 33.2759 60.8293 33.4047 60.5703 33.6624C60.3113 33.9155 60.1818 34.2575 60.1818 34.6886C60.1818 35.1057 60.3138 35.4454 60.5777 35.7078C60.8417 35.9655 61.163 36.0944 61.5415 36.0944Z" fill="#F79900"/>
<path d="M55.2898 34.9057C55.3296 35.2759 55.4766 35.5711 55.7306 35.7913C55.9896 36.0068 56.2959 36.1146 56.6495 36.1146C57.1127 36.1146 57.5186 35.9436 57.8673 35.6015L58.2259 35.9037C57.7926 36.3583 57.2621 36.5855 56.6346 36.5855C56.0917 36.5855 55.6334 36.4098 55.2599 36.0584C54.8913 35.7023 54.707 35.2454 54.707 34.6878C54.707 34.1583 54.8838 33.7108 55.2375 33.3453C55.5911 32.9751 56.0319 32.79 56.5599 32.79C57.1127 32.79 57.551 32.9728 57.8748 33.3383C58.1985 33.7038 58.3604 34.163 58.3604 34.7159C58.3604 34.7862 58.3579 34.8494 58.3529 34.9057H55.2898ZM55.2898 34.4699H57.7776C57.7428 34.1185 57.6183 33.8279 57.4041 33.5983C57.1949 33.364 56.9085 33.2469 56.5449 33.2469C56.2162 33.2469 55.9348 33.3617 55.7007 33.5913C55.4666 33.8209 55.3296 34.1138 55.2898 34.4699Z" fill="#F79900"/>
<path d="M51.6377 36.5013V32.8675H52.213V33.8163C52.3624 33.5024 52.5741 33.2517 52.848 33.0643C53.1219 32.8768 53.4357 32.7901 53.7894 32.8042V33.3876H53.7445C53.3013 33.3876 52.9352 33.5328 52.6463 33.8234C52.3574 34.1139 52.213 34.5239 52.213 35.0534V36.5013H51.6377Z" fill="#F79900"/>
<path d="M47.1116 34.9057C47.1514 35.2759 47.2983 35.5711 47.5523 35.7913C47.8113 36.0068 48.1177 36.1146 48.4713 36.1146C48.9345 36.1146 49.3404 35.9436 49.6891 35.6015L50.0477 35.9037C49.6144 36.3583 49.0839 36.5855 48.4563 36.5855C47.9134 36.5855 47.4552 36.4098 47.0817 36.0584C46.7131 35.7023 46.5288 35.2454 46.5288 34.6878C46.5288 34.1583 46.7056 33.7108 47.0593 33.3453C47.4129 32.9751 47.8537 32.79 48.3816 32.79C48.9345 32.79 49.3728 32.9728 49.6965 33.3383C50.0203 33.7038 50.1822 34.163 50.1822 34.7159C50.1822 34.7862 50.1797 34.8494 50.1747 34.9057H47.1116ZM47.1116 34.4699H49.5994C49.5646 34.1185 49.44 33.8279 49.2259 33.5983C49.0167 33.364 48.7303 33.2469 48.3667 33.2469C48.038 33.2469 47.7566 33.3617 47.5225 33.5913C47.2884 33.8209 47.1514 34.1138 47.1116 34.4699Z" fill="#F79900"/>
<path d="M41.0979 36.5295L39.7456 32.8676H40.3582L41.3743 35.7845L42.4128 32.8535H42.8909L43.9369 35.7845L44.9529 32.8676H45.5506L44.1909 36.5295H43.6903L42.6519 33.6618L41.6059 36.5295H41.0979Z" fill="#F79900"/>
<path d="M38.1907 36.0303C37.8023 36.4004 37.3216 36.5855 36.7488 36.5855C36.176 36.5855 35.6979 36.4004 35.3144 36.0303C34.9358 35.6601 34.7466 35.2126 34.7466 34.6878C34.7466 34.1677 34.9383 33.7225 35.3219 33.3523C35.7104 32.9775 36.191 32.79 36.7638 32.79C37.3366 32.79 37.8147 32.9751 38.1982 33.3453C38.5817 33.7155 38.7735 34.163 38.7735 34.6878C38.7735 35.2079 38.5792 35.6554 38.1907 36.0303ZM36.7638 36.1006C37.1772 36.1006 37.5159 35.9647 37.7798 35.6929C38.0488 35.4211 38.1833 35.0861 38.1833 34.6878C38.1833 34.2942 38.0438 33.9591 37.7649 33.6827C37.491 33.4062 37.1523 33.268 36.7488 33.268C36.3354 33.268 35.9967 33.4062 35.7328 33.6827C35.4688 33.9545 35.3368 34.2895 35.3368 34.6878C35.3368 35.0814 35.4738 35.4164 35.7477 35.6929C36.0216 35.9647 36.3603 36.1006 36.7638 36.1006Z" fill="#F79900"/>
<path d="M29.5762 37.6258V32.8674H30.1514V33.5983C30.5399 33.0595 31.033 32.79 31.6307 32.79C32.1238 32.79 32.5546 32.9634 32.9232 33.3102C33.2918 33.6522 33.4761 34.1114 33.4761 34.6878C33.4761 35.2548 33.2918 35.7116 32.9232 36.0584C32.5546 36.4051 32.1238 36.5785 31.6307 36.5785C31.0231 36.5785 30.53 36.3208 30.1514 35.8053V37.6258H29.5762ZM31.5261 36.0935C31.9146 36.0935 32.2384 35.967 32.4974 35.714C32.7564 35.4563 32.8859 35.1118 32.8859 34.6808C32.8859 34.2637 32.7539 33.9263 32.4899 33.6686C32.2259 33.4062 31.9047 33.275 31.5261 33.275C31.1526 33.275 30.8263 33.4086 30.5474 33.6757C30.2685 33.9427 30.129 34.2801 30.129 34.6878C30.129 35.0954 30.2685 35.4328 30.5474 35.6999C30.8263 35.9623 31.1526 36.0935 31.5261 36.0935Z" fill="#F79900"/>
<path d="M72.7667 13.3076V24.6097H69.472V18.0309L64.7876 24.6097H61.5825V13.3076H64.8773V19.9076L69.5616 13.3076H72.7667Z" fill="black"/>
<path d="M58.0852 13.3076V24.6097H54.6784V16.0488H50.5767V24.6097H47.1699V13.3076H58.0852Z" fill="black"/>
<path d="M35.7267 21.8686H39.8283V16.0488H36.6232V16.3018C36.5933 18.7338 36.2945 20.5893 35.7267 21.8686ZM41.5989 24.6097H34.0681L33.8215 27.2666H30.9526V21.8686H32.2526C33.0296 20.3082 33.4181 17.7779 33.4181 14.2776V13.3076H43.2351V21.8686H44.8712L44.4678 27.2666H41.5989V24.6097Z" fill="black"/>
<path d="M27.4773 23.1547C26.2371 24.2934 24.6906 24.8627 22.8378 24.8627C20.9849 24.8627 19.4384 24.3004 18.1982 23.1758C16.973 22.0372 16.3604 20.6385 16.3604 18.9797C16.3604 17.335 16.9805 15.9433 18.2206 14.8047C19.4758 13.666 21.0298 13.0967 22.8826 13.0967C24.7354 13.0967 26.2745 13.666 27.4997 14.8047C28.7399 15.9292 29.36 17.3209 29.36 18.9797C29.36 20.6244 28.7324 22.0161 27.4773 23.1547ZM22.8826 22.1004C23.824 22.1004 24.5785 21.8052 25.1463 21.2148C25.7141 20.6103 25.998 19.8653 25.998 18.9797C25.998 18.1222 25.6992 17.3912 25.1015 16.7867C24.5188 16.1682 23.7642 15.859 22.8378 15.859C21.8964 15.859 21.1418 16.1612 20.574 16.7657C20.0062 17.3561 19.7223 18.0941 19.7223 18.9797C19.7223 19.8372 20.0137 20.5752 20.5964 21.1937C21.1941 21.7982 21.9562 22.1004 22.8826 22.1004Z" fill="black"/>
<path d="M0 24.6099V9.84961H13.0893V24.6099H9.63768V12.7806H3.45163V24.6099H0Z" fill="black"/>
<path d="M145 13.3809V24.683H141.593V20.3603H137.402V24.683H133.995V13.3809H137.402V17.7246H141.593V13.3809H145Z" fill="#F79900"/>
<path d="M129.197 23.228C127.957 24.3666 126.411 24.9359 124.558 24.9359C122.705 24.9359 121.158 24.3737 119.918 23.2491C118.693 22.1104 118.08 20.7117 118.08 19.0529C118.08 17.4082 118.7 16.0165 119.941 14.8779C121.196 13.7392 122.75 13.1699 124.603 13.1699C126.455 13.1699 127.994 13.7392 129.22 14.8779C130.46 16.0025 131.08 17.3942 131.08 19.0529C131.08 20.6976 130.452 22.0893 129.197 23.228ZM124.603 22.1737C125.544 22.1737 126.299 21.8785 126.866 21.2881C127.434 20.6836 127.718 19.9385 127.718 19.0529C127.718 18.1954 127.419 17.4645 126.821 16.86C126.239 16.2415 125.484 15.9322 124.558 15.9322C123.616 15.9322 122.862 16.2344 122.294 16.8389C121.726 17.4293 121.442 18.1673 121.442 19.0529C121.442 19.9104 121.734 20.6484 122.316 21.267C122.914 21.8714 123.676 22.1737 124.603 22.1737Z" fill="#F79900"/>
<path d="M105.51 13.3809H115.17V24.683H111.763V16.122H108.715C108.715 17.6121 108.655 18.8703 108.536 19.8965C108.416 20.9226 108.252 21.7591 108.043 22.4057C107.833 23.0523 107.542 23.5514 107.169 23.9028C106.795 24.2542 106.392 24.4932 105.958 24.6197C105.525 24.7462 104.987 24.8095 104.344 24.8095C103.732 24.8095 103.157 24.7462 102.619 24.6197L102.843 22.0261C103.112 22.0683 103.351 22.0894 103.56 22.0894C103.919 22.0894 104.203 22.0121 104.412 21.8575C104.621 21.6888 104.815 21.3233 104.994 20.761C105.189 20.1846 105.323 19.306 105.398 18.1252C105.473 16.9303 105.51 15.3489 105.51 13.3809Z" fill="#F79900"/>
<path d="M96.0918 27.0328C94.9465 22.6582 93.5841 20.3173 90.4758 16.7358C87.9207 18.6759 86.193 19.1782 82.6477 19.2499C83.5226 20.0928 84.5202 20.2238 86.7527 20.1477C85.0993 24.1684 83.6522 25.3078 79.8792 25.4452C80.491 25.7678 80.7486 26.0066 81.7372 26.0059C86.34 28.7196 91.4889 28.9397 96.0918 27.0328Z" fill="#F79900"/>
<path d="M75.106 14.0422C76.3062 -1.14041 95.2731 -3.97452 102.6 7.21826H101.072L104.127 13.5034L93.817 19.5192L92.0987 11.7975L94.9626 17.4541L102.6 13.0545L97.5401 3.26759C94.1368 6.0017 92.7675 7.34633 91.4304 9.37318C91.4755 8.08471 91.8235 7.2358 92.7669 5.60208L90.4758 5.96123C89.3163 6.22251 88.7709 6.19986 87.8982 5.96123C85.456 7.19052 84.4617 8.08001 83.3159 10.0017C81.5652 12.7521 81.2452 14.967 81.884 20.1477V20.9558C82.2658 24.0984 79.4019 24.4576 77.9699 22.572C76.538 20.6865 75.3427 18.1392 75.106 14.8502V14.0422Z" fill="#F79900"/>
<path d="M87.8982 12.6055V11.1689C86.8455 11.4058 86.0844 12.6055 86.0844 12.6055C86.7339 12.2565 87.1127 12.2483 87.8982 12.6055Z" fill="#F79900"/>
<path d="M93.3396 14.5666L97.0542 10.6025L97.6236 11.6366L93.5916 15.0837L93.3396 14.5666Z" fill="#F79900"/>
<path d="M98.3355 13.1878L94.2636 16.4625L94.5996 17.1519L98.7997 14.1242L98.3355 13.1878Z" fill="#F79900"/>
<path d="M99.446 15.4284L95.2716 18.5307L95.5236 19.0477L99.8732 16.2901L99.446 15.4284Z" fill="#F79900"/>
</svg>
