<svg width="145" height="40" viewBox="0 0 145 40" fill="none" xmlns="http://www.w3.org/2000/svg">
<path d="M116.496 39.9766V34.8653H117.071V35.6505C117.459 35.0716 117.952 34.7822 118.55 34.7822C119.043 34.7822 119.474 34.9685 119.843 35.3409C120.211 35.7084 120.396 36.2016 120.396 36.8207C120.396 37.4298 120.211 37.9205 119.843 38.293C119.474 38.6654 119.043 38.8517 118.55 38.8517C117.943 38.8517 117.449 38.5748 117.071 38.0212V39.9766H116.496ZM118.446 38.3307C118.834 38.3307 119.158 38.1948 119.417 37.923C119.676 37.6462 119.805 37.2762 119.805 36.8132C119.805 36.3652 119.673 36.0028 119.409 35.726C119.145 35.4441 118.824 35.3032 118.446 35.3032C118.072 35.3032 117.746 35.4466 117.467 35.7335C117.188 36.0204 117.048 36.3828 117.048 36.8207C117.048 37.2586 117.188 37.621 117.467 37.9079C117.746 38.1898 118.072 38.3307 118.446 38.3307Z" fill="#F79900"/>
<path d="M112.863 38.8516C112.405 38.8516 112.044 38.7107 111.78 38.4288C111.516 38.1419 111.384 37.7619 111.384 37.2888V34.8652H111.959V37.1453C111.959 37.5128 112.051 37.8022 112.235 38.0136C112.425 38.22 112.689 38.3231 113.027 38.3231C113.361 38.3231 113.638 38.2099 113.857 37.9834C114.076 37.7569 114.185 37.4624 114.185 37.1V34.8652H114.753V38.7686H114.185V38.0891C113.872 38.5975 113.431 38.8516 112.863 38.8516Z" fill="#F79900"/>
<path d="M109.371 38.2628C108.982 38.6604 108.502 38.8592 107.929 38.8592C107.356 38.8592 106.878 38.6604 106.495 38.2628C106.116 37.8651 105.927 37.3845 105.927 36.8207C105.927 36.262 106.119 35.7839 106.502 35.3862C106.891 34.9836 107.371 34.7822 107.944 34.7822C108.517 34.7822 108.995 34.981 109.378 35.3787C109.762 35.7763 109.954 36.257 109.954 36.8207C109.954 37.3794 109.759 37.8601 109.371 38.2628ZM107.944 38.3383C108.357 38.3383 108.696 38.1923 108.96 37.9004C109.229 37.6084 109.363 37.2486 109.363 36.8207C109.363 36.3979 109.224 36.038 108.945 35.7411C108.671 35.4441 108.332 35.2956 107.929 35.2956C107.516 35.2956 107.177 35.4441 106.913 35.7411C106.649 36.033 106.517 36.3929 106.517 36.8207C106.517 37.2435 106.654 37.6034 106.928 37.9004C107.202 38.1923 107.541 38.3383 107.944 38.3383Z" fill="#F79900"/>
<path d="M102.857 38.7688V34.8654H103.433V35.8847C103.582 35.5474 103.794 35.2782 104.068 35.0768C104.342 34.8755 104.655 34.7824 105.009 34.7975V35.4241H104.964C104.521 35.4241 104.155 35.5802 103.866 35.8922C103.577 36.2043 103.433 36.6447 103.433 37.2135V38.7688H102.857Z" fill="#F79900"/>
<path d="M101.175 38.0519C100.577 38.5905 99.8776 38.8598 99.0757 38.8598C98.2738 38.8598 97.6288 38.6005 97.1407 38.0821C96.6576 37.5586 96.416 36.9068 96.416 36.1267C96.416 35.3817 96.6626 34.74 97.1557 34.2014C97.6487 33.6628 98.2763 33.3936 99.0384 33.3936C99.4567 33.3936 99.8153 33.4514 100.114 33.5672C100.418 33.683 100.709 33.8591 100.988 34.0957L100.607 34.5487C100.149 34.146 99.6186 33.9447 99.0159 33.9447C98.4432 33.9447 97.9675 34.1586 97.589 34.5865C97.2154 35.0093 97.0286 35.5227 97.0286 36.1267C97.0286 36.7659 97.2154 37.2919 97.589 37.7046C97.9675 38.1173 98.4706 38.3237 99.0981 38.3237C99.6759 38.3237 100.179 38.1475 100.607 37.7952V36.4815H99.0159V35.9455H101.175V38.0519Z" fill="#F79900"/>
<path d="M90.8879 38.7692V35.3793H90.3574V34.8734H90.8879V34.5337C90.8879 34.0908 90.9999 33.756 91.2241 33.5295C91.4233 33.3282 91.6997 33.2275 92.0534 33.2275C92.2974 33.2275 92.5091 33.2603 92.6884 33.3257V33.8315C92.4593 33.7661 92.2725 33.7334 92.1281 33.7334C91.6798 33.7334 91.4557 34.0102 91.4557 34.5639V34.881H92.6809V35.3793H91.4631V38.7692H90.8879Z" fill="#F79900"/>
<path d="M87.696 38.7692V35.3793H87.1655V34.8734H87.696V34.5337C87.696 34.0908 87.808 33.756 88.0322 33.5295C88.2314 33.3282 88.5078 33.2275 88.8615 33.2275C89.1055 33.2275 89.3172 33.2603 89.4965 33.3257V33.8315C89.2674 33.7661 89.0806 33.7334 88.9362 33.7334C88.4879 33.7334 88.2638 34.0102 88.2638 34.5639V34.881H89.489V35.3793H88.2712V38.7692H87.696Z" fill="#F79900"/>
<path d="M85.1291 38.0595C84.626 38.593 83.986 38.8598 83.209 38.8598C82.432 38.8598 81.7945 38.593 81.2964 38.0595C80.7984 37.5259 80.5493 36.8817 80.5493 36.1267C80.5493 35.3767 80.8008 34.7349 81.3039 34.2014C81.8069 33.6628 82.447 33.3936 83.224 33.3936C84.001 33.3936 84.6385 33.6603 85.1366 34.1939C85.6346 34.7274 85.8837 35.3717 85.8837 36.1267C85.8837 36.8766 85.6321 37.5209 85.1291 38.0595ZM81.7447 37.6744C82.1382 38.0972 82.6313 38.3086 83.224 38.3086C83.8167 38.3086 84.3048 38.0997 84.6883 37.682C85.0768 37.2592 85.271 36.7407 85.271 36.1267C85.271 35.5176 85.0743 35.0017 84.6808 34.5789C84.2923 34.1561 83.8017 33.9447 83.209 33.9447C82.6163 33.9447 82.1257 34.1561 81.7372 34.5789C81.3537 34.9967 81.1619 35.5126 81.1619 36.1267C81.1619 36.7357 81.3562 37.2516 81.7447 37.6744Z" fill="#F79900"/>
<path d="M73.7308 39.9992C73.4519 39.9992 73.1779 39.9338 72.909 39.8029L73.1032 39.3424C73.2875 39.438 73.4892 39.4858 73.7084 39.4858C73.8827 39.4858 74.0297 39.4305 74.1492 39.3197C74.2687 39.214 74.3858 39.0253 74.5003 38.7535L72.7446 34.8652H73.3797L74.7842 38.1193L76.0244 34.8652H76.6371L75.0158 38.8969C74.8515 39.2946 74.6697 39.5764 74.4704 39.7425C74.2712 39.9137 74.0247 39.9992 73.7308 39.9992Z" fill="#F79900"/>
<path d="M69.9681 38.8524C69.3605 38.8524 68.8674 38.5755 68.4888 38.0219V38.7693H67.9136V33.2578H68.4888V35.6512C68.8773 35.0723 69.3704 34.7829 69.9681 34.7829C70.4612 34.7829 70.892 34.9691 71.2606 35.3416C71.6292 35.709 71.8135 36.2023 71.8135 36.8214C71.8135 37.4304 71.6292 37.9212 71.2606 38.2937C70.892 38.6661 70.4612 38.8524 69.9681 38.8524ZM69.8635 38.3314C70.252 38.3314 70.5758 38.1955 70.8348 37.9237C71.0938 37.6469 71.2233 37.2769 71.2233 36.8139C71.2233 36.3659 71.0913 36.0035 70.8273 35.7267C70.5633 35.4448 70.2421 35.3039 69.8635 35.3039C69.49 35.3039 69.1637 35.4473 68.8848 35.7342C68.6059 36.0211 68.4664 36.3835 68.4664 36.8214C68.4664 37.2593 68.6059 37.6217 68.8848 37.9086C69.1637 38.1905 69.49 38.3314 69.8635 38.3314Z" fill="#F79900"/>
<path d="M61.4367 38.8524C60.9436 38.8524 60.5127 38.6686 60.1442 38.3012C59.7756 37.9287 59.5913 37.433 59.5913 36.8139C59.5913 36.2048 59.7756 35.7141 60.1442 35.3416C60.5127 34.9691 60.9436 34.7829 61.4367 34.7829C62.0443 34.7829 62.5374 35.0597 62.9159 35.6134V33.2578H63.4912V38.7693H62.9159V37.9841C62.5274 38.5629 62.0343 38.8524 61.4367 38.8524ZM61.5413 38.3314C61.9148 38.3314 62.241 38.188 62.52 37.9011C62.7989 37.6142 62.9383 37.2492 62.9383 36.8063C62.9383 36.3734 62.7989 36.0161 62.52 35.7342C62.241 35.4473 61.9148 35.3039 61.5413 35.3039C61.1528 35.3039 60.829 35.4423 60.57 35.7191C60.311 35.9909 60.1815 36.3583 60.1815 36.8214C60.1815 37.2694 60.3135 37.6343 60.5775 37.9162C60.8415 38.193 61.1627 38.3314 61.5413 38.3314Z" fill="#F79900"/>
<path d="M55.2898 37.0548C55.3296 37.4524 55.4766 37.7695 55.7306 38.0061C55.9896 38.2376 56.2959 38.3534 56.6495 38.3534C57.1127 38.3534 57.5186 38.1697 57.8673 37.8022L58.2259 38.1269C57.7926 38.6151 57.2621 38.8592 56.6346 38.8592C56.0917 38.8592 55.6334 38.6705 55.2599 38.293C54.8913 37.9104 54.707 37.4197 54.707 36.8207C54.707 36.252 54.8838 35.7713 55.2375 35.3787C55.5911 34.981 56.0319 34.7822 56.5599 34.7822C57.1127 34.7822 57.551 34.9785 57.8748 35.3711C58.1985 35.7637 58.3604 36.257 58.3604 36.8509C58.3604 36.9264 58.3579 36.9944 58.3529 37.0548H55.2898ZM55.2898 36.5867H57.7776C57.7428 36.2092 57.6183 35.8971 57.4041 35.6505C57.1949 35.3988 56.9085 35.273 56.5449 35.273C56.2162 35.273 55.9348 35.3963 55.7007 35.6429C55.4666 35.8896 55.3296 36.2041 55.2898 36.5867Z" fill="#F79900"/>
<path d="M51.6377 38.7688V34.8654H52.213V35.8847C52.3624 35.5474 52.5741 35.2782 52.848 35.0768C53.1219 34.8755 53.4357 34.7824 53.7894 34.7975V35.4241H53.7445C53.3013 35.4241 52.9352 35.5802 52.6463 35.8922C52.3574 36.2043 52.213 36.6447 52.213 37.2135V38.7688H51.6377Z" fill="#F79900"/>
<path d="M47.1116 37.0548C47.1514 37.4524 47.2983 37.7695 47.5523 38.0061C47.8113 38.2376 48.1177 38.3534 48.4713 38.3534C48.9345 38.3534 49.3404 38.1697 49.6891 37.8022L50.0477 38.1269C49.6144 38.6151 49.0839 38.8592 48.4563 38.8592C47.9134 38.8592 47.4552 38.6705 47.0817 38.293C46.7131 37.9104 46.5288 37.4197 46.5288 36.8207C46.5288 36.252 46.7056 35.7713 47.0593 35.3787C47.4129 34.981 47.8537 34.7822 48.3816 34.7822C48.9345 34.7822 49.3728 34.9785 49.6965 35.3711C50.0203 35.7637 50.1822 36.257 50.1822 36.8509C50.1822 36.9264 50.1797 36.9944 50.1747 37.0548H47.1116ZM47.1116 36.5867H49.5994C49.5646 36.2092 49.44 35.8971 49.2259 35.6505C49.0167 35.3988 48.7303 35.273 48.3667 35.273C48.038 35.273 47.7566 35.3963 47.5225 35.6429C47.2884 35.8896 47.1514 36.2041 47.1116 36.5867Z" fill="#F79900"/>
<path d="M41.0979 38.7992L39.7456 34.8657H40.3582L41.3743 37.9989L42.4128 34.8506H42.8909L43.9369 37.9989L44.9529 34.8657H45.5506L44.1909 38.7992H43.6903L42.6519 35.7188L41.6059 38.7992H41.0979Z" fill="#F79900"/>
<path d="M38.1907 38.2628C37.8023 38.6604 37.3216 38.8592 36.7488 38.8592C36.176 38.8592 35.6979 38.6604 35.3144 38.2628C34.9358 37.8651 34.7466 37.3845 34.7466 36.8207C34.7466 36.262 34.9383 35.7839 35.3219 35.3862C35.7104 34.9836 36.191 34.7822 36.7638 34.7822C37.3366 34.7822 37.8147 34.981 38.1982 35.3787C38.5817 35.7763 38.7735 36.257 38.7735 36.8207C38.7735 37.3794 38.5792 37.8601 38.1907 38.2628ZM36.7638 38.3383C37.1772 38.3383 37.5159 38.1923 37.7798 37.9004C38.0488 37.6084 38.1833 37.2486 38.1833 36.8207C38.1833 36.3979 38.0438 36.038 37.7649 35.7411C37.491 35.4441 37.1523 35.2956 36.7488 35.2956C36.3354 35.2956 35.9967 35.4441 35.7328 35.7411C35.4688 36.033 35.3368 36.3929 35.3368 36.8207C35.3368 37.2435 35.4738 37.6034 35.7477 37.9004C36.0216 38.1923 36.3603 38.3383 36.7638 38.3383Z" fill="#F79900"/>
<path d="M29.5762 39.9766V34.8653H30.1514V35.6505C30.5399 35.0716 31.033 34.7822 31.6307 34.7822C32.1238 34.7822 32.5546 34.9685 32.9232 35.3409C33.2918 35.7084 33.4761 36.2016 33.4761 36.8207C33.4761 37.4298 33.2918 37.9205 32.9232 38.293C32.5546 38.6654 32.1238 38.8517 31.6307 38.8517C31.0231 38.8517 30.53 38.5748 30.1514 38.0212V39.9766H29.5762ZM31.5261 38.3307C31.9146 38.3307 32.2384 38.1948 32.4974 37.923C32.7564 37.6462 32.8859 37.2762 32.8859 36.8132C32.8859 36.3652 32.7539 36.0028 32.4899 35.726C32.2259 35.4441 31.9047 35.3032 31.5261 35.3032C31.1526 35.3032 30.8263 35.4466 30.5474 35.7335C30.2685 36.0204 30.129 36.3828 30.129 36.8207C30.129 37.2586 30.2685 37.621 30.5474 37.9079C30.8263 38.1898 31.1526 38.3307 31.5261 38.3307Z" fill="#F79900"/>
<path d="M72.7667 13.8545V25.9949H69.472V18.9281L64.7876 25.9949H61.5825V13.8545H64.8773V20.9439L69.5616 13.8545H72.7667Z" fill="black"/>
<path d="M58.0852 13.8545V25.9949H54.6784V16.799H50.5767V25.9949H47.1699V13.8545H58.0852Z" fill="black"/>
<path d="M35.7267 23.0504H39.8283V16.799H36.6232V17.0708C36.5933 19.6831 36.2945 21.6763 35.7267 23.0504ZM41.5989 25.9949H34.0681L33.8215 28.8488H30.9526V23.0504H32.2526C33.0296 21.3743 33.4181 18.6563 33.4181 14.8964V13.8545H43.2351V23.0504H44.8712L44.4678 28.8488H41.5989V25.9949Z" fill="black"/>
<path d="M27.4773 24.432C26.2371 25.6551 24.6906 26.2666 22.8378 26.2666C20.9849 26.2666 19.4384 25.6626 18.1982 24.4546C16.973 23.2315 16.3604 21.7291 16.3604 19.9473C16.3604 18.1806 16.9805 16.6857 18.2206 15.4626C19.4758 14.2395 21.0298 13.6279 22.8826 13.6279C24.7354 13.6279 26.2745 14.2395 27.4997 15.4626C28.7399 16.6706 29.36 18.1655 29.36 19.9473C29.36 21.714 28.7324 23.2089 27.4773 24.432ZM22.8826 23.2995C23.824 23.2995 24.5785 22.9824 25.1463 22.3482C25.7141 21.6989 25.998 20.8986 25.998 19.9473C25.998 19.0262 25.6992 18.241 25.1015 17.5917C24.5188 16.9273 23.7642 16.5951 22.8378 16.5951C21.8964 16.5951 21.1418 16.9197 20.574 17.569C20.0062 18.2032 19.7223 18.996 19.7223 19.9473C19.7223 20.8684 20.0137 21.6611 20.5964 22.3255C21.1941 22.9748 21.9562 23.2995 22.8826 23.2995Z" fill="black"/>
<path d="M0 25.9956V10.1406H13.0893V25.9956H9.63768V13.289H3.45163V25.9956H0Z" fill="black"/>
<path d="M145 13.9336V26.074H141.593V21.4307H137.402V26.074H133.995V13.9336H137.402V18.5995H141.593V13.9336H145Z" fill="#F79900"/>
<path d="M129.197 24.5111C127.957 25.7342 126.41 26.3457 124.557 26.3457C122.705 26.3457 121.158 25.7417 119.918 24.5337C118.693 23.3106 118.08 21.8082 118.08 20.0264C118.08 18.2597 118.7 16.7648 119.94 15.5417C121.196 14.3186 122.749 13.707 124.602 13.707C126.455 13.707 127.994 14.3186 129.219 15.5417C130.46 16.7497 131.08 18.2446 131.08 20.0264C131.08 21.7931 130.452 23.288 129.197 24.5111ZM124.602 23.3786C125.544 23.3786 126.298 23.0615 126.866 22.4273C127.434 21.778 127.718 20.9777 127.718 20.0264C127.718 19.1053 127.419 18.3201 126.821 17.6708C126.238 17.0064 125.484 16.6742 124.557 16.6742C123.616 16.6742 122.862 16.9988 122.294 17.6481C121.726 18.2823 121.442 19.0751 121.442 20.0264C121.442 20.9475 121.733 21.7402 122.316 22.4046C122.914 23.0539 123.676 23.3786 124.602 23.3786Z" fill="#F79900"/>
<path d="M105.51 13.9336H115.17V26.074H111.763V16.8781H108.715C108.715 18.4787 108.655 19.8301 108.536 20.9324C108.416 22.0347 108.252 22.9332 108.043 23.6278C107.833 24.3224 107.542 24.8584 107.169 25.2359C106.795 25.6134 106.392 25.8701 105.958 26.006C105.525 26.1419 104.987 26.2099 104.344 26.2099C103.732 26.2099 103.157 26.1419 102.619 26.006L102.843 23.2201C103.112 23.2654 103.351 23.288 103.56 23.288C103.919 23.288 104.203 23.205 104.412 23.0389C104.621 22.8577 104.815 22.4651 104.994 21.8611C105.189 21.242 105.323 20.2982 105.398 19.0298C105.473 17.7463 105.51 16.0476 105.51 13.9336Z" fill="#F79900"/>
<path d="M96.0915 28.5982C94.9463 23.8992 93.5839 21.3847 90.4755 17.5375C87.9204 19.6215 86.1928 20.1611 82.6475 20.2381C83.5224 21.1435 84.5199 21.2843 86.7524 21.2025C85.0991 25.5214 83.652 26.7453 79.879 26.893C80.4907 27.2394 80.7483 27.496 81.7369 27.4952C86.3398 30.4102 91.4887 30.6466 96.0915 28.5982Z" fill="#F79900"/>
<path d="M75.1058 14.6441C76.306 -1.66452 95.2729 -4.70884 102.6 7.3141H101.072L104.127 14.0654L93.8168 20.5274L92.0984 12.2329L94.9624 18.3091L102.6 13.5832L97.5399 3.07041C94.1365 6.00731 92.7673 7.45167 91.4302 9.62885C91.4752 8.24482 91.8232 7.33295 92.7667 5.57805L90.4755 5.96384C89.316 6.2445 88.7706 6.22016 87.898 5.96384C85.4557 7.2843 84.4614 8.23976 83.3157 10.304C81.565 13.2583 81.2449 15.6375 81.8837 21.2025V22.0706C82.2656 25.4462 79.4017 25.832 77.9697 23.8066C76.5377 21.7812 75.3425 19.0451 75.1058 15.5121V14.6441Z" fill="#F79900"/>
<path d="M87.898 13.101V11.5578C86.8452 11.8123 86.0842 13.101 86.0842 13.101C86.7336 12.726 87.1125 12.7173 87.898 13.101Z" fill="#F79900"/>
<path d="M93.3394 10.5666L97.0539 6.60254L97.6234 7.63664L93.5914 11.0837L93.3394 10.5666Z" fill="#F79900"/>
<path d="M98.3353 9.1878L94.2634 12.4625L94.5994 13.1519L98.7994 10.1242L98.3353 9.1878Z" fill="#F79900"/>
<path d="M99.4458 11.4284L95.2714 14.5307L95.5234 15.0477L99.8729 12.2901L99.4458 11.4284Z" fill="#F79900"/>
</svg>
