<svg width="109" height="30" viewBox="0 0 109 30" fill="none" xmlns="http://www.w3.org/2000/svg">
<path d="M87.5732 29.983V26.1494H88.0057V26.7383C88.2977 26.3042 88.6684 26.0872 89.1177 26.0872C89.4884 26.0872 89.8122 26.2268 90.0893 26.5062C90.3664 26.7818 90.5049 27.1517 90.5049 27.616C90.5049 28.0728 90.3664 28.4409 90.0893 28.7202C89.8122 28.9996 89.4884 29.1393 89.1177 29.1393C88.6609 29.1393 88.2902 28.9316 88.0057 28.5164V29.983H87.5732ZM89.0391 28.7485C89.3311 28.7485 89.5745 28.6466 89.7692 28.4428C89.9639 28.2351 90.0612 27.9577 90.0612 27.6104C90.0612 27.2744 89.962 27.0026 89.7636 26.795C89.5651 26.5836 89.3236 26.4779 89.0391 26.4779C88.7583 26.4779 88.513 26.5855 88.3033 26.8006C88.0937 27.0158 87.9888 27.2876 87.9888 27.616C87.9888 27.9445 88.0937 28.2163 88.3033 28.4314C88.513 28.6428 88.7583 28.7485 89.0391 28.7485Z" fill="#F79900"/>
<path d="M84.842 29.1392C84.4975 29.1392 84.2261 29.0335 84.0276 28.8221C83.8292 28.607 83.73 28.3219 83.73 27.9671V26.1494H84.1624V27.8595C84.1624 28.1351 84.2317 28.3521 84.3702 28.5107C84.5125 28.6655 84.7109 28.7429 84.9655 28.7429C85.2164 28.7429 85.4242 28.6579 85.5889 28.488C85.7537 28.3182 85.836 28.0973 85.836 27.8255V26.1494H86.2629V29.0769H85.836V28.5673C85.6002 28.9486 85.2688 29.1392 84.842 29.1392Z" fill="#F79900"/>
<path d="M82.2165 28.6976C81.9245 28.9958 81.5632 29.1449 81.1326 29.1449C80.702 29.1449 80.3426 28.9958 80.0543 28.6976C79.7697 28.3994 79.6274 28.0388 79.6274 27.616C79.6274 27.197 79.7716 26.8384 80.0599 26.5402C80.3519 26.2382 80.7132 26.0872 81.1438 26.0872C81.5744 26.0872 81.9338 26.2363 82.2221 26.5345C82.5104 26.8327 82.6546 27.1932 82.6546 27.616C82.6546 28.0351 82.5085 28.3956 82.2165 28.6976ZM81.1438 28.7542C81.4546 28.7542 81.7092 28.6447 81.9076 28.4258C82.1098 28.2068 82.2109 27.9369 82.2109 27.616C82.2109 27.2989 82.1061 27.029 81.8964 26.8063C81.6905 26.5836 81.4359 26.4722 81.1326 26.4722C80.8218 26.4722 80.5672 26.5836 80.3688 26.8063C80.1703 27.0253 80.0711 27.2952 80.0711 27.616C80.0711 27.9331 80.1741 28.2031 80.38 28.4258C80.5859 28.6447 80.8405 28.7542 81.1438 28.7542Z" fill="#F79900"/>
<path d="M77.3203 29.077V26.1494H77.7528V26.9139C77.8651 26.661 78.0242 26.459 78.2301 26.308C78.4361 26.157 78.6719 26.0872 78.9378 26.0985V26.5685H78.9041C78.5709 26.5685 78.2957 26.6855 78.0785 26.9195C77.8613 27.1536 77.7528 27.4839 77.7528 27.9105V29.077H77.3203Z" fill="#F79900"/>
<path d="M76.056 28.5391C75.6067 28.943 75.0807 29.145 74.4779 29.145C73.8751 29.145 73.3902 28.9505 73.0233 28.5617C72.6601 28.1691 72.4785 27.6803 72.4785 27.0951C72.4785 26.5364 72.6638 26.0551 73.0345 25.6512C73.4052 25.2473 73.8769 25.0453 74.4498 25.0453C74.7643 25.0453 75.0339 25.0887 75.2585 25.1755C75.4869 25.2624 75.7059 25.3945 75.9156 25.5719L75.6292 25.9117C75.2847 25.6097 74.886 25.4587 74.4329 25.4587C74.0024 25.4587 73.6448 25.6191 73.3603 25.94C73.0794 26.2571 72.939 26.6421 72.939 27.0951C72.939 27.5746 73.0794 27.969 73.3603 28.2786C73.6448 28.5881 74.023 28.7429 74.4947 28.7429C74.929 28.7429 75.3072 28.6108 75.6292 28.3465V27.3613H74.4329V26.9592H76.056V28.5391Z" fill="#F79900"/>
<path d="M68.3226 29.077V26.5345H67.9238V26.1551H68.3226V25.9003C68.3226 25.5681 68.4068 25.317 68.5753 25.1472C68.7251 24.9962 68.9329 24.9207 69.1987 24.9207C69.3822 24.9207 69.5413 24.9452 69.6761 24.9943V25.3737C69.5038 25.3246 69.3634 25.3 69.2549 25.3C68.9179 25.3 68.7494 25.5077 68.7494 25.9229V26.1607H69.6705V26.5345H68.755V29.077H68.3226Z" fill="#F79900"/>
<path d="M65.9229 29.077V26.5345H65.5242V26.1551H65.9229V25.9003C65.9229 25.5681 66.0072 25.317 66.1756 25.1472C66.3254 24.9962 66.5332 24.9207 66.799 24.9207C66.9825 24.9207 67.1416 24.9452 67.2764 24.9943V25.3737C67.1042 25.3246 66.9638 25.3 66.8552 25.3C66.5182 25.3 66.3498 25.5077 66.3498 25.9229V26.1607H67.2708V26.5345H66.3554V29.077H65.9229Z" fill="#F79900"/>
<path d="M63.9933 28.5447C63.6151 28.9449 63.134 29.145 62.5499 29.145C61.9658 29.145 61.4866 28.9449 61.1122 28.5447C60.7377 28.1446 60.5505 27.6614 60.5505 27.0951C60.5505 26.5326 60.7396 26.0513 61.1178 25.6512C61.4959 25.2473 61.977 25.0453 62.5611 25.0453C63.1452 25.0453 63.6245 25.2454 63.9989 25.6455C64.3733 26.0457 64.5605 26.5289 64.5605 27.0951C64.5605 27.6576 64.3714 28.1408 63.9933 28.5447ZM61.4491 28.2559C61.7449 28.573 62.1156 28.7316 62.5611 28.7316C63.0067 28.7316 63.3736 28.5749 63.6619 28.2616C63.9539 27.9445 64.1 27.5557 64.1 27.0951C64.1 26.6383 63.9521 26.2514 63.6563 25.9343C63.3642 25.6172 62.9954 25.4587 62.5499 25.4587C62.1043 25.4587 61.7356 25.6172 61.4435 25.9343C61.1552 26.2476 61.0111 26.6346 61.0111 27.0951C61.0111 27.5519 61.1571 27.9388 61.4491 28.2559Z" fill="#F79900"/>
<path d="M55.4254 29.9999C55.2157 29.9999 55.0098 29.9509 54.8076 29.8527L54.9537 29.5073C55.0922 29.579 55.2438 29.6149 55.4086 29.6149C55.5396 29.6149 55.6501 29.5734 55.7399 29.4903C55.8298 29.411 55.9178 29.2695 56.0039 29.0656L54.6841 26.1494H55.1615L56.2173 28.59L57.1496 26.1494H57.6101L56.3914 29.1732C56.2678 29.4714 56.1312 29.6828 55.9814 29.8074C55.8317 29.9358 55.6463 29.9999 55.4254 29.9999Z" fill="#F79900"/>
<path d="M52.5967 29.1393C52.1399 29.1393 51.7692 28.9317 51.4847 28.5164V29.077H51.0522V24.9434H51.4847V26.7384C51.7767 26.3043 52.1474 26.0872 52.5967 26.0872C52.9674 26.0872 53.2912 26.2269 53.5683 26.5062C53.8454 26.7818 53.9839 27.1517 53.9839 27.6161C53.9839 28.0729 53.8454 28.4409 53.5683 28.7203C53.2912 28.9996 52.9674 29.1393 52.5967 29.1393ZM52.5181 28.7486C52.8101 28.7486 53.0535 28.6467 53.2482 28.4428C53.4429 28.2352 53.5402 27.9577 53.5402 27.6104C53.5402 27.2744 53.441 27.0026 53.2426 26.795C53.0441 26.5836 52.8026 26.4779 52.5181 26.4779C52.2373 26.4779 51.992 26.5855 51.7824 26.8007C51.5727 27.0158 51.4678 27.2876 51.4678 27.6161C51.4678 27.9445 51.5727 28.2163 51.7824 28.4315C51.992 28.6429 52.2373 28.7486 52.5181 28.7486Z" fill="#F79900"/>
<path d="M46.1836 29.1393C45.8129 29.1393 45.4891 29.0015 45.212 28.7259C44.9349 28.4466 44.7964 28.0747 44.7964 27.6104C44.7964 27.1536 44.9349 26.7856 45.212 26.5062C45.4891 26.2269 45.8129 26.0872 46.1836 26.0872C46.6404 26.0872 47.011 26.2948 47.2956 26.7101V24.9434H47.728V29.077H47.2956V28.4881C47.0035 28.9222 46.6329 29.1393 46.1836 29.1393ZM46.2622 28.7486C46.543 28.7486 46.7883 28.641 46.9979 28.4258C47.2076 28.2106 47.3124 27.937 47.3124 27.6047C47.3124 27.2801 47.2076 27.0121 46.9979 26.8007C46.7883 26.5855 46.543 26.4779 46.2622 26.4779C45.9702 26.4779 45.7268 26.5817 45.5321 26.7893C45.3374 26.9932 45.2401 27.2688 45.2401 27.6161C45.2401 27.9521 45.3393 28.2257 45.5377 28.4371C45.7362 28.6448 45.9777 28.7486 46.2622 28.7486Z" fill="#F79900"/>
<path d="M41.5631 27.7916C41.593 28.0898 41.7035 28.3276 41.8944 28.5051C42.0891 28.6787 42.3194 28.7655 42.5852 28.7655C42.9334 28.7655 43.2386 28.6277 43.5006 28.3522L43.7702 28.5957C43.4445 28.9618 43.0457 29.1449 42.574 29.1449C42.1659 29.1449 41.8214 29.0034 41.5406 28.7202C41.2635 28.4333 41.125 28.0653 41.125 27.616C41.125 27.1895 41.2579 26.8289 41.5237 26.5345C41.7896 26.2363 42.1209 26.0872 42.5178 26.0872C42.9334 26.0872 43.2629 26.2344 43.5063 26.5288C43.7496 26.8233 43.8713 27.1932 43.8713 27.6387C43.8713 27.6953 43.8694 27.7463 43.8657 27.7916H41.5631ZM41.5631 27.4405H43.4333C43.407 27.1574 43.3134 26.9233 43.1524 26.7383C42.9952 26.5496 42.7799 26.4552 42.5066 26.4552C42.2595 26.4552 42.0479 26.5477 41.872 26.7327C41.696 26.9177 41.593 27.1536 41.5631 27.4405Z" fill="#F79900"/>
<path d="M38.8179 29.077V26.1494H39.2503V26.9139C39.3626 26.661 39.5218 26.459 39.7277 26.308C39.9336 26.157 40.1695 26.0872 40.4353 26.0985V26.5685H40.4016C40.0684 26.5685 39.7932 26.6855 39.5761 26.9195C39.3589 27.1536 39.2503 27.4839 39.2503 27.9105V29.077H38.8179Z" fill="#F79900"/>
<path d="M35.4151 27.7916C35.4451 28.0898 35.5555 28.3276 35.7465 28.5051C35.9412 28.6787 36.1714 28.7655 36.4373 28.7655C36.7855 28.7655 37.0906 28.6277 37.3527 28.3522L37.6223 28.5957C37.2965 28.9618 36.8978 29.1449 36.426 29.1449C36.0179 29.1449 35.6735 29.0034 35.3926 28.7202C35.1156 28.4333 34.9771 28.0653 34.9771 27.616C34.9771 27.1895 35.11 26.8289 35.3758 26.5345C35.6416 26.2363 35.973 26.0872 36.3699 26.0872C36.7855 26.0872 37.1149 26.2344 37.3583 26.5288C37.6017 26.8233 37.7234 27.1932 37.7234 27.6387C37.7234 27.6953 37.7215 27.7463 37.7178 27.7916H35.4151ZM35.4151 27.4405H37.2853C37.2591 27.1574 37.1655 26.9233 37.0045 26.7383C36.8472 26.5496 36.632 26.4552 36.3586 26.4552C36.1115 26.4552 35.9 26.5477 35.724 26.7327C35.548 26.9177 35.4451 27.1536 35.4151 27.4405Z" fill="#F79900"/>
<path d="M30.894 29.0996L29.8774 26.1494H30.338L31.1018 28.4993L31.8824 26.1381H32.2419L33.0281 28.4993L33.7919 26.1494H34.2412L33.2191 29.0996H32.8428L32.0621 26.7893L31.2759 29.0996H30.894Z" fill="#F79900"/>
<path d="M28.7094 28.6976C28.4174 28.9958 28.0561 29.1449 27.6255 29.1449C27.1949 29.1449 26.8355 28.9958 26.5472 28.6976C26.2626 28.3994 26.1204 28.0388 26.1204 27.616C26.1204 27.197 26.2645 26.8384 26.5528 26.5402C26.8448 26.2382 27.2062 26.0872 27.6367 26.0872C28.0673 26.0872 28.4267 26.2363 28.715 26.5345C29.0033 26.8327 29.1475 27.1932 29.1475 27.616C29.1475 28.0351 29.0015 28.3956 28.7094 28.6976ZM27.6367 28.7542C27.9475 28.7542 28.2021 28.6447 28.4005 28.4258C28.6027 28.2068 28.7038 27.9369 28.7038 27.616C28.7038 27.2989 28.599 27.029 28.3893 26.8063C28.1834 26.5836 27.9288 26.4722 27.6255 26.4722C27.3147 26.4722 27.0601 26.5836 26.8617 26.8063C26.6633 27.0253 26.564 27.2952 26.564 27.616C26.564 27.9331 26.667 28.2031 26.8729 28.4258C27.0789 28.6447 27.3335 28.7542 27.6367 28.7542Z" fill="#F79900"/>
<path d="M22.2336 29.983V26.1494H22.6661V26.7383C22.9581 26.3042 23.3288 26.0872 23.7781 26.0872C24.1488 26.0872 24.4726 26.2268 24.7497 26.5062C25.0268 26.7818 25.1653 27.1517 25.1653 27.616C25.1653 28.0728 25.0268 28.4409 24.7497 28.7202C24.4726 28.9996 24.1488 29.1393 23.7781 29.1393C23.3213 29.1393 22.9506 28.9316 22.6661 28.5164V29.983H22.2336ZM23.6995 28.7485C23.9915 28.7485 24.2349 28.6466 24.4296 28.4428C24.6243 28.2351 24.7216 27.9577 24.7216 27.6104C24.7216 27.2744 24.6224 27.0026 24.424 26.795C24.2255 26.5836 23.984 26.4779 23.6995 26.4779C23.4187 26.4779 23.1734 26.5855 22.9637 26.8006C22.7541 27.0158 22.6492 27.2876 22.6492 27.616C22.6492 27.9445 22.7541 28.2163 22.9637 28.4314C23.1734 28.6428 23.4187 28.7485 23.6995 28.7485Z" fill="#F79900"/>
<path d="M54.7006 10.3916V19.497H52.2239V14.1968L48.7026 19.497H46.2932V10.3916H48.7699V15.7087L52.2913 10.3916H54.7006Z" fill="white"/>
<path d="M43.6635 10.3916V19.497H41.1025V12.6H38.0192V19.497H35.4583V10.3916H43.6635Z" fill="white"/>
<path d="M26.8568 17.2886H29.9401V12.6H27.5308V12.8038C27.5083 14.7631 27.2836 16.258 26.8568 17.2886ZM31.2711 19.497H25.61L25.4247 21.6374H23.2681V17.2886H24.2453C24.8294 16.0315 25.1214 13.993 25.1214 11.173V10.3916H32.5011V17.2886H33.731L33.4277 21.6374H31.2711V19.497Z" fill="white"/>
<path d="M20.6557 18.3249C19.7234 19.2422 18.5609 19.7009 17.1681 19.7009C15.7752 19.7009 14.6127 19.2479 13.6804 18.3419C12.7594 17.4245 12.2988 16.2977 12.2988 14.9613C12.2988 13.6363 12.765 12.5151 13.6973 11.5978C14.6408 10.6805 15.8089 10.2218 17.2018 10.2218C18.5946 10.2218 19.7515 10.6805 20.6726 11.5978C21.6048 12.5038 22.071 13.625 22.071 14.9613C22.071 16.2864 21.5992 17.4076 20.6557 18.3249ZM17.2018 17.4755C17.9094 17.4755 18.4766 17.2377 18.9035 16.762C19.3303 16.275 19.5437 15.6748 19.5437 14.9613C19.5437 14.2705 19.3191 13.6816 18.8698 13.1946C18.4317 12.6963 17.8645 12.4472 17.1681 12.4472C16.4604 12.4472 15.8932 12.6907 15.4664 13.1776C15.0395 13.6533 14.8261 14.2479 14.8261 14.9613C14.8261 15.6522 15.0451 16.2467 15.4832 16.745C15.9325 17.232 16.5054 17.4755 17.2018 17.4755Z" fill="white"/>
<path d="M0 19.497V7.60571H9.83955V19.497H7.24488V9.96699H2.59468V19.497H0Z" fill="white"/>
<path d="M109 10.4507V19.556H106.439V16.0736H103.288V19.556H100.727V10.4507H103.288V13.9501H106.439V10.4507H109Z" fill="#F79900"/>
<path d="M97.121 18.3838C96.1888 19.3012 95.0262 19.7598 93.6334 19.7598C92.2406 19.7598 91.078 19.3068 90.1457 18.4008C89.2247 17.4835 88.7642 16.3567 88.7642 15.0203C88.7642 13.6953 89.2303 12.5741 90.1626 11.6568C91.1061 10.7394 92.2743 10.2808 93.6671 10.2808C95.0599 10.2808 96.2168 10.7394 97.1379 11.6568C98.0702 12.5628 98.5363 13.6839 98.5363 15.0203C98.5363 16.3453 98.0646 17.4665 97.121 18.3838ZM93.6671 17.5345C94.3747 17.5345 94.942 17.2966 95.3688 16.821C95.7956 16.334 96.009 15.7338 96.009 15.0203C96.009 14.3295 95.7844 13.7406 95.3351 13.2536C94.897 12.7553 94.3298 12.5061 93.6334 12.5061C92.9258 12.5061 92.3585 12.7496 91.9317 13.2366C91.5049 13.7123 91.2914 14.3068 91.2914 15.0203C91.2914 15.7111 91.5105 16.3057 91.9485 16.804C92.3978 17.291 92.9707 17.5345 93.6671 17.5345Z" fill="#F79900"/>
<path d="M79.3141 10.4508H86.5758V19.5562H84.0148V12.6592H81.7234C81.7234 13.8596 81.6785 14.8732 81.5886 15.7C81.4988 16.5267 81.3752 17.2005 81.218 17.7215C81.0607 18.2424 80.8417 18.6445 80.5609 18.9276C80.2801 19.2107 79.9768 19.4033 79.6511 19.5052C79.3253 19.6071 78.921 19.6581 78.438 19.6581C77.9774 19.6581 77.545 19.6071 77.1406 19.5052L77.3091 17.4157C77.5113 17.4497 77.691 17.4667 77.8483 17.4667C78.1178 17.4667 78.3313 17.4044 78.4885 17.2798C78.6458 17.1439 78.7918 16.8495 78.9266 16.3965C79.0726 15.9321 79.1737 15.2243 79.2298 14.273C79.286 13.3104 79.3141 12.0363 79.3141 10.4508Z" fill="#F79900"/>
<path d="M72.2345 21.4488C71.3736 17.9245 70.3494 16.0386 68.0128 13.1532C66.0921 14.7162 64.7933 15.1209 62.1282 15.1786C62.786 15.8577 63.5358 15.9633 65.214 15.902C63.9712 19.1412 62.8834 20.0591 60.0471 20.1698C60.507 20.4297 60.7006 20.6221 61.4438 20.6216C64.9038 22.8078 68.7744 22.9851 72.2345 21.4488Z" fill="#F79900"/>
<path d="M56.459 10.9831C57.3612 -1.2484 71.6191 -3.53165 77.1267 5.48561H75.9785L78.2749 10.5491L70.5245 15.3956L69.2328 9.17475L71.3857 13.7319L77.1267 10.1875L73.3233 2.30282C70.7649 4.50551 69.7356 5.58879 68.7304 7.22168C68.7643 6.18365 69.0259 5.49974 69.7351 4.18356L68.0128 4.47291C67.1412 4.6834 66.7312 4.66515 66.0752 4.47291C64.2393 5.46326 63.4918 6.17986 62.6306 7.72803C61.3145 9.94381 61.0739 11.7282 61.5541 15.902V16.553C61.8412 19.0848 59.6883 19.3741 58.6119 17.8551C57.5354 16.336 56.6369 14.2839 56.459 11.6342V10.9831Z" fill="#F79900"/>
<path d="M66.0752 9.82577V8.6684C65.2838 8.85924 64.7117 9.82577 64.7117 9.82577C65.1999 9.54454 65.4847 9.538 66.0752 9.82577Z" fill="#F79900"/>
<path d="M70.1655 7.92497L72.9578 4.9519L73.386 5.72749L70.355 8.31276L70.1655 7.92497Z" fill="#F79900"/>
<path d="M73.9211 6.89086L70.8601 9.34687L71.1127 9.86392L74.27 7.59319L73.9211 6.89086Z" fill="#F79900"/>
<path d="M74.7559 8.57129L71.6179 10.898L71.8073 11.2858L75.077 9.2176L74.7559 8.57129Z" fill="#F79900"/>
</svg>
